M48
;DRILL file {Pcbnew (2013-07-07 BZR 4022)-stable} date 2014/09/08 2:45:15
;FORMAT={-:-/ absolute / metric / decimal}
FMAT,2
METRIC,TZ
T1C0.635
T2C0.700
T3C0.800
T4C0.813
T5C0.850
T6C1.000
T7C1.200
T8C3.000
%
G90
G05
M71
T1
X7.925Y37.5
X11.725Y69.8
X13.675Y17.85
X19.6Y37.875
X20.325Y69.8
X20.6Y41.6
X24.1Y38.
X24.475Y24.85
X24.725Y68.6
X25.025Y59.
X25.3Y33.5
X28.Y35.4
X29.925Y69.8
X30.025Y67.
X30.2Y33.6
X30.525Y60.7
X30.525Y59.3
X30.525Y57.9
X31.3Y38.3
X32.Y33.6
X32.7Y38.3
X34.4Y38.8
X34.5Y27.6
X36.125Y34.85
X37.125Y73.7
X37.7Y26.6
X38.075Y17.7
X38.55Y33.55
X38.725Y58.4
X39.625Y66.1
X40.2Y36.7
X40.525Y56.3
X41.025Y62.8
X41.2Y38.9
X41.575Y15.25
X41.625Y66.2
X41.825Y56.7
X42.725Y61.5
X42.825Y54.9
X42.925Y65.1
X43.925Y61.1
X44.225Y65.2
X45.125Y61.1
X45.225Y66.2
X45.525Y33.9
X46.525Y58.8
X46.825Y56.
X48.125Y19.2
X50.175Y20.2
X50.225Y69.
X50.625Y62.
X53.325Y65.2
X54.9Y33.9
X55.025Y65.4
X55.6Y26.1
X55.7Y19.1
X61.1Y19.1
X63.9Y34.1
X64.9Y75.
X65.8Y39.6
X66.5Y66.2
X67.825Y58.4
X67.825Y56.5
X67.9Y64.
X67.9Y62.2
X69.325Y63.7
X70.8Y18.8
X70.9Y62.
X73.7Y39.2
X74.9Y17.8
X75.Y39.2
X77.2Y39.1
X77.625Y60.35
X81.1Y68.2
X81.4Y35.3
X81.425Y56.15
X81.5Y58.2
X81.8Y18.3
X83.1Y74.8
X84.3Y35.3
X87.3Y18.3
X89.7Y58.
X91.625Y75.9
T2
X51.275Y56.15
X52.775Y56.15
X54.275Y56.15
X55.775Y56.15
X57.275Y56.15
X58.775Y56.15
T3
X6.5Y9.2
X6.8Y6.5
X7.4Y11.7
X8.4Y4.3
X9.5Y13.5
X9.55Y74.35
X10.7Y3.1
X12.1Y14.2
X13.5Y3.1
X14.05Y74.35
X14.7Y13.5
X15.8Y4.3
X16.8Y11.7
X17.4Y6.5
X17.7Y9.2
X19.05Y74.35
X19.5Y87.5
X20.Y9.2
X20.3Y6.5
X20.9Y11.7
X21.5Y87.5
X21.9Y4.3
X23.Y13.5
X23.55Y74.35
X24.2Y3.1
X25.6Y14.2
X26.Y87.5
X27.Y3.1
X28.Y87.5
X28.2Y13.5
X28.55Y74.35
X29.3Y4.3
X30.3Y11.7
X30.9Y6.5
X31.2Y9.2
X33.05Y74.35
X37.746Y9.196
X38.046Y6.496
X38.646Y11.696
X39.646Y4.296
X40.746Y13.496
X41.946Y3.096
X43.346Y14.196
X44.746Y3.096
X45.946Y13.496
X47.046Y4.296
X48.046Y11.696
X48.646Y6.496
X48.946Y9.196
X51.246Y9.196
X51.546Y6.496
X52.146Y11.696
X53.146Y4.296
X54.246Y13.496
X54.5Y87.5
X55.446Y3.096
X56.5Y87.5
X56.846Y14.196
X58.246Y3.096
X59.446Y13.496
X60.546Y4.296
X61.Y87.5
X61.546Y11.696
X62.146Y6.496
X62.446Y9.196
X63.Y87.5
X68.996Y9.196
X69.296Y6.496
X69.896Y11.696
X70.896Y4.296
X71.996Y13.496
X72.Y87.5
X73.196Y3.096
X74.Y87.5
X74.596Y14.196
X75.996Y3.096
X77.196Y13.496
X78.296Y4.296
X78.5Y87.5
X79.296Y11.696
X79.896Y6.496
X80.196Y9.196
X80.5Y87.5
X82.496Y9.196
X82.796Y6.496
X83.396Y11.696
X84.396Y4.296
X85.496Y13.496
X86.696Y3.096
X88.096Y14.196
X89.496Y3.096
X90.696Y13.496
X91.796Y4.296
X92.796Y11.696
X93.396Y6.496
X93.696Y9.196
T4
X43.836Y29.316
X43.836Y21.696
X46.376Y29.316
X46.376Y21.696
X48.916Y29.316
X48.916Y21.696
X51.456Y29.316
X51.456Y21.696
T5
X12.525Y66.8
X12.525Y55.3
T6
X1.5Y88.54
X1.5Y86.
X1.5Y83.46
X2.23Y68.58
X2.23Y66.04
X2.23Y63.5
X2.23Y60.96
X2.23Y58.42
X2.23Y34.58
X2.23Y32.04
X2.23Y29.5
X2.23Y26.96
X2.23Y24.42
X4.77Y68.58
X4.77Y66.04
X4.77Y63.5
X4.77Y60.96
X4.77Y58.42
X4.77Y34.58
X4.77Y32.04
X4.77Y29.5
X4.77Y26.96
X4.77Y24.42
X23.516Y29.316
X23.516Y21.696
X26.056Y29.316
X26.056Y21.696
X28.596Y29.316
X28.596Y21.696
X31.136Y29.316
X31.136Y21.696
X33.676Y29.316
X33.676Y21.696
X35.Y19.14
X35.Y16.6
X35.Y14.06
X36.216Y29.316
X36.216Y21.696
X36.5Y88.54
X36.5Y86.
X36.5Y83.46
X38.756Y29.316
X38.756Y21.696
X41.296Y29.316
X41.296Y21.696
X44.105Y40.67
X44.105Y38.13
X44.405Y74.77
X44.405Y72.23
X46.645Y40.67
X46.645Y38.13
X46.945Y74.77
X46.945Y72.23
X49.185Y40.67
X49.185Y38.13
X49.485Y74.77
X49.485Y72.23
X51.725Y40.67
X51.725Y38.13
X52.025Y74.77
X52.025Y72.23
X53.996Y29.316
X53.996Y21.696
X54.265Y40.67
X54.265Y38.13
X54.565Y74.77
X54.565Y72.23
X56.536Y29.316
X56.536Y21.696
X56.805Y40.67
X56.805Y38.13
X57.105Y74.77
X57.105Y72.23
X59.076Y29.316
X59.076Y21.696
X59.345Y40.67
X59.345Y38.13
X59.645Y74.77
X59.645Y72.23
X61.616Y29.316
X61.616Y21.696
X64.156Y29.316
X64.156Y21.696
X66.3Y19.14
X66.3Y16.6
X66.3Y14.06
X66.696Y29.316
X66.696Y21.696
X69.236Y29.316
X69.236Y21.696
X71.776Y29.316
X71.776Y21.696
X74.316Y29.316
X74.316Y21.696
X76.856Y29.316
X76.856Y21.696
X79.396Y29.316
X79.396Y21.696
X81.936Y29.316
X81.936Y21.696
X84.476Y29.316
X84.476Y21.696
X87.016Y29.316
X87.016Y21.696
X89.556Y29.316
X89.556Y21.696
X92.096Y29.316
X92.096Y21.696
X95.23Y68.58
X95.23Y66.04
X95.23Y63.5
X95.23Y60.96
X95.23Y58.42
X95.23Y34.58
X95.23Y32.04
X95.23Y29.5
X95.23Y26.96
X95.23Y24.42
X97.77Y68.58
X97.77Y66.04
X97.77Y63.5
X97.77Y60.96
X97.77Y58.42
X97.77Y34.58
X97.77Y32.04
X97.77Y29.5
X97.77Y26.96
X97.77Y24.42
X98.5Y88.54
X98.5Y86.
X98.5Y83.46
T7
X8.3Y71.85
X15.3Y71.85
X17.8Y71.85
X24.8Y71.85
X27.3Y71.85
X34.3Y71.85
T8
X3.5Y73.5
X3.5Y39.5
X3.5Y3.5
X96.5Y73.5
X96.5Y39.5
X96.5Y3.5
T3
X7.9Y32.G85X7.9Y34.2
G05
X11.6Y36.35G85X13.8Y36.35
G05
X11.6Y30.1G85X13.8Y30.1
G05
T0
M30
