G04 (created by PCBNEW (2013-07-07 BZR 4022)-stable) date 2014/09/08 2:45:12*
%MOIN*%
G04 Gerber Fmt 3.4, Leading zero omitted, Abs format*
%FSLAX34Y34*%
G01*
G70*
G90*
G04 APERTURE LIST*
%ADD10C,0.00590551*%
%ADD11C,0.0629921*%
%ADD12R,0.025X0.05*%
%ADD13R,0.0787X0.0177*%
%ADD14R,0.0177X0.0787*%
%ADD15R,0.0197X0.0906*%
%ADD16R,0.0984252X0.0708661*%
%ADD17O,0.0787402X0.165354*%
%ADD18O,0.165354X0.0787402*%
%ADD19R,0.11811X0.11811*%
%ADD20R,0.0394X0.0315*%
%ADD21R,0.05X0.025*%
%ADD22R,0.06X0.08*%
%ADD23R,0.035X0.055*%
%ADD24R,0.055X0.035*%
%ADD25R,0.025X0.045*%
%ADD26R,0.045X0.025*%
%ADD27R,0.144X0.08*%
%ADD28R,0.04X0.08*%
%ADD29R,0.0393701X0.0354331*%
%ADD30R,0.0433071X0.0354331*%
%ADD31R,0.19685X0.0314961*%
%ADD32R,0.0393701X0.0905512*%
%ADD33C,0.0551181*%
%ADD34R,0.0511811X0.0866142*%
%ADD35R,0.0472441X0.0551181*%
%ADD36O,0.0433071X0.0669291*%
%ADD37C,0.055*%
%ADD38C,0.23622*%
%ADD39C,0.0708661*%
%ADD40R,0.0315X0.0394*%
%ADD41R,0.0591X0.0984*%
%ADD42R,0.2756X0.2756*%
G04 APERTURE END LIST*
G54D10*
G54D11*
X590Y32858D03*
X590Y33858D03*
X590Y34858D03*
G54D12*
X32025Y16060D03*
X31525Y16060D03*
X31025Y16060D03*
X30525Y16060D03*
X30025Y16060D03*
X29525Y16060D03*
X29025Y16060D03*
X28525Y16060D03*
X28525Y13230D03*
X29025Y13230D03*
X29525Y13230D03*
X30025Y13230D03*
X30525Y13230D03*
X31025Y13230D03*
X31525Y13230D03*
X32025Y13230D03*
G54D11*
X28258Y11541D03*
X27258Y11541D03*
X26258Y11541D03*
X25258Y11541D03*
X24258Y11541D03*
X23258Y11541D03*
X22258Y11541D03*
X21258Y11541D03*
X21258Y8541D03*
X22258Y8541D03*
X23258Y8541D03*
X24258Y8541D03*
X25258Y8541D03*
X26258Y8541D03*
X27258Y8541D03*
X28258Y8541D03*
G54D13*
X14905Y23887D03*
X14905Y24202D03*
X14905Y24517D03*
X14905Y24832D03*
X14905Y25147D03*
X14905Y25462D03*
X14905Y25777D03*
X14905Y26092D03*
X18671Y26090D03*
X18671Y23880D03*
X18671Y24200D03*
X18671Y24520D03*
X18671Y24830D03*
X18671Y25150D03*
X18671Y25460D03*
X18671Y25780D03*
G54D14*
X15689Y26880D03*
X16003Y26880D03*
X16319Y26880D03*
X16633Y26880D03*
X16949Y26880D03*
X17263Y26880D03*
X17579Y26880D03*
X17893Y26880D03*
X15691Y23100D03*
X16001Y23100D03*
X16321Y23100D03*
X16631Y23100D03*
X16941Y23100D03*
X17261Y23100D03*
X17581Y23100D03*
X17901Y23100D03*
G54D15*
X13148Y14270D03*
X12833Y14270D03*
X12518Y14270D03*
X12203Y14270D03*
X11888Y14270D03*
G54D16*
X14250Y14840D03*
X14250Y15707D03*
X10785Y14840D03*
X10785Y15707D03*
G54D17*
X3110Y13031D03*
G54D18*
X5000Y14311D03*
X5000Y11850D03*
G54D19*
X32640Y28113D03*
X35868Y28113D03*
G54D12*
X26811Y23706D03*
X27311Y23706D03*
X27811Y23706D03*
X28311Y23706D03*
X28311Y25906D03*
X27811Y25906D03*
X27311Y25906D03*
X26811Y25906D03*
G54D20*
X32204Y23700D03*
X33070Y24075D03*
X33070Y23325D03*
G54D21*
X9175Y24214D03*
X9175Y23714D03*
X9175Y23214D03*
X9175Y22714D03*
X11375Y22714D03*
X11375Y23214D03*
X11375Y23714D03*
X11375Y24214D03*
G54D22*
X36358Y25118D03*
X35058Y25118D03*
G54D23*
X26163Y26814D03*
X26913Y26814D03*
G54D24*
X34018Y22346D03*
X34018Y21596D03*
X33976Y24075D03*
X33976Y23325D03*
G54D23*
X33957Y25118D03*
X33207Y25118D03*
G54D24*
X21624Y26672D03*
X21624Y27422D03*
X27362Y22223D03*
X27362Y22973D03*
G54D23*
X29075Y22283D03*
X28325Y22283D03*
X28330Y26814D03*
X27580Y26814D03*
X26170Y29527D03*
X26920Y29527D03*
X7666Y22716D03*
X8416Y22716D03*
X8416Y24448D03*
X7666Y24448D03*
X22548Y24015D03*
X23298Y24015D03*
X23298Y25433D03*
X22548Y25433D03*
X22548Y24724D03*
X23298Y24724D03*
X23298Y23307D03*
X22548Y23307D03*
X7666Y23503D03*
X8416Y23503D03*
X9634Y21889D03*
X10384Y21889D03*
X37815Y8582D03*
X37065Y8582D03*
G54D24*
X20994Y23955D03*
X20994Y24705D03*
G54D25*
X9010Y21889D03*
X8410Y21889D03*
X33174Y13267D03*
X32574Y13267D03*
G54D26*
X20246Y24975D03*
X20246Y25575D03*
X13198Y21992D03*
X13198Y21392D03*
X13986Y21992D03*
X13986Y21392D03*
X13907Y25300D03*
X13907Y24700D03*
G54D25*
X30418Y22263D03*
X31018Y22263D03*
G54D27*
X8582Y13188D03*
G54D28*
X8582Y15788D03*
X7682Y15788D03*
X9482Y15788D03*
G54D29*
X29113Y23110D03*
G54D30*
X29488Y24291D03*
G54D29*
X29863Y23110D03*
X30766Y23110D03*
G54D30*
X31141Y24291D03*
G54D29*
X31516Y23110D03*
G54D31*
X35787Y23956D03*
X35787Y21555D03*
G54D32*
X23454Y27086D03*
X22391Y27086D03*
G54D33*
X10078Y5590D03*
X10629Y1220D03*
X11535Y1692D03*
X12165Y2559D03*
X12283Y3622D03*
X11929Y4606D03*
X11102Y5314D03*
X9055Y5314D03*
X8228Y4606D03*
X7874Y3622D03*
X7992Y2559D03*
X8622Y1692D03*
X9527Y1220D03*
X4763Y5590D03*
X5314Y1220D03*
X6220Y1692D03*
X6850Y2559D03*
X6968Y3622D03*
X6614Y4606D03*
X5787Y5314D03*
X3740Y5314D03*
X2913Y4606D03*
X2559Y3622D03*
X2677Y2559D03*
X3307Y1692D03*
X4212Y1220D03*
X17065Y5588D03*
X17616Y1218D03*
X18522Y1691D03*
X19151Y2557D03*
X19270Y3620D03*
X18915Y4604D03*
X18088Y5313D03*
X16041Y5313D03*
X15214Y4604D03*
X14860Y3620D03*
X14978Y2557D03*
X15608Y1691D03*
X16514Y1218D03*
X22380Y5588D03*
X22931Y1218D03*
X23837Y1691D03*
X24466Y2557D03*
X24585Y3620D03*
X24230Y4604D03*
X23403Y5313D03*
X21356Y5313D03*
X20529Y4604D03*
X20175Y3620D03*
X20293Y2557D03*
X20923Y1691D03*
X21829Y1218D03*
X29368Y5588D03*
X29919Y1218D03*
X30825Y1691D03*
X31455Y2557D03*
X31573Y3620D03*
X31218Y4604D03*
X30392Y5313D03*
X28344Y5313D03*
X27518Y4604D03*
X27163Y3620D03*
X27281Y2557D03*
X27911Y1691D03*
X28817Y1218D03*
X34683Y5588D03*
X35234Y1218D03*
X36140Y1691D03*
X36770Y2557D03*
X36888Y3620D03*
X36533Y4604D03*
X35707Y5313D03*
X33659Y5313D03*
X32833Y4604D03*
X32478Y3620D03*
X32596Y2557D03*
X33226Y1691D03*
X34132Y1218D03*
X7677Y34448D03*
X8464Y34448D03*
X10236Y34448D03*
X11023Y34448D03*
X31692Y34448D03*
X30905Y34448D03*
X29133Y34448D03*
X28346Y34448D03*
X4931Y21771D03*
X4931Y26299D03*
G54D34*
X11141Y25196D03*
X9488Y25196D03*
G54D35*
X13907Y22795D03*
X13907Y23661D03*
X13277Y22795D03*
X13277Y23661D03*
G54D36*
X23139Y22106D03*
X22549Y22106D03*
X21958Y22106D03*
X21368Y22106D03*
X20777Y22106D03*
X20187Y22106D03*
G54D11*
X38779Y32858D03*
X38779Y33858D03*
X38779Y34858D03*
X13779Y5535D03*
X13779Y6535D03*
X13779Y7535D03*
X26102Y5535D03*
X26102Y6535D03*
X26102Y7535D03*
G54D37*
X18258Y11541D03*
X17258Y11541D03*
X17258Y8541D03*
X18258Y8541D03*
X20258Y11541D03*
X19258Y11541D03*
X19258Y8541D03*
X20258Y8541D03*
G54D11*
X37492Y27000D03*
X37492Y26000D03*
X37492Y25000D03*
X37492Y24000D03*
X37492Y23000D03*
X38492Y23000D03*
X38492Y24000D03*
X38492Y25000D03*
X38492Y26000D03*
X38492Y27000D03*
X877Y27000D03*
X877Y26000D03*
X877Y25000D03*
X877Y24000D03*
X877Y23000D03*
X1877Y23000D03*
X1877Y24000D03*
X1877Y25000D03*
X1877Y26000D03*
X1877Y27000D03*
X37492Y13614D03*
X37492Y12614D03*
X37492Y11614D03*
X37492Y10614D03*
X37492Y9614D03*
X38492Y9614D03*
X38492Y10614D03*
X38492Y11614D03*
X38492Y12614D03*
X38492Y13614D03*
X877Y13614D03*
X877Y12614D03*
X877Y11614D03*
X877Y10614D03*
X877Y9614D03*
X1877Y9614D03*
X1877Y10614D03*
X1877Y11614D03*
X1877Y12614D03*
X1877Y13614D03*
X16258Y11541D03*
X15258Y11541D03*
X14258Y11541D03*
X13258Y11541D03*
X12258Y11541D03*
X11258Y11541D03*
X10258Y11541D03*
X9258Y11541D03*
X9258Y8541D03*
X10258Y8541D03*
X11258Y8541D03*
X12258Y8541D03*
X13258Y8541D03*
X14258Y8541D03*
X15258Y8541D03*
X16258Y8541D03*
X36258Y11541D03*
X35258Y11541D03*
X34258Y11541D03*
X33258Y11541D03*
X32258Y11541D03*
X31258Y11541D03*
X30258Y11541D03*
X29258Y11541D03*
X29258Y8541D03*
X30258Y8541D03*
X31258Y8541D03*
X32258Y8541D03*
X33258Y8541D03*
X34258Y8541D03*
X35258Y8541D03*
X36258Y8541D03*
G54D38*
X37992Y1377D03*
X37992Y28937D03*
X1377Y28937D03*
X1377Y1377D03*
X1377Y15551D03*
X37992Y15551D03*
G54D33*
X5531Y29271D03*
X3759Y29271D03*
G54D39*
X3267Y28287D03*
X6023Y28287D03*
G54D33*
X9271Y29271D03*
X7500Y29271D03*
G54D39*
X7007Y28287D03*
X9763Y28287D03*
G54D33*
X13011Y29271D03*
X11240Y29271D03*
G54D39*
X10748Y28287D03*
X13503Y28287D03*
G54D40*
X26555Y28543D03*
X26930Y27677D03*
X26180Y27677D03*
X27955Y28585D03*
X28330Y27719D03*
X27580Y27719D03*
X15708Y15000D03*
X15333Y15866D03*
X16083Y15866D03*
G54D41*
X29461Y25849D03*
X31253Y25849D03*
G54D42*
X30357Y28565D03*
G54D23*
X27597Y29517D03*
X28347Y29517D03*
G54D11*
X17482Y28437D03*
X18482Y28437D03*
X19482Y28437D03*
X20482Y28437D03*
X21482Y28437D03*
X22482Y28437D03*
X23482Y28437D03*
X23482Y29437D03*
X22482Y29437D03*
X21482Y29437D03*
X20482Y29437D03*
X19482Y29437D03*
X18482Y29437D03*
X17482Y29437D03*
X17364Y15011D03*
X18364Y15011D03*
X19364Y15011D03*
X20364Y15011D03*
X21364Y15011D03*
X22364Y15011D03*
X23364Y15011D03*
X23364Y16011D03*
X22364Y16011D03*
X21364Y16011D03*
X20364Y16011D03*
X19364Y16011D03*
X18364Y16011D03*
X17364Y16011D03*
G54D33*
X21456Y34448D03*
X22244Y34448D03*
X24015Y34448D03*
X24803Y34448D03*
G54D11*
X14370Y32858D03*
X14370Y33858D03*
X14370Y34858D03*
M02*
