G04 (created by PCBNEW (2013-07-07 BZR 4022)-stable) date 2014/09/07 1:12:15*
%MOIN*%
G04 Gerber Fmt 3.4, Leading zero omitted, Abs format*
%FSLAX34Y34*%
G01*
G70*
G90*
G04 APERTURE LIST*
%ADD10C,0.00590551*%
%ADD11C,0.00393701*%
G04 APERTURE END LIST*
G54D10*
G54D11*
X49881Y-24330D02*
X61692Y-24330D01*
X49881Y-25905D02*
X49881Y-24330D01*
X39645Y-25905D02*
X39645Y-27480D01*
X49488Y-25905D02*
X39645Y-25905D01*
X49488Y-24330D02*
X49488Y-25905D01*
X49291Y-24330D02*
X49488Y-24330D01*
X37677Y-24330D02*
X49291Y-24330D01*
X37677Y-27480D02*
X39645Y-27480D01*
X37677Y-24330D02*
X37677Y-27480D01*
X60314Y-27480D02*
X60511Y-27480D01*
X59724Y-27480D02*
X60314Y-27480D01*
X59724Y-25905D02*
X59724Y-27480D01*
X49881Y-25905D02*
X59724Y-25905D01*
X61692Y-24330D02*
X61692Y-27480D01*
X61692Y-27480D02*
X60511Y-27480D01*
X37679Y-55429D02*
X77049Y-55429D01*
X77049Y-55429D02*
X77049Y-38697D01*
X37679Y-38697D02*
X37679Y-55429D01*
X77045Y-37836D02*
X77045Y-28387D01*
X37675Y-37836D02*
X77045Y-37836D01*
X37675Y-37836D02*
X37675Y-28387D01*
X37675Y-28387D02*
X77045Y-28387D01*
X37675Y-38702D02*
X77045Y-38702D01*
M02*
