G04 (created by PCBNEW (2013-07-07 BZR 4022)-stable) date 2014/09/07 1:12:15*
%MOIN*%
G04 Gerber Fmt 3.4, Leading zero omitted, Abs format*
%FSLAX34Y34*%
G01*
G70*
G90*
G04 APERTURE LIST*
%ADD10C,0.00590551*%
%ADD11C,0.00787402*%
%ADD12C,0.011811*%
%ADD13C,0.005*%
%ADD14C,0.006*%
%ADD15C,0.0031*%
%ADD16C,0.0039*%
%ADD17C,0.0047*%
%ADD18C,0.008*%
%ADD19C,0.0079*%
%ADD20C,0.0043*%
G04 APERTURE END LIST*
G54D10*
G54D11*
X76820Y-37696D02*
X61860Y-37696D01*
X76820Y-37618D02*
X76820Y-37696D01*
X76820Y-31082D02*
X76820Y-37618D01*
X74379Y-31082D02*
X76820Y-31082D01*
X74379Y-28562D02*
X74379Y-31082D01*
X61860Y-28562D02*
X74379Y-28562D01*
X61860Y-37696D02*
X61860Y-28562D01*
X62703Y-29012D02*
X62703Y-29800D01*
X62703Y-29800D02*
X62026Y-29406D01*
X62703Y-29012D02*
X62026Y-29406D01*
X62624Y-29416D02*
G75*
G03X62624Y-29416I-9J0D01*
G74*
G01*
X62516Y-29416D02*
X62231Y-29416D01*
X62231Y-29416D02*
X62231Y-29406D01*
X62241Y-29406D02*
X62516Y-29406D01*
X62307Y-36918D02*
X62583Y-36918D01*
X62298Y-36928D02*
X62298Y-36918D01*
X62583Y-36928D02*
X62298Y-36928D01*
X62691Y-36928D02*
G75*
G03X62691Y-36928I-9J0D01*
G74*
G01*
X62770Y-36524D02*
X62093Y-36918D01*
X62770Y-37311D02*
X62093Y-36918D01*
X62770Y-36524D02*
X62770Y-37311D01*
G54D12*
X62648Y-35579D02*
X62672Y-35603D01*
X62697Y-35676D01*
X62697Y-35725D01*
X62672Y-35798D01*
X62624Y-35847D01*
X62575Y-35871D01*
X62477Y-35896D01*
X62404Y-35896D01*
X62307Y-35871D01*
X62258Y-35847D01*
X62209Y-35798D01*
X62185Y-35725D01*
X62185Y-35676D01*
X62209Y-35603D01*
X62234Y-35579D01*
X62551Y-35384D02*
X62551Y-35140D01*
X62697Y-35433D02*
X62185Y-35262D01*
X62697Y-35091D01*
X62185Y-34921D02*
X62599Y-34921D01*
X62648Y-34896D01*
X62672Y-34872D01*
X62697Y-34823D01*
X62697Y-34726D01*
X62672Y-34677D01*
X62648Y-34653D01*
X62599Y-34628D01*
X62185Y-34628D01*
X62185Y-34458D02*
X62185Y-34165D01*
X62697Y-34311D02*
X62185Y-34311D01*
X62697Y-33995D02*
X62185Y-33995D01*
X62185Y-33653D02*
X62185Y-33556D01*
X62209Y-33507D01*
X62258Y-33458D01*
X62356Y-33434D01*
X62526Y-33434D01*
X62624Y-33458D01*
X62672Y-33507D01*
X62697Y-33556D01*
X62697Y-33653D01*
X62672Y-33702D01*
X62624Y-33751D01*
X62526Y-33775D01*
X62356Y-33775D01*
X62258Y-33751D01*
X62209Y-33702D01*
X62185Y-33653D01*
X62697Y-33215D02*
X62185Y-33215D01*
X62697Y-32922D01*
X62185Y-32922D01*
X62697Y-32020D02*
X62697Y-32313D01*
X62697Y-32167D02*
X62185Y-32167D01*
X62258Y-32215D01*
X62307Y-32264D01*
X62331Y-32313D01*
X62185Y-31850D02*
X62185Y-31509D01*
X62697Y-31728D01*
X62185Y-31216D02*
X62185Y-31167D01*
X62209Y-31119D01*
X62234Y-31094D01*
X62282Y-31070D01*
X62380Y-31046D01*
X62502Y-31046D01*
X62599Y-31070D01*
X62648Y-31094D01*
X62672Y-31119D01*
X62697Y-31167D01*
X62697Y-31216D01*
X62672Y-31265D01*
X62648Y-31289D01*
X62599Y-31314D01*
X62502Y-31338D01*
X62380Y-31338D01*
X62282Y-31314D01*
X62234Y-31289D01*
X62209Y-31265D01*
X62185Y-31216D01*
X62185Y-30899D02*
X62697Y-30729D01*
X62185Y-30558D01*
X62648Y-30388D02*
X62672Y-30363D01*
X62697Y-30388D01*
X62672Y-30412D01*
X62648Y-30388D01*
X62697Y-30388D01*
X62502Y-30388D02*
X62209Y-30412D01*
X62185Y-30388D01*
X62209Y-30363D01*
X62502Y-30388D01*
X62185Y-30388D01*
G54D10*
X69921Y-42007D02*
X69921Y-41259D01*
X69606Y-40944D02*
G75*
G03X69921Y-41259I314J0D01*
G74*
G01*
X69921Y-40629D02*
G75*
G03X69606Y-40944I0J-314D01*
G74*
G01*
X69921Y-40629D02*
X69921Y-39881D01*
X65984Y-42007D02*
X69921Y-42007D01*
X69921Y-39881D02*
X65984Y-39881D01*
X65984Y-39881D02*
X65984Y-42007D01*
G54D13*
X68702Y-42039D02*
X68702Y-42469D01*
X68202Y-42039D02*
X68202Y-42469D01*
X67702Y-42039D02*
X67702Y-42469D01*
X69202Y-42039D02*
X69202Y-42469D01*
X69702Y-42469D02*
X69702Y-42039D01*
X67202Y-42469D02*
X67202Y-42039D01*
X66702Y-42469D02*
X66702Y-42039D01*
X66202Y-42469D02*
X66202Y-42039D01*
X66202Y-39849D02*
X66202Y-39419D01*
X66702Y-39849D02*
X66702Y-39419D01*
X67202Y-39849D02*
X67202Y-39419D01*
X69702Y-39849D02*
X69702Y-39419D01*
X69202Y-39419D02*
X69202Y-39849D01*
X67702Y-39419D02*
X67702Y-39849D01*
X68202Y-39419D02*
X68202Y-39849D01*
X68702Y-39419D02*
X68702Y-39849D01*
G54D10*
X66435Y-45048D02*
G75*
G03X65935Y-45548I0J-500D01*
G74*
G01*
X65935Y-45548D02*
G75*
G03X66435Y-46048I500J0D01*
G74*
G01*
X66435Y-46048D02*
X66435Y-46548D01*
X66435Y-46548D02*
X58435Y-46548D01*
X58435Y-46548D02*
X58435Y-44548D01*
X58435Y-44548D02*
X66435Y-44548D01*
X66435Y-44548D02*
X66435Y-45048D01*
G54D14*
X56458Y-34810D02*
X56008Y-34810D01*
X56458Y-32630D02*
X56018Y-32630D01*
X56458Y-34810D02*
X56458Y-32630D01*
X55578Y-35280D02*
X55578Y-35710D01*
X53368Y-35290D02*
X53368Y-35710D01*
X53358Y-35710D02*
X55578Y-35720D01*
X53378Y-31740D02*
X55548Y-31730D01*
X52948Y-32430D02*
X52948Y-35260D01*
X55558Y-31740D02*
X55558Y-32150D01*
X53198Y-32190D02*
X55978Y-32190D01*
X55998Y-35270D02*
X55998Y-32230D01*
X52948Y-35270D02*
X55948Y-35270D01*
X52498Y-32600D02*
X52498Y-34820D01*
X52498Y-34820D02*
X52948Y-34820D01*
X52952Y-32420D02*
X53182Y-32190D01*
X52500Y-32600D02*
X52952Y-32600D01*
X53378Y-32190D02*
X53378Y-31738D01*
X53549Y-32594D02*
G75*
G03X53549Y-32594I-188J0D01*
G74*
G01*
G54D10*
X51691Y-41615D02*
X48699Y-41615D01*
X48699Y-41615D02*
X48699Y-38859D01*
X48699Y-38859D02*
X51691Y-38859D01*
X51691Y-38859D02*
X51691Y-41615D01*
X40846Y-39803D02*
X44606Y-39803D01*
X40826Y-43740D02*
X40826Y-38326D01*
X40826Y-38326D02*
X44606Y-38326D01*
X44606Y-38326D02*
X44606Y-43740D01*
X44606Y-43740D02*
X40826Y-43740D01*
X73939Y-28579D02*
X69924Y-28579D01*
X69924Y-28579D02*
X69924Y-32595D01*
X69924Y-32595D02*
X73939Y-32595D01*
X73939Y-32595D02*
X73939Y-28579D01*
G54D13*
X64289Y-33114D02*
X64289Y-34674D01*
X64289Y-34674D02*
X66189Y-34674D01*
X66189Y-34674D02*
X66189Y-33114D01*
X66189Y-33114D02*
X64289Y-33114D01*
X64489Y-33114D02*
X64489Y-32684D01*
X64989Y-33114D02*
X64989Y-32684D01*
X65489Y-33114D02*
X65489Y-32684D01*
X65989Y-32684D02*
X65989Y-33114D01*
X65989Y-34674D02*
X65989Y-35104D01*
X65489Y-35104D02*
X65489Y-34674D01*
X64989Y-35104D02*
X64989Y-34674D01*
X64489Y-35104D02*
X64489Y-34674D01*
X64765Y-34384D02*
G75*
G03X64765Y-34384I-186J0D01*
G74*
G01*
G54D15*
X70515Y-35463D02*
G75*
G03X70515Y-35463I-62J0D01*
G74*
G01*
X70114Y-34500D02*
X70514Y-34500D01*
X70114Y-35525D02*
X70514Y-35525D01*
X70514Y-34500D02*
X70514Y-35525D01*
X70114Y-35525D02*
X70114Y-34500D01*
G54D13*
X48732Y-34286D02*
X47172Y-34286D01*
X47172Y-34286D02*
X47172Y-36186D01*
X47172Y-36186D02*
X48732Y-36186D01*
X48732Y-36186D02*
X48732Y-34286D01*
X48732Y-34486D02*
X49162Y-34486D01*
X48732Y-34986D02*
X49162Y-34986D01*
X48732Y-35486D02*
X49162Y-35486D01*
X49162Y-35986D02*
X48732Y-35986D01*
X47172Y-35986D02*
X46742Y-35986D01*
X46742Y-35486D02*
X47172Y-35486D01*
X46742Y-34986D02*
X47172Y-34986D01*
X46742Y-34486D02*
X47172Y-34486D01*
X47648Y-34576D02*
G75*
G03X47648Y-34576I-186J0D01*
G74*
G01*
X74385Y-34032D02*
X74485Y-34032D01*
X74485Y-34032D02*
X74485Y-33132D01*
X74485Y-33132D02*
X74385Y-33132D01*
X74385Y-34032D02*
X74385Y-33132D01*
X74385Y-33132D02*
X73735Y-33132D01*
X73035Y-34032D02*
X72385Y-34032D01*
X72385Y-34032D02*
X72385Y-33132D01*
X72385Y-33132D02*
X73035Y-33132D01*
X73735Y-34032D02*
X74385Y-34032D01*
G54D16*
X63615Y-32186D02*
G75*
G03X63615Y-32186I-50J0D01*
G74*
G01*
X64015Y-32186D02*
X63615Y-32186D01*
X63615Y-32186D02*
X63615Y-31586D01*
X63615Y-31586D02*
X64015Y-31586D01*
X64415Y-31586D02*
X64815Y-31586D01*
X64815Y-31586D02*
X64815Y-32186D01*
X64815Y-32186D02*
X64415Y-32186D01*
X71445Y-36079D02*
G75*
G03X71445Y-36079I-50J0D01*
G74*
G01*
X71395Y-36529D02*
X71395Y-36129D01*
X71395Y-36129D02*
X71995Y-36129D01*
X71995Y-36129D02*
X71995Y-36529D01*
X71995Y-36929D02*
X71995Y-37329D01*
X71995Y-37329D02*
X71395Y-37329D01*
X71395Y-37329D02*
X71395Y-36929D01*
X71403Y-34350D02*
G75*
G03X71403Y-34350I-50J0D01*
G74*
G01*
X71353Y-34800D02*
X71353Y-34400D01*
X71353Y-34400D02*
X71953Y-34400D01*
X71953Y-34400D02*
X71953Y-34800D01*
X71953Y-35200D02*
X71953Y-35600D01*
X71953Y-35600D02*
X71353Y-35600D01*
X71353Y-35600D02*
X71353Y-35200D01*
X71959Y-33282D02*
G75*
G03X71959Y-33282I-50J0D01*
G74*
G01*
X71459Y-33282D02*
X71859Y-33282D01*
X71859Y-33282D02*
X71859Y-33882D01*
X71859Y-33882D02*
X71459Y-33882D01*
X71059Y-33882D02*
X70659Y-33882D01*
X70659Y-33882D02*
X70659Y-33282D01*
X70659Y-33282D02*
X71059Y-33282D01*
X59651Y-32303D02*
G75*
G03X59651Y-32303I-50J0D01*
G74*
G01*
X59601Y-31853D02*
X59601Y-32253D01*
X59601Y-32253D02*
X59001Y-32253D01*
X59001Y-32253D02*
X59001Y-31853D01*
X59001Y-31453D02*
X59001Y-31053D01*
X59001Y-31053D02*
X59601Y-31053D01*
X59601Y-31053D02*
X59601Y-31453D01*
X65389Y-36752D02*
G75*
G03X65389Y-36752I-50J0D01*
G74*
G01*
X65339Y-36302D02*
X65339Y-36702D01*
X65339Y-36702D02*
X64739Y-36702D01*
X64739Y-36702D02*
X64739Y-36302D01*
X64739Y-35902D02*
X64739Y-35502D01*
X64739Y-35502D02*
X65339Y-35502D01*
X65339Y-35502D02*
X65339Y-35902D01*
X67077Y-36117D02*
G75*
G03X67077Y-36117I-50J0D01*
G74*
G01*
X66577Y-36117D02*
X66977Y-36117D01*
X66977Y-36117D02*
X66977Y-36717D01*
X66977Y-36717D02*
X66577Y-36717D01*
X66177Y-36717D02*
X65777Y-36717D01*
X65777Y-36717D02*
X65777Y-36117D01*
X65777Y-36117D02*
X66177Y-36117D01*
X66332Y-31586D02*
G75*
G03X66332Y-31586I-50J0D01*
G74*
G01*
X65832Y-31586D02*
X66232Y-31586D01*
X66232Y-31586D02*
X66232Y-32186D01*
X66232Y-32186D02*
X65832Y-32186D01*
X65432Y-32186D02*
X65032Y-32186D01*
X65032Y-32186D02*
X65032Y-31586D01*
X65032Y-31586D02*
X65432Y-31586D01*
X63622Y-29473D02*
G75*
G03X63622Y-29473I-50J0D01*
G74*
G01*
X64022Y-29473D02*
X63622Y-29473D01*
X63622Y-29473D02*
X63622Y-28873D01*
X63622Y-28873D02*
X64022Y-28873D01*
X64422Y-28873D02*
X64822Y-28873D01*
X64822Y-28873D02*
X64822Y-29473D01*
X64822Y-29473D02*
X64422Y-29473D01*
X45118Y-36284D02*
G75*
G03X45118Y-36284I-50J0D01*
G74*
G01*
X45518Y-36284D02*
X45118Y-36284D01*
X45118Y-36284D02*
X45118Y-35684D01*
X45118Y-35684D02*
X45518Y-35684D01*
X45918Y-35684D02*
X46318Y-35684D01*
X46318Y-35684D02*
X46318Y-36284D01*
X46318Y-36284D02*
X45918Y-36284D01*
X46418Y-33951D02*
G75*
G03X46418Y-33951I-50J0D01*
G74*
G01*
X45918Y-33951D02*
X46318Y-33951D01*
X46318Y-33951D02*
X46318Y-34551D01*
X46318Y-34551D02*
X45918Y-34551D01*
X45518Y-34551D02*
X45118Y-34551D01*
X45118Y-34551D02*
X45118Y-33951D01*
X45118Y-33951D02*
X45518Y-33951D01*
X60000Y-34985D02*
G75*
G03X60000Y-34985I-50J0D01*
G74*
G01*
X60400Y-34985D02*
X60000Y-34985D01*
X60000Y-34985D02*
X60000Y-34385D01*
X60000Y-34385D02*
X60400Y-34385D01*
X60800Y-34385D02*
X61200Y-34385D01*
X61200Y-34385D02*
X61200Y-34985D01*
X61200Y-34985D02*
X60800Y-34985D01*
X61300Y-32967D02*
G75*
G03X61300Y-32967I-50J0D01*
G74*
G01*
X60800Y-32967D02*
X61200Y-32967D01*
X61200Y-32967D02*
X61200Y-33567D01*
X61200Y-33567D02*
X60800Y-33567D01*
X60400Y-33567D02*
X60000Y-33567D01*
X60000Y-33567D02*
X60000Y-32967D01*
X60000Y-32967D02*
X60400Y-32967D01*
X60000Y-34276D02*
G75*
G03X60000Y-34276I-50J0D01*
G74*
G01*
X60400Y-34276D02*
X60000Y-34276D01*
X60000Y-34276D02*
X60000Y-33676D01*
X60000Y-33676D02*
X60400Y-33676D01*
X60800Y-33676D02*
X61200Y-33676D01*
X61200Y-33676D02*
X61200Y-34276D01*
X61200Y-34276D02*
X60800Y-34276D01*
X61300Y-35093D02*
G75*
G03X61300Y-35093I-50J0D01*
G74*
G01*
X60800Y-35093D02*
X61200Y-35093D01*
X61200Y-35093D02*
X61200Y-35693D01*
X61200Y-35693D02*
X60800Y-35693D01*
X60400Y-35693D02*
X60000Y-35693D01*
X60000Y-35693D02*
X60000Y-35093D01*
X60000Y-35093D02*
X60400Y-35093D01*
X45118Y-35496D02*
G75*
G03X45118Y-35496I-50J0D01*
G74*
G01*
X45518Y-35496D02*
X45118Y-35496D01*
X45118Y-35496D02*
X45118Y-34896D01*
X45118Y-34896D02*
X45518Y-34896D01*
X45918Y-34896D02*
X46318Y-34896D01*
X46318Y-34896D02*
X46318Y-35496D01*
X46318Y-35496D02*
X45918Y-35496D01*
X47087Y-37111D02*
G75*
G03X47087Y-37111I-50J0D01*
G74*
G01*
X47487Y-37111D02*
X47087Y-37111D01*
X47087Y-37111D02*
X47087Y-36511D01*
X47087Y-36511D02*
X47487Y-36511D01*
X47887Y-36511D02*
X48287Y-36511D01*
X48287Y-36511D02*
X48287Y-37111D01*
X48287Y-37111D02*
X47887Y-37111D01*
X75818Y-46707D02*
G75*
G03X75818Y-46707I-50J0D01*
G74*
G01*
X75318Y-46707D02*
X75718Y-46707D01*
X75718Y-46707D02*
X75718Y-47307D01*
X75718Y-47307D02*
X75318Y-47307D01*
X74918Y-47307D02*
X74518Y-47307D01*
X74518Y-47307D02*
X74518Y-46707D01*
X74518Y-46707D02*
X74918Y-46707D01*
X59021Y-35020D02*
G75*
G03X59021Y-35020I-50J0D01*
G74*
G01*
X58971Y-34570D02*
X58971Y-34970D01*
X58971Y-34970D02*
X58371Y-34970D01*
X58371Y-34970D02*
X58371Y-34570D01*
X58371Y-34170D02*
X58371Y-33770D01*
X58371Y-33770D02*
X58971Y-33770D01*
X58971Y-33770D02*
X58971Y-34170D01*
G54D17*
X46190Y-36555D02*
X45915Y-36555D01*
X46584Y-36555D02*
X46859Y-36555D01*
X46190Y-37067D02*
X45915Y-37067D01*
X46859Y-37067D02*
X46584Y-37067D01*
X45915Y-37061D02*
X45915Y-36561D01*
X46859Y-36561D02*
X46859Y-37061D01*
X70354Y-42066D02*
X70079Y-42066D01*
X70748Y-42066D02*
X71023Y-42066D01*
X70354Y-42578D02*
X70079Y-42578D01*
X71023Y-42578D02*
X70748Y-42578D01*
X70079Y-42572D02*
X70079Y-42072D01*
X71023Y-42072D02*
X71023Y-42572D01*
X58179Y-33228D02*
X58179Y-32953D01*
X58179Y-33622D02*
X58179Y-33897D01*
X57667Y-33228D02*
X57667Y-32953D01*
X57667Y-33897D02*
X57667Y-33622D01*
X57673Y-32953D02*
X58173Y-32953D01*
X58173Y-33897D02*
X57673Y-33897D01*
X50619Y-37204D02*
X50619Y-37479D01*
X50619Y-36810D02*
X50619Y-36535D01*
X51131Y-37204D02*
X51131Y-37479D01*
X51131Y-36535D02*
X51131Y-36810D01*
X51125Y-37479D02*
X50625Y-37479D01*
X50625Y-36535D02*
X51125Y-36535D01*
X51407Y-37204D02*
X51407Y-37479D01*
X51407Y-36810D02*
X51407Y-36535D01*
X51919Y-37204D02*
X51919Y-37479D01*
X51919Y-36535D02*
X51919Y-36810D01*
X51913Y-37479D02*
X51413Y-37479D01*
X51413Y-36535D02*
X51913Y-36535D01*
X51328Y-33897D02*
X51328Y-34172D01*
X51328Y-33503D02*
X51328Y-33228D01*
X51840Y-33897D02*
X51840Y-34172D01*
X51840Y-33228D02*
X51840Y-33503D01*
X51834Y-34172D02*
X51334Y-34172D01*
X51334Y-33228D02*
X51834Y-33228D01*
X68592Y-36693D02*
X68867Y-36693D01*
X68198Y-36693D02*
X67923Y-36693D01*
X68592Y-36181D02*
X68867Y-36181D01*
X67923Y-36181D02*
X68198Y-36181D01*
X68867Y-36187D02*
X68867Y-36687D01*
X67923Y-36687D02*
X67923Y-36187D01*
G54D18*
X47659Y-40502D02*
X47659Y-39302D01*
X47659Y-39302D02*
X44859Y-39302D01*
X44859Y-39302D02*
X44859Y-40502D01*
X47659Y-41702D02*
X47659Y-42002D01*
X47659Y-42002D02*
X47059Y-42902D01*
X47059Y-42902D02*
X45459Y-42902D01*
X45459Y-42902D02*
X44859Y-42002D01*
X44859Y-42002D02*
X44859Y-41702D01*
G54D10*
X67795Y-35629D02*
X67795Y-34370D01*
X67795Y-34370D02*
X66535Y-34370D01*
X66535Y-34370D02*
X66535Y-35629D01*
X66535Y-35629D02*
X67795Y-35629D01*
X69448Y-35629D02*
X69448Y-34370D01*
X69448Y-34370D02*
X68188Y-34370D01*
X68188Y-34370D02*
X68188Y-35629D01*
X68188Y-35629D02*
X69448Y-35629D01*
X74448Y-37066D02*
X72480Y-37066D01*
X72480Y-37066D02*
X72480Y-34822D01*
X72480Y-34822D02*
X74448Y-34822D01*
X74448Y-34822D02*
X74448Y-37066D01*
X61131Y-32244D02*
X61131Y-30984D01*
X61131Y-30984D02*
X60068Y-30984D01*
X60068Y-30984D02*
X60068Y-32244D01*
X60068Y-32244D02*
X61131Y-32244D01*
X50314Y-52244D02*
G75*
G03X50314Y-52244I-2559J0D01*
G74*
G01*
X50000Y-52244D02*
G75*
G03X50000Y-52244I-2244J0D01*
G74*
G01*
X45000Y-52244D02*
G75*
G03X45000Y-52244I-2559J0D01*
G74*
G01*
X44685Y-52244D02*
G75*
G03X44685Y-52244I-2244J0D01*
G74*
G01*
X57301Y-52245D02*
G75*
G03X57301Y-52245I-2559J0D01*
G74*
G01*
X56986Y-52245D02*
G75*
G03X56986Y-52245I-2244J0D01*
G74*
G01*
X62616Y-52245D02*
G75*
G03X62616Y-52245I-2559J0D01*
G74*
G01*
X62301Y-52245D02*
G75*
G03X62301Y-52245I-2244J0D01*
G74*
G01*
X69604Y-52245D02*
G75*
G03X69604Y-52245I-2559J0D01*
G74*
G01*
X69289Y-52245D02*
G75*
G03X69289Y-52245I-2244J0D01*
G74*
G01*
X74919Y-52245D02*
G75*
G03X74919Y-52245I-2559J0D01*
G74*
G01*
X74604Y-52245D02*
G75*
G03X74604Y-52245I-2244J0D01*
G74*
G01*
X43001Y-35354D02*
X43001Y-32401D01*
X42214Y-32401D02*
X42214Y-35354D01*
X42214Y-32401D02*
X43001Y-32401D01*
X43001Y-35354D02*
X42214Y-35354D01*
X44576Y-34960D02*
G75*
G03X44576Y-34960I-1968J0D01*
G74*
G01*
X49212Y-34094D02*
X49212Y-32913D01*
X49212Y-32913D02*
X46771Y-32913D01*
X46771Y-32913D02*
X46771Y-34094D01*
X46771Y-34094D02*
X49212Y-34094D01*
X50561Y-36338D02*
X51978Y-36338D01*
X51978Y-36338D02*
X51978Y-34606D01*
X51978Y-34606D02*
X50561Y-34606D01*
X50561Y-34606D02*
X50561Y-36338D01*
X57372Y-36003D02*
X61309Y-36003D01*
X61309Y-36003D02*
X61309Y-37381D01*
X61309Y-37381D02*
X57372Y-37381D01*
X57372Y-37381D02*
X57372Y-36003D01*
X51956Y-47555D02*
X51956Y-50555D01*
X51956Y-50555D02*
X50956Y-50555D01*
X50956Y-50555D02*
X50956Y-47555D01*
X50956Y-47555D02*
X51956Y-47555D01*
X38767Y-24405D02*
X38767Y-27405D01*
X38767Y-27405D02*
X37767Y-27405D01*
X37767Y-27405D02*
X37767Y-24405D01*
X37767Y-24405D02*
X38767Y-24405D01*
X64279Y-47555D02*
X64279Y-50555D01*
X64279Y-50555D02*
X63279Y-50555D01*
X63279Y-50555D02*
X63279Y-47555D01*
X63279Y-47555D02*
X64279Y-47555D01*
X56435Y-46048D02*
X56435Y-46548D01*
X56435Y-46548D02*
X54435Y-46548D01*
X54435Y-46548D02*
X54435Y-44548D01*
X54435Y-44548D02*
X56435Y-44548D01*
X56435Y-44548D02*
X56435Y-45048D01*
X56435Y-45048D02*
G75*
G03X55935Y-45548I0J-500D01*
G74*
G01*
X55935Y-45548D02*
G75*
G03X56435Y-46048I500J0D01*
G74*
G01*
X58435Y-46048D02*
X58435Y-46548D01*
X58435Y-46548D02*
X56435Y-46548D01*
X56435Y-46548D02*
X56435Y-44548D01*
X56435Y-44548D02*
X58435Y-44548D01*
X58435Y-44548D02*
X58435Y-45048D01*
X58435Y-45048D02*
G75*
G03X57935Y-45548I0J-500D01*
G74*
G01*
X57935Y-45548D02*
G75*
G03X58435Y-46048I500J0D01*
G74*
G01*
X74667Y-31202D02*
X76667Y-31202D01*
X76667Y-31202D02*
X76667Y-36202D01*
X76667Y-36202D02*
X74667Y-36202D01*
X74667Y-36202D02*
X74667Y-31202D01*
X38053Y-31202D02*
X40053Y-31202D01*
X40053Y-31202D02*
X40053Y-36202D01*
X40053Y-36202D02*
X38053Y-36202D01*
X38053Y-36202D02*
X38053Y-31202D01*
X74667Y-41517D02*
X76667Y-41517D01*
X76667Y-41517D02*
X76667Y-46517D01*
X76667Y-46517D02*
X74667Y-46517D01*
X74667Y-46517D02*
X74667Y-41517D01*
X38053Y-41517D02*
X40053Y-41517D01*
X40053Y-41517D02*
X40053Y-46517D01*
X40053Y-46517D02*
X38053Y-46517D01*
X38053Y-46517D02*
X38053Y-41517D01*
X54435Y-45048D02*
G75*
G03X53935Y-45548I0J-500D01*
G74*
G01*
X53935Y-45548D02*
G75*
G03X54435Y-46048I500J0D01*
G74*
G01*
X54435Y-46048D02*
X54435Y-46548D01*
X54435Y-46548D02*
X46435Y-46548D01*
X46435Y-46548D02*
X46435Y-44548D01*
X46435Y-44548D02*
X54435Y-44548D01*
X54435Y-44548D02*
X54435Y-45048D01*
X74435Y-45048D02*
G75*
G03X73935Y-45548I0J-500D01*
G74*
G01*
X73935Y-45548D02*
G75*
G03X74435Y-46048I500J0D01*
G74*
G01*
X74435Y-46048D02*
X74435Y-46548D01*
X74435Y-46548D02*
X66435Y-46548D01*
X66435Y-46548D02*
X66435Y-44548D01*
X66435Y-44548D02*
X74435Y-44548D01*
X74435Y-44548D02*
X74435Y-45048D01*
X40866Y-31023D02*
X40866Y-28464D01*
X40866Y-28464D02*
X43779Y-28464D01*
X43779Y-28464D02*
X43779Y-31023D01*
X43779Y-31023D02*
X40866Y-31023D01*
X44606Y-31023D02*
X44606Y-28464D01*
X44606Y-28464D02*
X47519Y-28464D01*
X47519Y-28464D02*
X47519Y-31023D01*
X47519Y-31023D02*
X44606Y-31023D01*
X48346Y-31023D02*
X48346Y-28464D01*
X48346Y-28464D02*
X51259Y-28464D01*
X51259Y-28464D02*
X51259Y-31023D01*
X51259Y-31023D02*
X48346Y-31023D01*
G54D15*
X63831Y-30728D02*
G75*
G03X63831Y-30728I-62J0D01*
G74*
G01*
X64732Y-30390D02*
X64732Y-30790D01*
X63707Y-30390D02*
X63707Y-30790D01*
X64732Y-30790D02*
X63707Y-30790D01*
X63707Y-30390D02*
X64732Y-30390D01*
X65232Y-30686D02*
G75*
G03X65232Y-30686I-62J0D01*
G74*
G01*
X66132Y-30348D02*
X66132Y-30748D01*
X65107Y-30348D02*
X65107Y-30748D01*
X66132Y-30748D02*
X65107Y-30748D01*
X65107Y-30348D02*
X66132Y-30348D01*
X53911Y-40019D02*
G75*
G03X53911Y-40019I-62J0D01*
G74*
G01*
X52885Y-40357D02*
X52885Y-39957D01*
X53910Y-40357D02*
X53910Y-39957D01*
X52885Y-39957D02*
X53910Y-39957D01*
X53910Y-40357D02*
X52885Y-40357D01*
G54D13*
X66969Y-29747D02*
X66969Y-29277D01*
X66969Y-29277D02*
X69099Y-29277D01*
X69099Y-29277D02*
X69099Y-29752D01*
X68714Y-32112D02*
X68714Y-33257D01*
X69164Y-33257D02*
X69164Y-32112D01*
X68714Y-33257D02*
X69164Y-33257D01*
X66904Y-33257D02*
X67354Y-33257D01*
X67354Y-33257D02*
X67354Y-32112D01*
X66904Y-32112D02*
X66904Y-33257D01*
X69354Y-32112D02*
X69354Y-29752D01*
X69354Y-29752D02*
X66714Y-29752D01*
X66714Y-29752D02*
X66714Y-32112D01*
X69354Y-32112D02*
X66714Y-32112D01*
G54D16*
X65049Y-29483D02*
G75*
G03X65049Y-29483I-50J0D01*
G74*
G01*
X65449Y-29483D02*
X65049Y-29483D01*
X65049Y-29483D02*
X65049Y-28883D01*
X65049Y-28883D02*
X65449Y-28883D01*
X65849Y-28883D02*
X66249Y-28883D01*
X66249Y-28883D02*
X66249Y-29483D01*
X66249Y-29483D02*
X65849Y-29483D01*
G54D10*
X54659Y-30763D02*
X61659Y-30763D01*
X61659Y-30763D02*
X61659Y-28763D01*
X61659Y-28763D02*
X54659Y-28763D01*
X54659Y-28763D02*
X54659Y-30763D01*
X54541Y-41078D02*
X61541Y-41078D01*
X61541Y-41078D02*
X61541Y-39078D01*
X61541Y-39078D02*
X54541Y-39078D01*
X54541Y-39078D02*
X54541Y-41078D01*
X71031Y-38552D02*
X71031Y-38237D01*
X71361Y-38522D02*
X71346Y-38537D01*
X71301Y-38552D01*
X71271Y-38552D01*
X71226Y-38537D01*
X71196Y-38507D01*
X71181Y-38477D01*
X71166Y-38417D01*
X71166Y-38372D01*
X71181Y-38312D01*
X71196Y-38282D01*
X71226Y-38252D01*
X71271Y-38237D01*
X71301Y-38237D01*
X71346Y-38252D01*
X71361Y-38267D01*
X71481Y-38267D02*
X71496Y-38252D01*
X71526Y-38237D01*
X71601Y-38237D01*
X71631Y-38252D01*
X71646Y-38267D01*
X71661Y-38297D01*
X71661Y-38327D01*
X71646Y-38372D01*
X71466Y-38552D01*
X71661Y-38552D01*
X66962Y-40357D02*
X67172Y-40357D01*
X67037Y-40672D01*
X67427Y-40462D02*
X67427Y-40672D01*
X67352Y-40342D02*
X67277Y-40567D01*
X67472Y-40567D01*
X67742Y-40672D02*
X67592Y-40672D01*
X67592Y-40357D01*
X68027Y-40642D02*
X68012Y-40657D01*
X67967Y-40672D01*
X67937Y-40672D01*
X67892Y-40657D01*
X67862Y-40627D01*
X67847Y-40597D01*
X67832Y-40537D01*
X67832Y-40492D01*
X67847Y-40432D01*
X67862Y-40402D01*
X67892Y-40372D01*
X67937Y-40357D01*
X67967Y-40357D01*
X68012Y-40372D01*
X68027Y-40387D01*
X68327Y-40672D02*
X68147Y-40672D01*
X68237Y-40672D02*
X68237Y-40357D01*
X68207Y-40402D01*
X68177Y-40432D01*
X68147Y-40447D01*
X68432Y-40357D02*
X68627Y-40357D01*
X68522Y-40477D01*
X68567Y-40477D01*
X68597Y-40492D01*
X68612Y-40507D01*
X68627Y-40537D01*
X68627Y-40612D01*
X68612Y-40642D01*
X68597Y-40657D01*
X68567Y-40672D01*
X68477Y-40672D01*
X68447Y-40657D01*
X68432Y-40642D01*
X68807Y-40492D02*
X68777Y-40477D01*
X68762Y-40462D01*
X68747Y-40432D01*
X68747Y-40417D01*
X68762Y-40387D01*
X68777Y-40372D01*
X68807Y-40357D01*
X68867Y-40357D01*
X68897Y-40372D01*
X68912Y-40387D01*
X68927Y-40417D01*
X68927Y-40432D01*
X68912Y-40462D01*
X68897Y-40477D01*
X68867Y-40492D01*
X68807Y-40492D01*
X68777Y-40507D01*
X68762Y-40522D01*
X68747Y-40552D01*
X68747Y-40612D01*
X68762Y-40642D01*
X68777Y-40657D01*
X68807Y-40672D01*
X68867Y-40672D01*
X68897Y-40657D01*
X68912Y-40642D01*
X68927Y-40612D01*
X68927Y-40552D01*
X68912Y-40522D01*
X68897Y-40507D01*
X68867Y-40492D01*
X62127Y-45676D02*
X62127Y-45361D01*
X62457Y-45646D02*
X62442Y-45661D01*
X62397Y-45676D01*
X62367Y-45676D01*
X62322Y-45661D01*
X62292Y-45631D01*
X62277Y-45601D01*
X62262Y-45541D01*
X62262Y-45496D01*
X62277Y-45436D01*
X62292Y-45406D01*
X62322Y-45376D01*
X62367Y-45361D01*
X62397Y-45361D01*
X62442Y-45376D01*
X62457Y-45391D01*
X62562Y-45361D02*
X62772Y-45361D01*
X62637Y-45676D01*
X66747Y-46718D02*
X66747Y-46538D01*
X67062Y-46628D02*
X66747Y-46628D01*
X67062Y-46283D02*
X67062Y-46433D01*
X66747Y-46433D01*
X67062Y-46178D02*
X66747Y-46178D01*
X66747Y-46058D01*
X66762Y-46028D01*
X66777Y-46013D01*
X66807Y-45998D01*
X66852Y-45998D01*
X66882Y-46013D01*
X66897Y-46028D01*
X66912Y-46058D01*
X66912Y-46178D01*
X66747Y-45728D02*
X66747Y-45788D01*
X66762Y-45818D01*
X66777Y-45833D01*
X66822Y-45863D01*
X66882Y-45878D01*
X67002Y-45878D01*
X67032Y-45863D01*
X67047Y-45848D01*
X67062Y-45818D01*
X67062Y-45758D01*
X67047Y-45728D01*
X67032Y-45713D01*
X67002Y-45698D01*
X66927Y-45698D01*
X66897Y-45713D01*
X66882Y-45728D01*
X66867Y-45758D01*
X66867Y-45818D01*
X66882Y-45848D01*
X66897Y-45863D01*
X66927Y-45878D01*
X66777Y-45578D02*
X66762Y-45563D01*
X66747Y-45533D01*
X66747Y-45458D01*
X66762Y-45428D01*
X66777Y-45413D01*
X66807Y-45398D01*
X66837Y-45398D01*
X66882Y-45413D01*
X67062Y-45593D01*
X67062Y-45398D01*
X66747Y-45293D02*
X66747Y-45083D01*
X67062Y-45218D01*
X66942Y-44963D02*
X66942Y-44723D01*
X66852Y-44438D02*
X67062Y-44438D01*
X66732Y-44513D02*
X66957Y-44588D01*
X66957Y-44393D01*
X54170Y-33347D02*
X54170Y-33032D01*
X54500Y-33317D02*
X54485Y-33332D01*
X54440Y-33347D01*
X54410Y-33347D01*
X54365Y-33332D01*
X54335Y-33302D01*
X54320Y-33272D01*
X54305Y-33212D01*
X54305Y-33167D01*
X54320Y-33107D01*
X54335Y-33077D01*
X54365Y-33047D01*
X54410Y-33032D01*
X54440Y-33032D01*
X54485Y-33047D01*
X54500Y-33062D01*
X54800Y-33347D02*
X54620Y-33347D01*
X54710Y-33347D02*
X54710Y-33032D01*
X54680Y-33077D01*
X54650Y-33107D01*
X54620Y-33122D01*
X52888Y-34507D02*
X53038Y-34507D01*
X52858Y-34597D02*
X52963Y-34282D01*
X53068Y-34597D01*
X53128Y-34282D02*
X53308Y-34282D01*
X53218Y-34597D02*
X53218Y-34282D01*
X53413Y-34597D02*
X53413Y-34282D01*
X53518Y-34507D01*
X53623Y-34282D01*
X53623Y-34597D01*
X53773Y-34432D02*
X53878Y-34432D01*
X53923Y-34597D02*
X53773Y-34597D01*
X53773Y-34282D01*
X53923Y-34282D01*
X54223Y-34297D02*
X54193Y-34282D01*
X54148Y-34282D01*
X54103Y-34297D01*
X54073Y-34327D01*
X54058Y-34357D01*
X54043Y-34417D01*
X54043Y-34462D01*
X54058Y-34522D01*
X54073Y-34552D01*
X54103Y-34582D01*
X54148Y-34597D01*
X54178Y-34597D01*
X54223Y-34582D01*
X54238Y-34567D01*
X54238Y-34462D01*
X54178Y-34462D01*
X54358Y-34507D02*
X54508Y-34507D01*
X54328Y-34597D02*
X54433Y-34282D01*
X54538Y-34597D01*
X54613Y-34282D02*
X54808Y-34282D01*
X54703Y-34402D01*
X54748Y-34402D01*
X54778Y-34417D01*
X54793Y-34432D01*
X54808Y-34462D01*
X54808Y-34537D01*
X54793Y-34567D01*
X54778Y-34582D01*
X54748Y-34597D01*
X54658Y-34597D01*
X54628Y-34582D01*
X54613Y-34567D01*
X54928Y-34312D02*
X54943Y-34297D01*
X54973Y-34282D01*
X55048Y-34282D01*
X55078Y-34297D01*
X55093Y-34312D01*
X55108Y-34342D01*
X55108Y-34372D01*
X55093Y-34417D01*
X54913Y-34597D01*
X55108Y-34597D01*
X55288Y-34417D02*
X55258Y-34402D01*
X55243Y-34387D01*
X55228Y-34357D01*
X55228Y-34342D01*
X55243Y-34312D01*
X55258Y-34297D01*
X55288Y-34282D01*
X55348Y-34282D01*
X55378Y-34297D01*
X55393Y-34312D01*
X55408Y-34342D01*
X55408Y-34357D01*
X55393Y-34387D01*
X55378Y-34402D01*
X55348Y-34417D01*
X55288Y-34417D01*
X55258Y-34432D01*
X55243Y-34447D01*
X55228Y-34477D01*
X55228Y-34537D01*
X55243Y-34567D01*
X55258Y-34582D01*
X55288Y-34597D01*
X55348Y-34597D01*
X55378Y-34582D01*
X55393Y-34567D01*
X55408Y-34537D01*
X55408Y-34477D01*
X55393Y-34447D01*
X55378Y-34432D01*
X55348Y-34417D01*
X55543Y-34477D02*
X55783Y-34477D01*
X55918Y-34507D02*
X56068Y-34507D01*
X55888Y-34597D02*
X55993Y-34282D01*
X56098Y-34597D01*
X47575Y-40344D02*
X47590Y-40359D01*
X47605Y-40404D01*
X47605Y-40434D01*
X47590Y-40479D01*
X47560Y-40509D01*
X47530Y-40524D01*
X47470Y-40539D01*
X47425Y-40539D01*
X47365Y-40524D01*
X47335Y-40509D01*
X47305Y-40479D01*
X47290Y-40434D01*
X47290Y-40404D01*
X47305Y-40359D01*
X47320Y-40344D01*
X47290Y-40149D02*
X47290Y-40089D01*
X47305Y-40059D01*
X47335Y-40029D01*
X47395Y-40014D01*
X47500Y-40014D01*
X47560Y-40029D01*
X47590Y-40059D01*
X47605Y-40089D01*
X47605Y-40149D01*
X47590Y-40179D01*
X47560Y-40209D01*
X47500Y-40224D01*
X47395Y-40224D01*
X47335Y-40209D01*
X47305Y-40179D01*
X47290Y-40149D01*
X47605Y-39879D02*
X47290Y-39879D01*
X47605Y-39699D01*
X47290Y-39699D01*
X47605Y-39384D02*
X47605Y-39564D01*
X47605Y-39474D02*
X47290Y-39474D01*
X47335Y-39504D01*
X47365Y-39534D01*
X47380Y-39564D01*
X40830Y-44143D02*
X40830Y-44398D01*
X40845Y-44428D01*
X40860Y-44443D01*
X40890Y-44458D01*
X40950Y-44458D01*
X40980Y-44443D01*
X40995Y-44428D01*
X41010Y-44398D01*
X41010Y-44143D01*
X41325Y-44458D02*
X41145Y-44458D01*
X41235Y-44458D02*
X41235Y-44143D01*
X41205Y-44188D01*
X41175Y-44218D01*
X41145Y-44233D01*
X41625Y-44458D02*
X41445Y-44458D01*
X41535Y-44458D02*
X41535Y-44143D01*
X41505Y-44188D01*
X41475Y-44218D01*
X41445Y-44233D01*
X42332Y-44670D02*
X42017Y-44670D01*
X42017Y-44595D01*
X42032Y-44550D01*
X42062Y-44520D01*
X42092Y-44505D01*
X42152Y-44490D01*
X42197Y-44490D01*
X42257Y-44505D01*
X42287Y-44520D01*
X42317Y-44550D01*
X42332Y-44595D01*
X42332Y-44670D01*
X42302Y-44175D02*
X42317Y-44190D01*
X42332Y-44235D01*
X42332Y-44265D01*
X42317Y-44310D01*
X42287Y-44340D01*
X42257Y-44355D01*
X42197Y-44370D01*
X42152Y-44370D01*
X42092Y-44355D01*
X42062Y-44340D01*
X42032Y-44310D01*
X42017Y-44265D01*
X42017Y-44235D01*
X42032Y-44190D01*
X42047Y-44175D01*
X42362Y-44115D02*
X42362Y-43875D01*
X42017Y-43710D02*
X42242Y-43710D01*
X42287Y-43725D01*
X42317Y-43755D01*
X42332Y-43800D01*
X42332Y-43830D01*
X42242Y-43575D02*
X42242Y-43425D01*
X42332Y-43605D02*
X42017Y-43500D01*
X42332Y-43395D01*
X42302Y-43110D02*
X42317Y-43125D01*
X42332Y-43170D01*
X42332Y-43200D01*
X42317Y-43245D01*
X42287Y-43275D01*
X42257Y-43290D01*
X42197Y-43305D01*
X42152Y-43305D01*
X42092Y-43290D01*
X42062Y-43275D01*
X42032Y-43245D01*
X42017Y-43200D01*
X42017Y-43170D01*
X42032Y-43125D01*
X42047Y-43110D01*
X42332Y-42975D02*
X42017Y-42975D01*
X42332Y-42795D02*
X42152Y-42930D01*
X42017Y-42795D02*
X42197Y-42975D01*
X71879Y-28352D02*
X71729Y-28352D01*
X71729Y-28037D01*
X72149Y-28352D02*
X71969Y-28352D01*
X72059Y-28352D02*
X72059Y-28037D01*
X72029Y-28082D01*
X71999Y-28112D01*
X71969Y-28127D01*
X71234Y-32674D02*
X71249Y-32659D01*
X71279Y-32644D01*
X71354Y-32644D01*
X71384Y-32659D01*
X71399Y-32674D01*
X71414Y-32704D01*
X71414Y-32734D01*
X71399Y-32779D01*
X71219Y-32959D01*
X71414Y-32959D01*
X71534Y-32674D02*
X71549Y-32659D01*
X71579Y-32644D01*
X71654Y-32644D01*
X71684Y-32659D01*
X71699Y-32674D01*
X71714Y-32704D01*
X71714Y-32734D01*
X71699Y-32779D01*
X71519Y-32959D01*
X71714Y-32959D01*
X71909Y-32644D02*
X71939Y-32644D01*
X71969Y-32659D01*
X71984Y-32674D01*
X71999Y-32704D01*
X72014Y-32764D01*
X72014Y-32839D01*
X71999Y-32899D01*
X71984Y-32929D01*
X71969Y-32944D01*
X71939Y-32959D01*
X71909Y-32959D01*
X71879Y-32944D01*
X71864Y-32929D01*
X71849Y-32899D01*
X71834Y-32839D01*
X71834Y-32764D01*
X71849Y-32704D01*
X71864Y-32674D01*
X71879Y-32659D01*
X71909Y-32644D01*
X72284Y-32749D02*
X72284Y-32959D01*
X72149Y-32749D02*
X72149Y-32914D01*
X72164Y-32944D01*
X72194Y-32959D01*
X72239Y-32959D01*
X72269Y-32944D01*
X72284Y-32929D01*
X72434Y-32959D02*
X72434Y-32644D01*
X72434Y-32794D02*
X72614Y-32794D01*
X72614Y-32959D02*
X72614Y-32644D01*
X64931Y-33622D02*
X64931Y-33307D01*
X65261Y-33592D02*
X65246Y-33607D01*
X65201Y-33622D01*
X65171Y-33622D01*
X65126Y-33607D01*
X65096Y-33577D01*
X65081Y-33547D01*
X65066Y-33487D01*
X65066Y-33442D01*
X65081Y-33382D01*
X65096Y-33352D01*
X65126Y-33322D01*
X65171Y-33307D01*
X65201Y-33307D01*
X65246Y-33322D01*
X65261Y-33337D01*
X65411Y-33622D02*
X65471Y-33622D01*
X65501Y-33607D01*
X65516Y-33592D01*
X65546Y-33547D01*
X65561Y-33487D01*
X65561Y-33367D01*
X65546Y-33337D01*
X65531Y-33322D01*
X65501Y-33307D01*
X65441Y-33307D01*
X65411Y-33322D01*
X65396Y-33337D01*
X65381Y-33367D01*
X65381Y-33442D01*
X65396Y-33472D01*
X65411Y-33487D01*
X65441Y-33502D01*
X65501Y-33502D01*
X65531Y-33487D01*
X65546Y-33472D01*
X65561Y-33442D01*
X63986Y-34422D02*
X63986Y-34107D01*
X64316Y-34392D02*
X64301Y-34407D01*
X64256Y-34422D01*
X64226Y-34422D01*
X64181Y-34407D01*
X64151Y-34377D01*
X64136Y-34347D01*
X64121Y-34287D01*
X64121Y-34242D01*
X64136Y-34182D01*
X64151Y-34152D01*
X64181Y-34122D01*
X64226Y-34107D01*
X64256Y-34107D01*
X64301Y-34122D01*
X64316Y-34137D01*
X64451Y-34422D02*
X64451Y-34107D01*
X64556Y-34332D01*
X64661Y-34107D01*
X64661Y-34422D01*
X64781Y-34107D02*
X64991Y-34107D01*
X64856Y-34422D01*
X65261Y-34107D02*
X65111Y-34107D01*
X65096Y-34257D01*
X65111Y-34242D01*
X65141Y-34227D01*
X65216Y-34227D01*
X65246Y-34242D01*
X65261Y-34257D01*
X65276Y-34287D01*
X65276Y-34362D01*
X65261Y-34392D01*
X65246Y-34407D01*
X65216Y-34422D01*
X65141Y-34422D01*
X65111Y-34407D01*
X65096Y-34392D01*
X65561Y-34107D02*
X65411Y-34107D01*
X65396Y-34257D01*
X65411Y-34242D01*
X65441Y-34227D01*
X65516Y-34227D01*
X65546Y-34242D01*
X65561Y-34257D01*
X65576Y-34287D01*
X65576Y-34362D01*
X65561Y-34392D01*
X65546Y-34407D01*
X65516Y-34422D01*
X65441Y-34422D01*
X65411Y-34407D01*
X65396Y-34392D01*
X65861Y-34107D02*
X65711Y-34107D01*
X65696Y-34257D01*
X65711Y-34242D01*
X65741Y-34227D01*
X65816Y-34227D01*
X65846Y-34242D01*
X65861Y-34257D01*
X65876Y-34287D01*
X65876Y-34362D01*
X65861Y-34392D01*
X65846Y-34407D01*
X65816Y-34422D01*
X65741Y-34422D01*
X65711Y-34407D01*
X65696Y-34392D01*
X66191Y-34392D02*
X66176Y-34407D01*
X66131Y-34422D01*
X66101Y-34422D01*
X66056Y-34407D01*
X66026Y-34377D01*
X66011Y-34347D01*
X65996Y-34287D01*
X65996Y-34242D01*
X66011Y-34182D01*
X66026Y-34152D01*
X66056Y-34122D01*
X66101Y-34107D01*
X66131Y-34107D01*
X66176Y-34122D01*
X66191Y-34137D01*
X66326Y-34422D02*
X66326Y-34107D01*
X66401Y-34107D01*
X66446Y-34122D01*
X66476Y-34152D01*
X66491Y-34182D01*
X66506Y-34242D01*
X66506Y-34287D01*
X66491Y-34347D01*
X66476Y-34377D01*
X66446Y-34407D01*
X66401Y-34422D01*
X66326Y-34422D01*
X70035Y-34025D02*
X70215Y-34025D01*
X70125Y-34340D02*
X70125Y-34025D01*
X70485Y-34340D02*
X70305Y-34340D01*
X70395Y-34340D02*
X70395Y-34025D01*
X70365Y-34070D01*
X70335Y-34100D01*
X70305Y-34115D01*
X70157Y-35372D02*
X70142Y-35357D01*
X70127Y-35327D01*
X70127Y-35252D01*
X70142Y-35222D01*
X70157Y-35207D01*
X70187Y-35192D01*
X70217Y-35192D01*
X70262Y-35207D01*
X70442Y-35387D01*
X70442Y-35192D01*
X70427Y-35072D02*
X70442Y-35027D01*
X70442Y-34952D01*
X70427Y-34922D01*
X70412Y-34907D01*
X70382Y-34892D01*
X70352Y-34892D01*
X70322Y-34907D01*
X70307Y-34922D01*
X70292Y-34952D01*
X70277Y-35012D01*
X70262Y-35042D01*
X70247Y-35057D01*
X70217Y-35072D01*
X70187Y-35072D01*
X70157Y-35057D01*
X70142Y-35042D01*
X70127Y-35012D01*
X70127Y-34937D01*
X70142Y-34892D01*
X70412Y-34577D02*
X70427Y-34592D01*
X70442Y-34637D01*
X70442Y-34667D01*
X70427Y-34712D01*
X70397Y-34742D01*
X70367Y-34757D01*
X70307Y-34772D01*
X70262Y-34772D01*
X70202Y-34757D01*
X70172Y-34742D01*
X70142Y-34712D01*
X70127Y-34667D01*
X70127Y-34637D01*
X70142Y-34592D01*
X70157Y-34577D01*
X46210Y-35201D02*
X45895Y-35201D01*
X46180Y-34871D02*
X46195Y-34886D01*
X46210Y-34931D01*
X46210Y-34961D01*
X46195Y-35006D01*
X46165Y-35036D01*
X46135Y-35051D01*
X46075Y-35066D01*
X46030Y-35066D01*
X45970Y-35051D01*
X45940Y-35036D01*
X45910Y-35006D01*
X45895Y-34961D01*
X45895Y-34931D01*
X45910Y-34886D01*
X45925Y-34871D01*
X46210Y-34571D02*
X46210Y-34751D01*
X46210Y-34661D02*
X45895Y-34661D01*
X45940Y-34691D01*
X45970Y-34721D01*
X45985Y-34751D01*
X46210Y-34271D02*
X46210Y-34451D01*
X46210Y-34361D02*
X45895Y-34361D01*
X45940Y-34391D01*
X45970Y-34421D01*
X45985Y-34451D01*
X45718Y-35871D02*
X45403Y-35871D01*
X45403Y-35796D01*
X45418Y-35751D01*
X45448Y-35721D01*
X45478Y-35706D01*
X45538Y-35691D01*
X45583Y-35691D01*
X45643Y-35706D01*
X45673Y-35721D01*
X45703Y-35751D01*
X45718Y-35796D01*
X45718Y-35871D01*
X45703Y-35571D02*
X45718Y-35526D01*
X45718Y-35451D01*
X45703Y-35421D01*
X45688Y-35406D01*
X45658Y-35391D01*
X45628Y-35391D01*
X45598Y-35406D01*
X45583Y-35421D01*
X45568Y-35451D01*
X45553Y-35511D01*
X45538Y-35541D01*
X45523Y-35556D01*
X45493Y-35571D01*
X45463Y-35571D01*
X45433Y-35556D01*
X45418Y-35541D01*
X45403Y-35511D01*
X45403Y-35436D01*
X45418Y-35391D01*
X45718Y-35091D02*
X45718Y-35271D01*
X45718Y-35181D02*
X45403Y-35181D01*
X45448Y-35211D01*
X45478Y-35241D01*
X45493Y-35271D01*
X45403Y-34986D02*
X45403Y-34791D01*
X45523Y-34896D01*
X45523Y-34851D01*
X45538Y-34821D01*
X45553Y-34806D01*
X45583Y-34791D01*
X45658Y-34791D01*
X45688Y-34806D01*
X45703Y-34821D01*
X45718Y-34851D01*
X45718Y-34941D01*
X45703Y-34971D01*
X45688Y-34986D01*
X45403Y-34596D02*
X45403Y-34566D01*
X45418Y-34536D01*
X45433Y-34521D01*
X45463Y-34506D01*
X45523Y-34491D01*
X45598Y-34491D01*
X45658Y-34506D01*
X45688Y-34521D01*
X45703Y-34536D01*
X45718Y-34566D01*
X45718Y-34596D01*
X45703Y-34626D01*
X45688Y-34641D01*
X45658Y-34656D01*
X45598Y-34671D01*
X45523Y-34671D01*
X45463Y-34656D01*
X45433Y-34641D01*
X45418Y-34626D01*
X45403Y-34596D01*
X45403Y-34386D02*
X45403Y-34176D01*
X45718Y-34311D01*
X73153Y-33316D02*
X73153Y-33001D01*
X73228Y-33001D01*
X73273Y-33016D01*
X73303Y-33046D01*
X73318Y-33076D01*
X73333Y-33136D01*
X73333Y-33181D01*
X73318Y-33241D01*
X73303Y-33271D01*
X73273Y-33301D01*
X73228Y-33316D01*
X73153Y-33316D01*
X73453Y-33031D02*
X73468Y-33016D01*
X73498Y-33001D01*
X73573Y-33001D01*
X73603Y-33016D01*
X73618Y-33031D01*
X73633Y-33061D01*
X73633Y-33091D01*
X73618Y-33136D01*
X73438Y-33316D01*
X73633Y-33316D01*
X64012Y-31889D02*
X63907Y-31739D01*
X63832Y-31889D02*
X63832Y-31574D01*
X63952Y-31574D01*
X63982Y-31589D01*
X63997Y-31604D01*
X64012Y-31634D01*
X64012Y-31679D01*
X63997Y-31709D01*
X63982Y-31724D01*
X63952Y-31739D01*
X63832Y-31739D01*
X64312Y-31889D02*
X64132Y-31889D01*
X64222Y-31889D02*
X64222Y-31574D01*
X64192Y-31619D01*
X64162Y-31649D01*
X64132Y-31664D01*
X64582Y-31679D02*
X64582Y-31889D01*
X64507Y-31559D02*
X64432Y-31784D01*
X64627Y-31784D01*
X64342Y-32224D02*
X64342Y-32404D01*
X64342Y-32314D02*
X64027Y-32314D01*
X64072Y-32344D01*
X64102Y-32374D01*
X64117Y-32404D01*
X64027Y-32029D02*
X64027Y-31999D01*
X64042Y-31969D01*
X64057Y-31954D01*
X64087Y-31939D01*
X64147Y-31924D01*
X64222Y-31924D01*
X64282Y-31939D01*
X64312Y-31954D01*
X64327Y-31969D01*
X64342Y-31999D01*
X64342Y-32029D01*
X64327Y-32059D01*
X64312Y-32074D01*
X64282Y-32089D01*
X64222Y-32104D01*
X64147Y-32104D01*
X64087Y-32089D01*
X64057Y-32074D01*
X64042Y-32059D01*
X64027Y-32029D01*
X64342Y-31789D02*
X64027Y-31789D01*
X64222Y-31759D02*
X64342Y-31669D01*
X64132Y-31669D02*
X64252Y-31789D01*
X71948Y-36931D02*
X71798Y-37036D01*
X71948Y-37111D02*
X71633Y-37111D01*
X71633Y-36991D01*
X71648Y-36961D01*
X71663Y-36946D01*
X71693Y-36931D01*
X71738Y-36931D01*
X71768Y-36946D01*
X71783Y-36961D01*
X71798Y-36991D01*
X71798Y-37111D01*
X71948Y-36631D02*
X71948Y-36811D01*
X71948Y-36721D02*
X71633Y-36721D01*
X71678Y-36751D01*
X71708Y-36781D01*
X71723Y-36811D01*
X71948Y-36481D02*
X71948Y-36421D01*
X71933Y-36391D01*
X71918Y-36376D01*
X71873Y-36346D01*
X71813Y-36331D01*
X71693Y-36331D01*
X71663Y-36346D01*
X71648Y-36361D01*
X71633Y-36391D01*
X71633Y-36451D01*
X71648Y-36481D01*
X71663Y-36496D01*
X71693Y-36511D01*
X71768Y-36511D01*
X71798Y-36496D01*
X71813Y-36481D01*
X71828Y-36451D01*
X71828Y-36391D01*
X71813Y-36361D01*
X71798Y-36346D01*
X71768Y-36331D01*
X71673Y-36916D02*
X71673Y-37096D01*
X71673Y-37006D02*
X71358Y-37006D01*
X71403Y-37036D01*
X71433Y-37066D01*
X71448Y-37096D01*
X71358Y-36721D02*
X71358Y-36691D01*
X71373Y-36661D01*
X71388Y-36646D01*
X71418Y-36631D01*
X71478Y-36616D01*
X71553Y-36616D01*
X71613Y-36631D01*
X71643Y-36646D01*
X71658Y-36661D01*
X71673Y-36691D01*
X71673Y-36721D01*
X71658Y-36751D01*
X71643Y-36766D01*
X71613Y-36781D01*
X71553Y-36796D01*
X71478Y-36796D01*
X71418Y-36781D01*
X71388Y-36766D01*
X71373Y-36751D01*
X71358Y-36721D01*
X71673Y-36481D02*
X71358Y-36481D01*
X71553Y-36451D02*
X71673Y-36361D01*
X71463Y-36361D02*
X71583Y-36481D01*
X71906Y-35202D02*
X71756Y-35307D01*
X71906Y-35382D02*
X71591Y-35382D01*
X71591Y-35262D01*
X71606Y-35232D01*
X71621Y-35217D01*
X71651Y-35202D01*
X71696Y-35202D01*
X71726Y-35217D01*
X71741Y-35232D01*
X71756Y-35262D01*
X71756Y-35382D01*
X71906Y-34902D02*
X71906Y-35082D01*
X71906Y-34992D02*
X71591Y-34992D01*
X71636Y-35022D01*
X71666Y-35052D01*
X71681Y-35082D01*
X71726Y-34722D02*
X71711Y-34752D01*
X71696Y-34767D01*
X71666Y-34782D01*
X71651Y-34782D01*
X71621Y-34767D01*
X71606Y-34752D01*
X71591Y-34722D01*
X71591Y-34662D01*
X71606Y-34632D01*
X71621Y-34617D01*
X71651Y-34602D01*
X71666Y-34602D01*
X71696Y-34617D01*
X71711Y-34632D01*
X71726Y-34662D01*
X71726Y-34722D01*
X71741Y-34752D01*
X71756Y-34767D01*
X71786Y-34782D01*
X71846Y-34782D01*
X71876Y-34767D01*
X71891Y-34752D01*
X71906Y-34722D01*
X71906Y-34662D01*
X71891Y-34632D01*
X71876Y-34617D01*
X71846Y-34602D01*
X71786Y-34602D01*
X71756Y-34617D01*
X71741Y-34632D01*
X71726Y-34662D01*
X71316Y-35352D02*
X71316Y-35502D01*
X71466Y-35517D01*
X71451Y-35502D01*
X71436Y-35472D01*
X71436Y-35397D01*
X71451Y-35367D01*
X71466Y-35352D01*
X71496Y-35337D01*
X71571Y-35337D01*
X71601Y-35352D01*
X71616Y-35367D01*
X71631Y-35397D01*
X71631Y-35472D01*
X71616Y-35502D01*
X71601Y-35517D01*
X71316Y-35142D02*
X71316Y-35112D01*
X71331Y-35082D01*
X71346Y-35067D01*
X71376Y-35052D01*
X71436Y-35037D01*
X71511Y-35037D01*
X71571Y-35052D01*
X71601Y-35067D01*
X71616Y-35082D01*
X71631Y-35112D01*
X71631Y-35142D01*
X71616Y-35172D01*
X71601Y-35187D01*
X71571Y-35202D01*
X71511Y-35217D01*
X71436Y-35217D01*
X71376Y-35202D01*
X71346Y-35187D01*
X71331Y-35172D01*
X71316Y-35142D01*
X71316Y-34842D02*
X71316Y-34812D01*
X71331Y-34782D01*
X71346Y-34767D01*
X71376Y-34752D01*
X71436Y-34737D01*
X71511Y-34737D01*
X71571Y-34752D01*
X71601Y-34767D01*
X71616Y-34782D01*
X71631Y-34812D01*
X71631Y-34842D01*
X71616Y-34872D01*
X71601Y-34887D01*
X71571Y-34902D01*
X71511Y-34917D01*
X71436Y-34917D01*
X71376Y-34902D01*
X71346Y-34887D01*
X71331Y-34872D01*
X71316Y-34842D01*
X71631Y-34602D02*
X71316Y-34602D01*
X71511Y-34572D02*
X71631Y-34482D01*
X71421Y-34482D02*
X71541Y-34602D01*
X71057Y-33710D02*
X70952Y-33560D01*
X70877Y-33710D02*
X70877Y-33395D01*
X70997Y-33395D01*
X71027Y-33410D01*
X71042Y-33425D01*
X71057Y-33455D01*
X71057Y-33500D01*
X71042Y-33530D01*
X71027Y-33545D01*
X70997Y-33560D01*
X70877Y-33560D01*
X71357Y-33710D02*
X71177Y-33710D01*
X71267Y-33710D02*
X71267Y-33395D01*
X71237Y-33440D01*
X71207Y-33470D01*
X71177Y-33485D01*
X71462Y-33395D02*
X71672Y-33395D01*
X71537Y-33710D01*
X70907Y-33245D02*
X70757Y-33245D01*
X70742Y-33395D01*
X70757Y-33380D01*
X70787Y-33365D01*
X70862Y-33365D01*
X70892Y-33380D01*
X70907Y-33395D01*
X70922Y-33425D01*
X70922Y-33500D01*
X70907Y-33530D01*
X70892Y-33545D01*
X70862Y-33560D01*
X70787Y-33560D01*
X70757Y-33545D01*
X70742Y-33530D01*
X71117Y-33245D02*
X71147Y-33245D01*
X71177Y-33260D01*
X71192Y-33275D01*
X71207Y-33305D01*
X71222Y-33365D01*
X71222Y-33440D01*
X71207Y-33500D01*
X71192Y-33530D01*
X71177Y-33545D01*
X71147Y-33560D01*
X71117Y-33560D01*
X71087Y-33545D01*
X71072Y-33530D01*
X71057Y-33500D01*
X71042Y-33440D01*
X71042Y-33365D01*
X71057Y-33305D01*
X71072Y-33275D01*
X71087Y-33260D01*
X71117Y-33245D01*
X71417Y-33245D02*
X71447Y-33245D01*
X71477Y-33260D01*
X71492Y-33275D01*
X71507Y-33305D01*
X71522Y-33365D01*
X71522Y-33440D01*
X71507Y-33500D01*
X71492Y-33530D01*
X71477Y-33545D01*
X71447Y-33560D01*
X71417Y-33560D01*
X71387Y-33545D01*
X71372Y-33530D01*
X71357Y-33500D01*
X71342Y-33440D01*
X71342Y-33365D01*
X71357Y-33305D01*
X71372Y-33275D01*
X71387Y-33260D01*
X71417Y-33245D01*
X71657Y-33560D02*
X71657Y-33245D01*
X71687Y-33440D02*
X71777Y-33560D01*
X71777Y-33350D02*
X71657Y-33470D01*
X59303Y-31856D02*
X59153Y-31961D01*
X59303Y-32035D02*
X58988Y-32035D01*
X58988Y-31916D01*
X59003Y-31886D01*
X59018Y-31871D01*
X59048Y-31856D01*
X59093Y-31856D01*
X59123Y-31871D01*
X59138Y-31886D01*
X59153Y-31916D01*
X59153Y-32035D01*
X59303Y-31556D02*
X59303Y-31736D01*
X59303Y-31646D02*
X58988Y-31646D01*
X59033Y-31676D01*
X59063Y-31706D01*
X59078Y-31736D01*
X59303Y-31256D02*
X59303Y-31436D01*
X59303Y-31346D02*
X58988Y-31346D01*
X59033Y-31376D01*
X59063Y-31406D01*
X59078Y-31436D01*
X59578Y-31841D02*
X59578Y-32020D01*
X59578Y-31931D02*
X59263Y-31931D01*
X59308Y-31961D01*
X59338Y-31991D01*
X59353Y-32020D01*
X59263Y-31646D02*
X59263Y-31616D01*
X59278Y-31586D01*
X59293Y-31571D01*
X59323Y-31556D01*
X59383Y-31541D01*
X59458Y-31541D01*
X59518Y-31556D01*
X59548Y-31571D01*
X59563Y-31586D01*
X59578Y-31616D01*
X59578Y-31646D01*
X59563Y-31676D01*
X59548Y-31691D01*
X59518Y-31706D01*
X59458Y-31721D01*
X59383Y-31721D01*
X59323Y-31706D01*
X59293Y-31691D01*
X59278Y-31676D01*
X59263Y-31646D01*
X59578Y-31406D02*
X59263Y-31406D01*
X59458Y-31376D02*
X59578Y-31286D01*
X59368Y-31286D02*
X59488Y-31406D01*
X65041Y-36304D02*
X64891Y-36409D01*
X65041Y-36484D02*
X64726Y-36484D01*
X64726Y-36364D01*
X64741Y-36334D01*
X64756Y-36319D01*
X64786Y-36304D01*
X64831Y-36304D01*
X64861Y-36319D01*
X64876Y-36334D01*
X64891Y-36364D01*
X64891Y-36484D01*
X65041Y-36004D02*
X65041Y-36184D01*
X65041Y-36094D02*
X64726Y-36094D01*
X64771Y-36124D01*
X64801Y-36154D01*
X64816Y-36184D01*
X64756Y-35884D02*
X64741Y-35869D01*
X64726Y-35839D01*
X64726Y-35764D01*
X64741Y-35734D01*
X64756Y-35719D01*
X64786Y-35704D01*
X64816Y-35704D01*
X64861Y-35719D01*
X65041Y-35899D01*
X65041Y-35704D01*
X65316Y-36289D02*
X65316Y-36469D01*
X65316Y-36379D02*
X65001Y-36379D01*
X65046Y-36409D01*
X65076Y-36439D01*
X65091Y-36469D01*
X65001Y-36094D02*
X65001Y-36064D01*
X65016Y-36034D01*
X65031Y-36019D01*
X65061Y-36004D01*
X65121Y-35989D01*
X65196Y-35989D01*
X65256Y-36004D01*
X65286Y-36019D01*
X65301Y-36034D01*
X65316Y-36064D01*
X65316Y-36094D01*
X65301Y-36124D01*
X65286Y-36139D01*
X65256Y-36154D01*
X65196Y-36169D01*
X65121Y-36169D01*
X65061Y-36154D01*
X65031Y-36139D01*
X65016Y-36124D01*
X65001Y-36094D01*
X65316Y-35854D02*
X65001Y-35854D01*
X65196Y-35824D02*
X65316Y-35734D01*
X65106Y-35734D02*
X65226Y-35854D01*
X66175Y-36669D02*
X66070Y-36519D01*
X65995Y-36669D02*
X65995Y-36354D01*
X66115Y-36354D01*
X66145Y-36369D01*
X66160Y-36384D01*
X66175Y-36414D01*
X66175Y-36459D01*
X66160Y-36489D01*
X66145Y-36504D01*
X66115Y-36519D01*
X65995Y-36519D01*
X66475Y-36669D02*
X66295Y-36669D01*
X66385Y-36669D02*
X66385Y-36354D01*
X66355Y-36399D01*
X66325Y-36429D01*
X66295Y-36444D01*
X66580Y-36354D02*
X66775Y-36354D01*
X66670Y-36474D01*
X66715Y-36474D01*
X66745Y-36489D01*
X66760Y-36504D01*
X66775Y-36534D01*
X66775Y-36609D01*
X66760Y-36639D01*
X66745Y-36654D01*
X66715Y-36669D01*
X66625Y-36669D01*
X66595Y-36654D01*
X66580Y-36639D01*
X66190Y-36394D02*
X66010Y-36394D01*
X66100Y-36394D02*
X66100Y-36079D01*
X66070Y-36124D01*
X66040Y-36154D01*
X66010Y-36169D01*
X66385Y-36079D02*
X66415Y-36079D01*
X66445Y-36094D01*
X66460Y-36109D01*
X66475Y-36139D01*
X66490Y-36199D01*
X66490Y-36274D01*
X66475Y-36334D01*
X66460Y-36364D01*
X66445Y-36379D01*
X66415Y-36394D01*
X66385Y-36394D01*
X66355Y-36379D01*
X66340Y-36364D01*
X66325Y-36334D01*
X66310Y-36274D01*
X66310Y-36199D01*
X66325Y-36139D01*
X66340Y-36109D01*
X66355Y-36094D01*
X66385Y-36079D01*
X66625Y-36394D02*
X66625Y-36079D01*
X66655Y-36274D02*
X66745Y-36394D01*
X66745Y-36184D02*
X66625Y-36304D01*
X65430Y-32139D02*
X65325Y-31989D01*
X65250Y-32139D02*
X65250Y-31824D01*
X65370Y-31824D01*
X65400Y-31839D01*
X65415Y-31854D01*
X65430Y-31884D01*
X65430Y-31929D01*
X65415Y-31959D01*
X65400Y-31974D01*
X65370Y-31989D01*
X65250Y-31989D01*
X65730Y-32139D02*
X65550Y-32139D01*
X65640Y-32139D02*
X65640Y-31824D01*
X65610Y-31869D01*
X65580Y-31899D01*
X65550Y-31914D01*
X66015Y-31824D02*
X65865Y-31824D01*
X65850Y-31974D01*
X65865Y-31959D01*
X65895Y-31944D01*
X65970Y-31944D01*
X66000Y-31959D01*
X66015Y-31974D01*
X66030Y-32004D01*
X66030Y-32079D01*
X66015Y-32109D01*
X66000Y-32124D01*
X65970Y-32139D01*
X65895Y-32139D01*
X65865Y-32124D01*
X65850Y-32109D01*
X65415Y-31864D02*
X65235Y-31864D01*
X65325Y-31864D02*
X65325Y-31549D01*
X65295Y-31594D01*
X65265Y-31624D01*
X65235Y-31639D01*
X65610Y-31549D02*
X65640Y-31549D01*
X65670Y-31564D01*
X65685Y-31579D01*
X65700Y-31609D01*
X65715Y-31669D01*
X65715Y-31744D01*
X65700Y-31804D01*
X65685Y-31834D01*
X65670Y-31849D01*
X65640Y-31864D01*
X65610Y-31864D01*
X65580Y-31849D01*
X65565Y-31834D01*
X65550Y-31804D01*
X65535Y-31744D01*
X65535Y-31669D01*
X65550Y-31609D01*
X65565Y-31579D01*
X65580Y-31564D01*
X65610Y-31549D01*
X65850Y-31864D02*
X65850Y-31549D01*
X66030Y-31864D02*
X65895Y-31684D01*
X66030Y-31549D02*
X65850Y-31729D01*
X64019Y-29175D02*
X63914Y-29025D01*
X63839Y-29175D02*
X63839Y-28860D01*
X63959Y-28860D01*
X63989Y-28875D01*
X64004Y-28890D01*
X64019Y-28920D01*
X64019Y-28965D01*
X64004Y-28995D01*
X63989Y-29010D01*
X63959Y-29025D01*
X63839Y-29025D01*
X64319Y-29175D02*
X64139Y-29175D01*
X64229Y-29175D02*
X64229Y-28860D01*
X64199Y-28905D01*
X64169Y-28935D01*
X64139Y-28950D01*
X64589Y-28860D02*
X64529Y-28860D01*
X64499Y-28875D01*
X64484Y-28890D01*
X64454Y-28935D01*
X64439Y-28995D01*
X64439Y-29115D01*
X64454Y-29145D01*
X64469Y-29160D01*
X64499Y-29175D01*
X64559Y-29175D01*
X64589Y-29160D01*
X64604Y-29145D01*
X64619Y-29115D01*
X64619Y-29040D01*
X64604Y-29010D01*
X64589Y-28995D01*
X64559Y-28980D01*
X64499Y-28980D01*
X64469Y-28995D01*
X64454Y-29010D01*
X64439Y-29040D01*
X63929Y-29240D02*
X63929Y-29450D01*
X63854Y-29120D02*
X63779Y-29345D01*
X63974Y-29345D01*
X64094Y-29420D02*
X64109Y-29435D01*
X64094Y-29450D01*
X64079Y-29435D01*
X64094Y-29420D01*
X64094Y-29450D01*
X64214Y-29135D02*
X64424Y-29135D01*
X64289Y-29450D01*
X64544Y-29450D02*
X64544Y-29135D01*
X64574Y-29330D02*
X64664Y-29450D01*
X64664Y-29240D02*
X64544Y-29360D01*
X45516Y-35986D02*
X45411Y-35836D01*
X45336Y-35986D02*
X45336Y-35671D01*
X45456Y-35671D01*
X45486Y-35686D01*
X45501Y-35701D01*
X45516Y-35731D01*
X45516Y-35776D01*
X45501Y-35806D01*
X45486Y-35821D01*
X45456Y-35836D01*
X45336Y-35836D01*
X45636Y-35701D02*
X45651Y-35686D01*
X45681Y-35671D01*
X45755Y-35671D01*
X45785Y-35686D01*
X45800Y-35701D01*
X45815Y-35731D01*
X45815Y-35761D01*
X45800Y-35806D01*
X45621Y-35986D01*
X45815Y-35986D01*
X45995Y-35806D02*
X45965Y-35791D01*
X45950Y-35776D01*
X45935Y-35746D01*
X45935Y-35731D01*
X45950Y-35701D01*
X45965Y-35686D01*
X45995Y-35671D01*
X46055Y-35671D01*
X46085Y-35686D01*
X46100Y-35701D01*
X46115Y-35731D01*
X46115Y-35746D01*
X46100Y-35776D01*
X46085Y-35791D01*
X46055Y-35806D01*
X45995Y-35806D01*
X45965Y-35821D01*
X45950Y-35836D01*
X45935Y-35866D01*
X45935Y-35926D01*
X45950Y-35956D01*
X45965Y-35971D01*
X45995Y-35986D01*
X46055Y-35986D01*
X46085Y-35971D01*
X46100Y-35956D01*
X46115Y-35926D01*
X46115Y-35866D01*
X46100Y-35836D01*
X46085Y-35821D01*
X46055Y-35806D01*
X45261Y-35946D02*
X45471Y-35946D01*
X45336Y-36261D01*
X45591Y-36231D02*
X45606Y-36246D01*
X45591Y-36261D01*
X45576Y-36246D01*
X45591Y-36231D01*
X45591Y-36261D01*
X45890Y-35946D02*
X45741Y-35946D01*
X45726Y-36096D01*
X45741Y-36081D01*
X45770Y-36066D01*
X45845Y-36066D01*
X45875Y-36081D01*
X45890Y-36096D01*
X45905Y-36126D01*
X45905Y-36201D01*
X45890Y-36231D01*
X45875Y-36246D01*
X45845Y-36261D01*
X45770Y-36261D01*
X45741Y-36246D01*
X45726Y-36231D01*
X46040Y-36261D02*
X46040Y-35946D01*
X46070Y-36141D02*
X46160Y-36261D01*
X46160Y-36051D02*
X46040Y-36171D01*
X45516Y-34504D02*
X45411Y-34354D01*
X45336Y-34504D02*
X45336Y-34189D01*
X45456Y-34189D01*
X45486Y-34204D01*
X45501Y-34219D01*
X45516Y-34249D01*
X45516Y-34294D01*
X45501Y-34324D01*
X45486Y-34339D01*
X45456Y-34354D01*
X45336Y-34354D01*
X45636Y-34219D02*
X45651Y-34204D01*
X45681Y-34189D01*
X45755Y-34189D01*
X45785Y-34204D01*
X45800Y-34219D01*
X45815Y-34249D01*
X45815Y-34279D01*
X45800Y-34324D01*
X45621Y-34504D01*
X45815Y-34504D01*
X45920Y-34189D02*
X46130Y-34189D01*
X45995Y-34504D01*
X45261Y-33914D02*
X45456Y-33914D01*
X45351Y-34034D01*
X45396Y-34034D01*
X45426Y-34049D01*
X45441Y-34064D01*
X45456Y-34094D01*
X45456Y-34169D01*
X45441Y-34199D01*
X45426Y-34214D01*
X45396Y-34229D01*
X45306Y-34229D01*
X45276Y-34214D01*
X45261Y-34199D01*
X45591Y-34199D02*
X45606Y-34214D01*
X45591Y-34229D01*
X45576Y-34214D01*
X45591Y-34199D01*
X45591Y-34229D01*
X45711Y-33914D02*
X45905Y-33914D01*
X45800Y-34034D01*
X45845Y-34034D01*
X45875Y-34049D01*
X45890Y-34064D01*
X45905Y-34094D01*
X45905Y-34169D01*
X45890Y-34199D01*
X45875Y-34214D01*
X45845Y-34229D01*
X45755Y-34229D01*
X45726Y-34214D01*
X45711Y-34199D01*
X46040Y-34229D02*
X46040Y-33914D01*
X46070Y-34109D02*
X46160Y-34229D01*
X46160Y-34019D02*
X46040Y-34139D01*
X60547Y-34657D02*
X60532Y-34672D01*
X60487Y-34687D01*
X60457Y-34687D01*
X60412Y-34672D01*
X60382Y-34642D01*
X60367Y-34612D01*
X60352Y-34552D01*
X60352Y-34507D01*
X60367Y-34447D01*
X60382Y-34417D01*
X60412Y-34387D01*
X60457Y-34372D01*
X60487Y-34372D01*
X60532Y-34387D01*
X60547Y-34402D01*
X60652Y-34372D02*
X60847Y-34372D01*
X60742Y-34492D01*
X60787Y-34492D01*
X60817Y-34507D01*
X60832Y-34522D01*
X60847Y-34552D01*
X60847Y-34627D01*
X60832Y-34657D01*
X60817Y-34672D01*
X60787Y-34687D01*
X60697Y-34687D01*
X60667Y-34672D01*
X60652Y-34657D01*
X60397Y-34962D02*
X60217Y-34962D01*
X60307Y-34962D02*
X60307Y-34647D01*
X60277Y-34692D01*
X60247Y-34722D01*
X60217Y-34737D01*
X60592Y-34647D02*
X60622Y-34647D01*
X60652Y-34662D01*
X60667Y-34677D01*
X60682Y-34707D01*
X60697Y-34767D01*
X60697Y-34842D01*
X60682Y-34902D01*
X60667Y-34932D01*
X60652Y-34947D01*
X60622Y-34962D01*
X60592Y-34962D01*
X60562Y-34947D01*
X60547Y-34932D01*
X60532Y-34902D01*
X60517Y-34842D01*
X60517Y-34767D01*
X60532Y-34707D01*
X60547Y-34677D01*
X60562Y-34662D01*
X60592Y-34647D01*
X60967Y-34752D02*
X60967Y-34962D01*
X60832Y-34752D02*
X60832Y-34917D01*
X60847Y-34947D01*
X60877Y-34962D01*
X60922Y-34962D01*
X60952Y-34947D01*
X60967Y-34932D01*
X60547Y-33520D02*
X60442Y-33370D01*
X60367Y-33520D02*
X60367Y-33205D01*
X60487Y-33205D01*
X60517Y-33220D01*
X60532Y-33235D01*
X60547Y-33265D01*
X60547Y-33310D01*
X60532Y-33340D01*
X60517Y-33355D01*
X60487Y-33370D01*
X60367Y-33370D01*
X60652Y-33205D02*
X60847Y-33205D01*
X60742Y-33325D01*
X60787Y-33325D01*
X60817Y-33340D01*
X60832Y-33355D01*
X60847Y-33385D01*
X60847Y-33460D01*
X60832Y-33490D01*
X60817Y-33505D01*
X60787Y-33520D01*
X60697Y-33520D01*
X60667Y-33505D01*
X60652Y-33490D01*
X60412Y-33245D02*
X60232Y-33245D01*
X60322Y-33245D02*
X60322Y-32930D01*
X60292Y-32975D01*
X60262Y-33005D01*
X60232Y-33020D01*
X60607Y-32930D02*
X60637Y-32930D01*
X60667Y-32945D01*
X60682Y-32960D01*
X60697Y-32990D01*
X60712Y-33050D01*
X60712Y-33125D01*
X60697Y-33185D01*
X60682Y-33215D01*
X60667Y-33230D01*
X60637Y-33245D01*
X60607Y-33245D01*
X60577Y-33230D01*
X60562Y-33215D01*
X60547Y-33185D01*
X60532Y-33125D01*
X60532Y-33050D01*
X60547Y-32990D01*
X60562Y-32960D01*
X60577Y-32945D01*
X60607Y-32930D01*
X60847Y-33245D02*
X60847Y-32930D01*
X60877Y-33125D02*
X60967Y-33245D01*
X60967Y-33035D02*
X60847Y-33155D01*
X60367Y-33978D02*
X60367Y-33663D01*
X60442Y-33663D01*
X60487Y-33678D01*
X60517Y-33708D01*
X60532Y-33738D01*
X60547Y-33798D01*
X60547Y-33843D01*
X60532Y-33903D01*
X60517Y-33933D01*
X60487Y-33963D01*
X60442Y-33978D01*
X60367Y-33978D01*
X60847Y-33978D02*
X60667Y-33978D01*
X60757Y-33978D02*
X60757Y-33663D01*
X60727Y-33708D01*
X60697Y-33738D01*
X60667Y-33753D01*
X59977Y-34340D02*
X59977Y-34025D01*
X60052Y-34025D01*
X60097Y-34040D01*
X60127Y-34070D01*
X60142Y-34100D01*
X60157Y-34160D01*
X60157Y-34205D01*
X60142Y-34265D01*
X60127Y-34295D01*
X60097Y-34325D01*
X60052Y-34340D01*
X59977Y-34340D01*
X60292Y-34340D02*
X60292Y-34025D01*
X60502Y-34025D02*
X60562Y-34025D01*
X60592Y-34040D01*
X60622Y-34070D01*
X60637Y-34130D01*
X60637Y-34235D01*
X60622Y-34295D01*
X60592Y-34325D01*
X60562Y-34340D01*
X60502Y-34340D01*
X60472Y-34325D01*
X60442Y-34295D01*
X60427Y-34235D01*
X60427Y-34130D01*
X60442Y-34070D01*
X60472Y-34040D01*
X60502Y-34025D01*
X60772Y-34340D02*
X60772Y-34025D01*
X60847Y-34025D01*
X60892Y-34040D01*
X60922Y-34070D01*
X60937Y-34100D01*
X60952Y-34160D01*
X60952Y-34205D01*
X60937Y-34265D01*
X60922Y-34295D01*
X60892Y-34325D01*
X60847Y-34340D01*
X60772Y-34340D01*
X61087Y-34175D02*
X61192Y-34175D01*
X61237Y-34340D02*
X61087Y-34340D01*
X61087Y-34025D01*
X61237Y-34025D01*
X60547Y-35646D02*
X60442Y-35496D01*
X60367Y-35646D02*
X60367Y-35331D01*
X60487Y-35331D01*
X60517Y-35346D01*
X60532Y-35361D01*
X60547Y-35391D01*
X60547Y-35436D01*
X60532Y-35466D01*
X60517Y-35481D01*
X60487Y-35496D01*
X60367Y-35496D01*
X60667Y-35361D02*
X60682Y-35346D01*
X60712Y-35331D01*
X60787Y-35331D01*
X60817Y-35346D01*
X60832Y-35361D01*
X60847Y-35391D01*
X60847Y-35421D01*
X60832Y-35466D01*
X60652Y-35646D01*
X60847Y-35646D01*
X60562Y-35371D02*
X60382Y-35371D01*
X60472Y-35371D02*
X60472Y-35056D01*
X60442Y-35101D01*
X60412Y-35131D01*
X60382Y-35146D01*
X60697Y-35371D02*
X60697Y-35056D01*
X60727Y-35251D02*
X60817Y-35371D01*
X60817Y-35161D02*
X60697Y-35281D01*
X45486Y-35199D02*
X45486Y-34884D01*
X45561Y-34884D01*
X45606Y-34899D01*
X45636Y-34929D01*
X45651Y-34959D01*
X45666Y-35019D01*
X45666Y-35064D01*
X45651Y-35124D01*
X45636Y-35154D01*
X45606Y-35184D01*
X45561Y-35199D01*
X45486Y-35199D01*
X45950Y-34884D02*
X45800Y-34884D01*
X45785Y-35034D01*
X45800Y-35019D01*
X45830Y-35004D01*
X45905Y-35004D01*
X45935Y-35019D01*
X45950Y-35034D01*
X45965Y-35064D01*
X45965Y-35139D01*
X45950Y-35169D01*
X45935Y-35184D01*
X45905Y-35199D01*
X45830Y-35199D01*
X45800Y-35184D01*
X45785Y-35169D01*
X45096Y-35474D02*
X45096Y-35159D01*
X45171Y-35159D01*
X45216Y-35174D01*
X45246Y-35204D01*
X45261Y-35234D01*
X45276Y-35294D01*
X45276Y-35339D01*
X45261Y-35399D01*
X45246Y-35429D01*
X45216Y-35459D01*
X45171Y-35474D01*
X45096Y-35474D01*
X45411Y-35474D02*
X45411Y-35159D01*
X45621Y-35159D02*
X45681Y-35159D01*
X45711Y-35174D01*
X45741Y-35204D01*
X45755Y-35264D01*
X45755Y-35369D01*
X45741Y-35429D01*
X45711Y-35459D01*
X45681Y-35474D01*
X45621Y-35474D01*
X45591Y-35459D01*
X45561Y-35429D01*
X45546Y-35369D01*
X45546Y-35264D01*
X45561Y-35204D01*
X45591Y-35174D01*
X45621Y-35159D01*
X45890Y-35474D02*
X45890Y-35159D01*
X45965Y-35159D01*
X46010Y-35174D01*
X46040Y-35204D01*
X46055Y-35234D01*
X46070Y-35294D01*
X46070Y-35339D01*
X46055Y-35399D01*
X46040Y-35429D01*
X46010Y-35459D01*
X45965Y-35474D01*
X45890Y-35474D01*
X46205Y-35309D02*
X46310Y-35309D01*
X46355Y-35474D02*
X46205Y-35474D01*
X46205Y-35159D01*
X46355Y-35159D01*
X47484Y-36813D02*
X47379Y-36663D01*
X47304Y-36813D02*
X47304Y-36498D01*
X47424Y-36498D01*
X47454Y-36513D01*
X47469Y-36528D01*
X47484Y-36558D01*
X47484Y-36603D01*
X47469Y-36633D01*
X47454Y-36648D01*
X47424Y-36663D01*
X47304Y-36663D01*
X47604Y-36528D02*
X47619Y-36513D01*
X47649Y-36498D01*
X47724Y-36498D01*
X47754Y-36513D01*
X47769Y-36528D01*
X47784Y-36558D01*
X47784Y-36588D01*
X47769Y-36633D01*
X47589Y-36813D01*
X47784Y-36813D01*
X47934Y-36813D02*
X47994Y-36813D01*
X48024Y-36798D01*
X48039Y-36783D01*
X48069Y-36738D01*
X48084Y-36678D01*
X48084Y-36558D01*
X48069Y-36528D01*
X48054Y-36513D01*
X48024Y-36498D01*
X47964Y-36498D01*
X47934Y-36513D01*
X47919Y-36528D01*
X47904Y-36558D01*
X47904Y-36633D01*
X47919Y-36663D01*
X47934Y-36678D01*
X47964Y-36693D01*
X48024Y-36693D01*
X48054Y-36678D01*
X48069Y-36663D01*
X48084Y-36633D01*
X47499Y-37088D02*
X47319Y-37088D01*
X47409Y-37088D02*
X47409Y-36773D01*
X47379Y-36818D01*
X47349Y-36848D01*
X47319Y-36863D01*
X47694Y-36773D02*
X47724Y-36773D01*
X47754Y-36788D01*
X47769Y-36803D01*
X47784Y-36833D01*
X47799Y-36893D01*
X47799Y-36968D01*
X47784Y-37028D01*
X47769Y-37058D01*
X47754Y-37073D01*
X47724Y-37088D01*
X47694Y-37088D01*
X47664Y-37073D01*
X47649Y-37058D01*
X47634Y-37028D01*
X47619Y-36968D01*
X47619Y-36893D01*
X47634Y-36833D01*
X47649Y-36803D01*
X47664Y-36788D01*
X47694Y-36773D01*
X47934Y-37088D02*
X47934Y-36773D01*
X47964Y-36968D02*
X48054Y-37088D01*
X48054Y-36878D02*
X47934Y-36998D01*
X75065Y-47260D02*
X74960Y-47110D01*
X74885Y-47260D02*
X74885Y-46945D01*
X75005Y-46945D01*
X75035Y-46960D01*
X75050Y-46975D01*
X75065Y-47005D01*
X75065Y-47050D01*
X75050Y-47080D01*
X75035Y-47095D01*
X75005Y-47110D01*
X74885Y-47110D01*
X75245Y-47080D02*
X75215Y-47065D01*
X75200Y-47050D01*
X75185Y-47020D01*
X75185Y-47005D01*
X75200Y-46975D01*
X75215Y-46960D01*
X75245Y-46945D01*
X75305Y-46945D01*
X75335Y-46960D01*
X75350Y-46975D01*
X75365Y-47005D01*
X75365Y-47020D01*
X75350Y-47050D01*
X75335Y-47065D01*
X75305Y-47080D01*
X75245Y-47080D01*
X75215Y-47095D01*
X75200Y-47110D01*
X75185Y-47140D01*
X75185Y-47200D01*
X75200Y-47230D01*
X75215Y-47245D01*
X75245Y-47260D01*
X75305Y-47260D01*
X75335Y-47245D01*
X75350Y-47230D01*
X75365Y-47200D01*
X75365Y-47140D01*
X75350Y-47110D01*
X75335Y-47095D01*
X75305Y-47080D01*
X74930Y-46985D02*
X74750Y-46985D01*
X74840Y-46985D02*
X74840Y-46670D01*
X74810Y-46715D01*
X74780Y-46745D01*
X74750Y-46760D01*
X75125Y-46670D02*
X75155Y-46670D01*
X75185Y-46685D01*
X75200Y-46700D01*
X75215Y-46730D01*
X75230Y-46790D01*
X75230Y-46865D01*
X75215Y-46925D01*
X75200Y-46955D01*
X75185Y-46970D01*
X75155Y-46985D01*
X75125Y-46985D01*
X75095Y-46970D01*
X75080Y-46955D01*
X75065Y-46925D01*
X75050Y-46865D01*
X75050Y-46790D01*
X75065Y-46730D01*
X75080Y-46700D01*
X75095Y-46685D01*
X75125Y-46670D01*
X75365Y-46985D02*
X75365Y-46670D01*
X75395Y-46865D02*
X75485Y-46985D01*
X75485Y-46775D02*
X75365Y-46895D01*
X58673Y-34422D02*
X58523Y-34527D01*
X58673Y-34602D02*
X58358Y-34602D01*
X58358Y-34482D01*
X58373Y-34452D01*
X58388Y-34437D01*
X58418Y-34422D01*
X58463Y-34422D01*
X58493Y-34437D01*
X58508Y-34452D01*
X58523Y-34482D01*
X58523Y-34602D01*
X58673Y-34122D02*
X58673Y-34302D01*
X58673Y-34212D02*
X58358Y-34212D01*
X58403Y-34242D01*
X58433Y-34272D01*
X58448Y-34302D01*
X58633Y-34595D02*
X58633Y-34745D01*
X58783Y-34760D01*
X58768Y-34745D01*
X58753Y-34715D01*
X58753Y-34640D01*
X58768Y-34610D01*
X58783Y-34595D01*
X58813Y-34580D01*
X58888Y-34580D01*
X58918Y-34595D01*
X58933Y-34610D01*
X58948Y-34640D01*
X58948Y-34715D01*
X58933Y-34745D01*
X58918Y-34760D01*
X58948Y-34280D02*
X58948Y-34460D01*
X58948Y-34370D02*
X58633Y-34370D01*
X58678Y-34400D01*
X58708Y-34430D01*
X58723Y-34460D01*
X58633Y-34085D02*
X58633Y-34055D01*
X58648Y-34025D01*
X58663Y-34010D01*
X58693Y-33995D01*
X58753Y-33980D01*
X58828Y-33980D01*
X58888Y-33995D01*
X58918Y-34010D01*
X58933Y-34025D01*
X58948Y-34055D01*
X58948Y-34085D01*
X58933Y-34115D01*
X58918Y-34130D01*
X58888Y-34145D01*
X58828Y-34160D01*
X58753Y-34160D01*
X58693Y-34145D01*
X58663Y-34130D01*
X58648Y-34115D01*
X58633Y-34085D01*
X46185Y-36908D02*
X46170Y-36923D01*
X46125Y-36938D01*
X46095Y-36938D01*
X46050Y-36923D01*
X46020Y-36893D01*
X46005Y-36863D01*
X45990Y-36803D01*
X45990Y-36758D01*
X46005Y-36698D01*
X46020Y-36668D01*
X46050Y-36638D01*
X46095Y-36623D01*
X46125Y-36623D01*
X46170Y-36638D01*
X46185Y-36653D01*
X46485Y-36938D02*
X46305Y-36938D01*
X46395Y-36938D02*
X46395Y-36623D01*
X46365Y-36668D01*
X46335Y-36698D01*
X46305Y-36713D01*
X46665Y-36758D02*
X46635Y-36743D01*
X46620Y-36728D01*
X46605Y-36698D01*
X46605Y-36683D01*
X46620Y-36653D01*
X46635Y-36638D01*
X46665Y-36623D01*
X46725Y-36623D01*
X46755Y-36638D01*
X46770Y-36653D01*
X46785Y-36683D01*
X46785Y-36698D01*
X46770Y-36728D01*
X46755Y-36743D01*
X46725Y-36758D01*
X46665Y-36758D01*
X46635Y-36773D01*
X46620Y-36788D01*
X46605Y-36818D01*
X46605Y-36878D01*
X46620Y-36908D01*
X46635Y-36923D01*
X46665Y-36938D01*
X46725Y-36938D01*
X46755Y-36923D01*
X46770Y-36908D01*
X46785Y-36878D01*
X46785Y-36818D01*
X46770Y-36788D01*
X46755Y-36773D01*
X46725Y-36758D01*
X46850Y-37193D02*
X46850Y-37163D01*
X46865Y-37133D01*
X46880Y-37118D01*
X46910Y-37103D01*
X46970Y-37088D01*
X47045Y-37088D01*
X47105Y-37103D01*
X47135Y-37118D01*
X47150Y-37133D01*
X47165Y-37163D01*
X47165Y-37193D01*
X47150Y-37223D01*
X47135Y-37238D01*
X47105Y-37253D01*
X47045Y-37268D01*
X46970Y-37268D01*
X46910Y-37253D01*
X46880Y-37238D01*
X46865Y-37223D01*
X46850Y-37193D01*
X47135Y-36953D02*
X47150Y-36938D01*
X47165Y-36953D01*
X47150Y-36968D01*
X47135Y-36953D01*
X47165Y-36953D01*
X47165Y-36638D02*
X47165Y-36818D01*
X47165Y-36728D02*
X46850Y-36728D01*
X46895Y-36758D01*
X46925Y-36788D01*
X46940Y-36818D01*
X46955Y-36368D02*
X47165Y-36368D01*
X46955Y-36503D02*
X47120Y-36503D01*
X47150Y-36488D01*
X47165Y-36458D01*
X47165Y-36413D01*
X47150Y-36383D01*
X47135Y-36368D01*
X70498Y-42420D02*
X70483Y-42435D01*
X70438Y-42450D01*
X70408Y-42450D01*
X70363Y-42435D01*
X70333Y-42405D01*
X70318Y-42375D01*
X70303Y-42315D01*
X70303Y-42270D01*
X70318Y-42210D01*
X70333Y-42180D01*
X70363Y-42150D01*
X70408Y-42135D01*
X70438Y-42135D01*
X70483Y-42150D01*
X70498Y-42165D01*
X70768Y-42135D02*
X70708Y-42135D01*
X70678Y-42150D01*
X70663Y-42165D01*
X70633Y-42210D01*
X70618Y-42270D01*
X70618Y-42390D01*
X70633Y-42420D01*
X70648Y-42435D01*
X70678Y-42450D01*
X70738Y-42450D01*
X70768Y-42435D01*
X70783Y-42420D01*
X70798Y-42390D01*
X70798Y-42315D01*
X70783Y-42285D01*
X70768Y-42270D01*
X70738Y-42255D01*
X70678Y-42255D01*
X70648Y-42270D01*
X70633Y-42285D01*
X70618Y-42315D01*
X71013Y-42705D02*
X71013Y-42675D01*
X71028Y-42645D01*
X71043Y-42630D01*
X71073Y-42615D01*
X71133Y-42600D01*
X71208Y-42600D01*
X71268Y-42615D01*
X71298Y-42630D01*
X71313Y-42645D01*
X71328Y-42675D01*
X71328Y-42705D01*
X71313Y-42735D01*
X71298Y-42750D01*
X71268Y-42765D01*
X71208Y-42780D01*
X71133Y-42780D01*
X71073Y-42765D01*
X71043Y-42750D01*
X71028Y-42735D01*
X71013Y-42705D01*
X71298Y-42465D02*
X71313Y-42450D01*
X71328Y-42465D01*
X71313Y-42480D01*
X71298Y-42465D01*
X71328Y-42465D01*
X71328Y-42150D02*
X71328Y-42330D01*
X71328Y-42240D02*
X71013Y-42240D01*
X71058Y-42270D01*
X71088Y-42300D01*
X71103Y-42330D01*
X71118Y-41880D02*
X71328Y-41880D01*
X71118Y-42015D02*
X71283Y-42015D01*
X71313Y-42000D01*
X71328Y-41970D01*
X71328Y-41925D01*
X71313Y-41895D01*
X71298Y-41880D01*
X58020Y-33477D02*
X58035Y-33492D01*
X58050Y-33537D01*
X58050Y-33567D01*
X58035Y-33612D01*
X58005Y-33642D01*
X57975Y-33657D01*
X57915Y-33672D01*
X57870Y-33672D01*
X57810Y-33657D01*
X57780Y-33642D01*
X57750Y-33612D01*
X57735Y-33567D01*
X57735Y-33537D01*
X57750Y-33492D01*
X57765Y-33477D01*
X58050Y-33177D02*
X58050Y-33357D01*
X58050Y-33267D02*
X57735Y-33267D01*
X57780Y-33297D01*
X57810Y-33327D01*
X57825Y-33357D01*
X57540Y-33887D02*
X57570Y-33887D01*
X57600Y-33902D01*
X57615Y-33917D01*
X57630Y-33947D01*
X57645Y-34007D01*
X57645Y-34082D01*
X57630Y-34142D01*
X57615Y-34172D01*
X57600Y-34187D01*
X57570Y-34202D01*
X57540Y-34202D01*
X57510Y-34187D01*
X57495Y-34172D01*
X57480Y-34142D01*
X57465Y-34082D01*
X57465Y-34007D01*
X57480Y-33947D01*
X57495Y-33917D01*
X57510Y-33902D01*
X57540Y-33887D01*
X57780Y-34172D02*
X57795Y-34187D01*
X57780Y-34202D01*
X57765Y-34187D01*
X57780Y-34172D01*
X57780Y-34202D01*
X58095Y-34202D02*
X57915Y-34202D01*
X58005Y-34202D02*
X58005Y-33887D01*
X57975Y-33932D01*
X57945Y-33962D01*
X57915Y-33977D01*
X58365Y-33992D02*
X58365Y-34202D01*
X58230Y-33992D02*
X58230Y-34157D01*
X58245Y-34187D01*
X58275Y-34202D01*
X58320Y-34202D01*
X58350Y-34187D01*
X58365Y-34172D01*
X50973Y-37060D02*
X50988Y-37075D01*
X51003Y-37120D01*
X51003Y-37150D01*
X50988Y-37195D01*
X50958Y-37225D01*
X50928Y-37240D01*
X50868Y-37255D01*
X50823Y-37255D01*
X50763Y-37240D01*
X50733Y-37225D01*
X50703Y-37195D01*
X50688Y-37150D01*
X50688Y-37120D01*
X50703Y-37075D01*
X50718Y-37060D01*
X50688Y-36775D02*
X50688Y-36925D01*
X50838Y-36940D01*
X50823Y-36925D01*
X50808Y-36895D01*
X50808Y-36820D01*
X50823Y-36790D01*
X50838Y-36775D01*
X50868Y-36760D01*
X50943Y-36760D01*
X50973Y-36775D01*
X50988Y-36790D01*
X51003Y-36820D01*
X51003Y-36895D01*
X50988Y-36925D01*
X50973Y-36940D01*
X50493Y-36200D02*
X50508Y-36185D01*
X50538Y-36170D01*
X50613Y-36170D01*
X50643Y-36185D01*
X50658Y-36200D01*
X50673Y-36230D01*
X50673Y-36260D01*
X50658Y-36305D01*
X50478Y-36485D01*
X50673Y-36485D01*
X50793Y-36200D02*
X50808Y-36185D01*
X50838Y-36170D01*
X50913Y-36170D01*
X50943Y-36185D01*
X50958Y-36200D01*
X50973Y-36230D01*
X50973Y-36260D01*
X50958Y-36305D01*
X50778Y-36485D01*
X50973Y-36485D01*
X51108Y-36275D02*
X51108Y-36590D01*
X51108Y-36290D02*
X51138Y-36275D01*
X51198Y-36275D01*
X51228Y-36290D01*
X51243Y-36305D01*
X51258Y-36335D01*
X51258Y-36425D01*
X51243Y-36455D01*
X51228Y-36470D01*
X51198Y-36485D01*
X51138Y-36485D01*
X51108Y-36470D01*
X51760Y-37060D02*
X51775Y-37075D01*
X51790Y-37120D01*
X51790Y-37150D01*
X51775Y-37195D01*
X51745Y-37225D01*
X51715Y-37240D01*
X51655Y-37255D01*
X51610Y-37255D01*
X51550Y-37240D01*
X51520Y-37225D01*
X51490Y-37195D01*
X51475Y-37150D01*
X51475Y-37120D01*
X51490Y-37075D01*
X51505Y-37060D01*
X51580Y-36790D02*
X51790Y-36790D01*
X51460Y-36865D02*
X51685Y-36940D01*
X51685Y-36745D01*
X51280Y-36200D02*
X51295Y-36185D01*
X51325Y-36170D01*
X51400Y-36170D01*
X51430Y-36185D01*
X51445Y-36200D01*
X51460Y-36230D01*
X51460Y-36260D01*
X51445Y-36305D01*
X51265Y-36485D01*
X51460Y-36485D01*
X51580Y-36200D02*
X51595Y-36185D01*
X51625Y-36170D01*
X51700Y-36170D01*
X51730Y-36185D01*
X51745Y-36200D01*
X51760Y-36230D01*
X51760Y-36260D01*
X51745Y-36305D01*
X51565Y-36485D01*
X51760Y-36485D01*
X51895Y-36275D02*
X51895Y-36590D01*
X51895Y-36290D02*
X51925Y-36275D01*
X51985Y-36275D01*
X52015Y-36290D01*
X52030Y-36305D01*
X52045Y-36335D01*
X52045Y-36425D01*
X52030Y-36455D01*
X52015Y-36470D01*
X51985Y-36485D01*
X51925Y-36485D01*
X51895Y-36470D01*
X51532Y-33798D02*
X51517Y-33813D01*
X51472Y-33828D01*
X51442Y-33828D01*
X51397Y-33813D01*
X51367Y-33783D01*
X51352Y-33753D01*
X51337Y-33693D01*
X51337Y-33648D01*
X51352Y-33588D01*
X51367Y-33558D01*
X51397Y-33528D01*
X51442Y-33513D01*
X51472Y-33513D01*
X51517Y-33528D01*
X51532Y-33543D01*
X51652Y-33543D02*
X51667Y-33528D01*
X51697Y-33513D01*
X51772Y-33513D01*
X51802Y-33528D01*
X51817Y-33543D01*
X51832Y-33573D01*
X51832Y-33603D01*
X51817Y-33648D01*
X51637Y-33828D01*
X51832Y-33828D01*
X51202Y-32863D02*
X51232Y-32863D01*
X51262Y-32878D01*
X51277Y-32893D01*
X51292Y-32923D01*
X51307Y-32983D01*
X51307Y-33058D01*
X51292Y-33118D01*
X51277Y-33148D01*
X51262Y-33163D01*
X51232Y-33178D01*
X51202Y-33178D01*
X51172Y-33163D01*
X51157Y-33148D01*
X51142Y-33118D01*
X51127Y-33058D01*
X51127Y-32983D01*
X51142Y-32923D01*
X51157Y-32893D01*
X51172Y-32878D01*
X51202Y-32863D01*
X51442Y-33148D02*
X51457Y-33163D01*
X51442Y-33178D01*
X51427Y-33163D01*
X51442Y-33148D01*
X51442Y-33178D01*
X51757Y-33178D02*
X51577Y-33178D01*
X51667Y-33178D02*
X51667Y-32863D01*
X51637Y-32908D01*
X51607Y-32938D01*
X51577Y-32953D01*
X52027Y-32968D02*
X52027Y-33178D01*
X51892Y-32968D02*
X51892Y-33133D01*
X51907Y-33163D01*
X51937Y-33178D01*
X51982Y-33178D01*
X52012Y-33163D01*
X52027Y-33148D01*
X68193Y-36534D02*
X68178Y-36549D01*
X68133Y-36564D01*
X68103Y-36564D01*
X68058Y-36549D01*
X68028Y-36519D01*
X68013Y-36489D01*
X67998Y-36429D01*
X67998Y-36384D01*
X68013Y-36324D01*
X68028Y-36294D01*
X68058Y-36264D01*
X68103Y-36249D01*
X68133Y-36249D01*
X68178Y-36264D01*
X68193Y-36279D01*
X68493Y-36564D02*
X68313Y-36564D01*
X68403Y-36564D02*
X68403Y-36249D01*
X68373Y-36294D01*
X68343Y-36324D01*
X68313Y-36339D01*
X68613Y-36279D02*
X68628Y-36264D01*
X68658Y-36249D01*
X68733Y-36249D01*
X68763Y-36264D01*
X68778Y-36279D01*
X68793Y-36309D01*
X68793Y-36339D01*
X68778Y-36384D01*
X68598Y-36564D01*
X68793Y-36564D01*
X69113Y-36939D02*
X69113Y-37119D01*
X69113Y-37029D02*
X68798Y-37029D01*
X68843Y-37059D01*
X68873Y-37089D01*
X68888Y-37119D01*
X68798Y-36744D02*
X68798Y-36714D01*
X68813Y-36684D01*
X68828Y-36669D01*
X68858Y-36654D01*
X68918Y-36639D01*
X68993Y-36639D01*
X69053Y-36654D01*
X69083Y-36669D01*
X69098Y-36684D01*
X69113Y-36714D01*
X69113Y-36744D01*
X69098Y-36774D01*
X69083Y-36789D01*
X69053Y-36804D01*
X68993Y-36819D01*
X68918Y-36819D01*
X68858Y-36804D01*
X68828Y-36789D01*
X68813Y-36774D01*
X68798Y-36744D01*
X68798Y-36444D02*
X68798Y-36414D01*
X68813Y-36384D01*
X68828Y-36369D01*
X68858Y-36354D01*
X68918Y-36339D01*
X68993Y-36339D01*
X69053Y-36354D01*
X69083Y-36369D01*
X69098Y-36384D01*
X69113Y-36414D01*
X69113Y-36444D01*
X69098Y-36474D01*
X69083Y-36489D01*
X69053Y-36504D01*
X68993Y-36519D01*
X68918Y-36519D01*
X68858Y-36504D01*
X68828Y-36489D01*
X68813Y-36474D01*
X68798Y-36444D01*
X68798Y-36144D02*
X68798Y-36114D01*
X68813Y-36084D01*
X68828Y-36069D01*
X68858Y-36054D01*
X68918Y-36039D01*
X68993Y-36039D01*
X69053Y-36054D01*
X69083Y-36069D01*
X69098Y-36084D01*
X69113Y-36114D01*
X69113Y-36144D01*
X69098Y-36174D01*
X69083Y-36189D01*
X69053Y-36204D01*
X68993Y-36219D01*
X68918Y-36219D01*
X68858Y-36204D01*
X68828Y-36189D01*
X68813Y-36174D01*
X68798Y-36144D01*
X68903Y-35904D02*
X69218Y-35904D01*
X68918Y-35904D02*
X68903Y-35874D01*
X68903Y-35814D01*
X68918Y-35784D01*
X68933Y-35769D01*
X68963Y-35754D01*
X69053Y-35754D01*
X69083Y-35769D01*
X69098Y-35784D01*
X69113Y-35814D01*
X69113Y-35874D01*
X69098Y-35904D01*
X45952Y-41529D02*
X45952Y-41214D01*
X46282Y-41499D02*
X46267Y-41514D01*
X46222Y-41529D01*
X46192Y-41529D01*
X46147Y-41514D01*
X46117Y-41484D01*
X46102Y-41454D01*
X46087Y-41394D01*
X46087Y-41349D01*
X46102Y-41289D01*
X46117Y-41259D01*
X46147Y-41229D01*
X46192Y-41214D01*
X46222Y-41214D01*
X46267Y-41229D01*
X46282Y-41244D01*
X46462Y-41349D02*
X46432Y-41334D01*
X46417Y-41319D01*
X46402Y-41289D01*
X46402Y-41274D01*
X46417Y-41244D01*
X46432Y-41229D01*
X46462Y-41214D01*
X46522Y-41214D01*
X46552Y-41229D01*
X46567Y-41244D01*
X46582Y-41274D01*
X46582Y-41289D01*
X46567Y-41319D01*
X46552Y-41334D01*
X46522Y-41349D01*
X46462Y-41349D01*
X46432Y-41364D01*
X46417Y-41379D01*
X46402Y-41409D01*
X46402Y-41469D01*
X46417Y-41499D01*
X46432Y-41514D01*
X46462Y-41529D01*
X46522Y-41529D01*
X46552Y-41514D01*
X46567Y-41499D01*
X46582Y-41469D01*
X46582Y-41409D01*
X46567Y-41379D01*
X46552Y-41364D01*
X46522Y-41349D01*
X43080Y-40929D02*
X43080Y-40614D01*
X43185Y-40839D01*
X43290Y-40614D01*
X43290Y-40929D01*
X43500Y-40779D02*
X43500Y-40929D01*
X43395Y-40614D02*
X43500Y-40779D01*
X43605Y-40614D01*
X43635Y-40959D02*
X43875Y-40959D01*
X43920Y-40614D02*
X44115Y-40614D01*
X44010Y-40734D01*
X44055Y-40734D01*
X44085Y-40749D01*
X44100Y-40764D01*
X44115Y-40794D01*
X44115Y-40869D01*
X44100Y-40899D01*
X44085Y-40914D01*
X44055Y-40929D01*
X43965Y-40929D01*
X43935Y-40914D01*
X43920Y-40899D01*
X44175Y-40959D02*
X44415Y-40959D01*
X44445Y-40614D02*
X44625Y-40614D01*
X44535Y-40929D02*
X44535Y-40614D01*
X44730Y-40764D02*
X44835Y-40764D01*
X44880Y-40929D02*
X44730Y-40929D01*
X44730Y-40614D01*
X44880Y-40614D01*
X45194Y-40929D02*
X45089Y-40779D01*
X45014Y-40929D02*
X45014Y-40614D01*
X45134Y-40614D01*
X45164Y-40629D01*
X45179Y-40644D01*
X45194Y-40674D01*
X45194Y-40719D01*
X45179Y-40749D01*
X45164Y-40764D01*
X45134Y-40779D01*
X45014Y-40779D01*
X45329Y-40929D02*
X45329Y-40614D01*
X45434Y-40839D01*
X45539Y-40614D01*
X45539Y-40929D01*
X45689Y-40929D02*
X45689Y-40614D01*
X45839Y-40929D02*
X45839Y-40614D01*
X46019Y-40929D01*
X46019Y-40614D01*
X46154Y-40839D02*
X46304Y-40839D01*
X46124Y-40929D02*
X46229Y-40614D01*
X46334Y-40929D01*
X46589Y-40929D02*
X46439Y-40929D01*
X46439Y-40614D01*
X46619Y-40959D02*
X46859Y-40959D01*
X47114Y-40929D02*
X47009Y-40779D01*
X46934Y-40929D02*
X46934Y-40614D01*
X47054Y-40614D01*
X47084Y-40629D01*
X47099Y-40644D01*
X47114Y-40674D01*
X47114Y-40719D01*
X47099Y-40749D01*
X47084Y-40764D01*
X47054Y-40779D01*
X46934Y-40779D01*
X47249Y-40764D02*
X47354Y-40764D01*
X47399Y-40929D02*
X47249Y-40929D01*
X47249Y-40614D01*
X47399Y-40614D01*
X47699Y-40629D02*
X47669Y-40614D01*
X47624Y-40614D01*
X47579Y-40629D01*
X47549Y-40659D01*
X47534Y-40689D01*
X47519Y-40749D01*
X47519Y-40794D01*
X47534Y-40854D01*
X47549Y-40884D01*
X47579Y-40914D01*
X47624Y-40929D01*
X47654Y-40929D01*
X47699Y-40914D01*
X47714Y-40899D01*
X47714Y-40794D01*
X47654Y-40794D01*
X47849Y-40614D02*
X47849Y-40869D01*
X47864Y-40899D01*
X47879Y-40914D01*
X47909Y-40929D01*
X47969Y-40929D01*
X47999Y-40914D01*
X48014Y-40899D01*
X48029Y-40869D01*
X48029Y-40614D01*
X48329Y-40929D02*
X48179Y-40929D01*
X48179Y-40614D01*
X48419Y-40839D02*
X48569Y-40839D01*
X48389Y-40929D02*
X48494Y-40614D01*
X48599Y-40929D01*
X48659Y-40614D02*
X48839Y-40614D01*
X48749Y-40929D02*
X48749Y-40614D01*
X49004Y-40614D02*
X49064Y-40614D01*
X49094Y-40629D01*
X49124Y-40659D01*
X49139Y-40719D01*
X49139Y-40824D01*
X49124Y-40884D01*
X49094Y-40914D01*
X49064Y-40929D01*
X49004Y-40929D01*
X48974Y-40914D01*
X48944Y-40884D01*
X48929Y-40824D01*
X48929Y-40719D01*
X48944Y-40659D01*
X48974Y-40629D01*
X49004Y-40614D01*
X49454Y-40929D02*
X49349Y-40779D01*
X49274Y-40929D02*
X49274Y-40614D01*
X49394Y-40614D01*
X49424Y-40629D01*
X49439Y-40644D01*
X49454Y-40674D01*
X49454Y-40719D01*
X49439Y-40749D01*
X49424Y-40764D01*
X49394Y-40779D01*
X49274Y-40779D01*
X66752Y-35678D02*
X66857Y-35993D01*
X66962Y-35678D01*
X67247Y-35993D02*
X67142Y-35843D01*
X67067Y-35993D02*
X67067Y-35678D01*
X67187Y-35678D01*
X67217Y-35693D01*
X67232Y-35708D01*
X67247Y-35738D01*
X67247Y-35783D01*
X67232Y-35813D01*
X67217Y-35828D01*
X67187Y-35843D01*
X67067Y-35843D01*
X67547Y-35993D02*
X67367Y-35993D01*
X67457Y-35993D02*
X67457Y-35678D01*
X67427Y-35723D01*
X67397Y-35753D01*
X67367Y-35768D01*
X68406Y-35678D02*
X68511Y-35993D01*
X68616Y-35678D01*
X68901Y-35993D02*
X68796Y-35843D01*
X68721Y-35993D02*
X68721Y-35678D01*
X68841Y-35678D01*
X68871Y-35693D01*
X68886Y-35708D01*
X68901Y-35738D01*
X68901Y-35783D01*
X68886Y-35813D01*
X68871Y-35828D01*
X68841Y-35843D01*
X68721Y-35843D01*
X69021Y-35708D02*
X69036Y-35693D01*
X69066Y-35678D01*
X69141Y-35678D01*
X69171Y-35693D01*
X69186Y-35708D01*
X69201Y-35738D01*
X69201Y-35768D01*
X69186Y-35813D01*
X69006Y-35993D01*
X69201Y-35993D01*
X72184Y-36147D02*
X72199Y-36162D01*
X72214Y-36207D01*
X72214Y-36237D01*
X72199Y-36282D01*
X72169Y-36312D01*
X72139Y-36327D01*
X72079Y-36342D01*
X72034Y-36342D01*
X71974Y-36327D01*
X71944Y-36312D01*
X71914Y-36282D01*
X71899Y-36237D01*
X71899Y-36207D01*
X71914Y-36162D01*
X71929Y-36147D01*
X72214Y-35847D02*
X72214Y-36027D01*
X72214Y-35937D02*
X71899Y-35937D01*
X71944Y-35967D01*
X71974Y-35997D01*
X71989Y-36027D01*
X71899Y-35742D02*
X71899Y-35547D01*
X72019Y-35652D01*
X72019Y-35607D01*
X72034Y-35577D01*
X72049Y-35562D01*
X72079Y-35547D01*
X72154Y-35547D01*
X72184Y-35562D01*
X72199Y-35577D01*
X72214Y-35607D01*
X72214Y-35697D01*
X72199Y-35727D01*
X72184Y-35742D01*
X74655Y-36897D02*
X74655Y-36702D01*
X74775Y-36807D01*
X74775Y-36762D01*
X74790Y-36732D01*
X74805Y-36717D01*
X74835Y-36702D01*
X74910Y-36702D01*
X74940Y-36717D01*
X74955Y-36732D01*
X74970Y-36762D01*
X74970Y-36852D01*
X74955Y-36882D01*
X74940Y-36897D01*
X74655Y-36417D02*
X74655Y-36567D01*
X74805Y-36582D01*
X74790Y-36567D01*
X74775Y-36537D01*
X74775Y-36462D01*
X74790Y-36432D01*
X74805Y-36417D01*
X74835Y-36402D01*
X74910Y-36402D01*
X74940Y-36417D01*
X74955Y-36432D01*
X74970Y-36462D01*
X74970Y-36537D01*
X74955Y-36567D01*
X74940Y-36582D01*
X74655Y-36207D02*
X74655Y-36177D01*
X74670Y-36147D01*
X74685Y-36132D01*
X74715Y-36117D01*
X74775Y-36102D01*
X74850Y-36102D01*
X74910Y-36117D01*
X74940Y-36132D01*
X74955Y-36147D01*
X74970Y-36177D01*
X74970Y-36207D01*
X74955Y-36237D01*
X74940Y-36252D01*
X74910Y-36267D01*
X74850Y-36282D01*
X74775Y-36282D01*
X74715Y-36267D01*
X74685Y-36252D01*
X74670Y-36237D01*
X74655Y-36207D01*
X74655Y-36012D02*
X74970Y-35907D01*
X74655Y-35802D01*
X74970Y-35292D02*
X74970Y-35472D01*
X74970Y-35382D02*
X74655Y-35382D01*
X74700Y-35412D01*
X74730Y-35442D01*
X74745Y-35472D01*
X74760Y-35022D02*
X74970Y-35022D01*
X74760Y-35157D02*
X74925Y-35157D01*
X74955Y-35142D01*
X74970Y-35112D01*
X74970Y-35067D01*
X74955Y-35037D01*
X74940Y-35022D01*
X60210Y-32686D02*
X60210Y-32371D01*
X60330Y-32371D01*
X60360Y-32386D01*
X60375Y-32401D01*
X60390Y-32431D01*
X60390Y-32476D01*
X60375Y-32506D01*
X60360Y-32521D01*
X60330Y-32536D01*
X60210Y-32536D01*
X60525Y-32686D02*
X60525Y-32371D01*
X60600Y-32371D01*
X60645Y-32386D01*
X60675Y-32416D01*
X60690Y-32446D01*
X60705Y-32506D01*
X60705Y-32551D01*
X60690Y-32611D01*
X60675Y-32641D01*
X60645Y-32671D01*
X60600Y-32686D01*
X60525Y-32686D01*
X61005Y-32686D02*
X60825Y-32686D01*
X60915Y-32686D02*
X60915Y-32371D01*
X60885Y-32416D01*
X60855Y-32446D01*
X60825Y-32461D01*
X59085Y-30796D02*
X59085Y-30481D01*
X59205Y-30481D01*
X59235Y-30496D01*
X59250Y-30511D01*
X59265Y-30541D01*
X59265Y-30586D01*
X59250Y-30616D01*
X59235Y-30631D01*
X59205Y-30646D01*
X59085Y-30646D01*
X59400Y-30796D02*
X59400Y-30481D01*
X59400Y-30631D02*
X59580Y-30631D01*
X59580Y-30796D02*
X59580Y-30481D01*
X59790Y-30481D02*
X59850Y-30481D01*
X59880Y-30496D01*
X59910Y-30526D01*
X59925Y-30586D01*
X59925Y-30691D01*
X59910Y-30751D01*
X59880Y-30781D01*
X59850Y-30796D01*
X59790Y-30796D01*
X59760Y-30781D01*
X59730Y-30751D01*
X59715Y-30691D01*
X59715Y-30586D01*
X59730Y-30526D01*
X59760Y-30496D01*
X59790Y-30481D01*
X60015Y-30481D02*
X60195Y-30481D01*
X60105Y-30796D02*
X60105Y-30481D01*
X60360Y-30481D02*
X60420Y-30481D01*
X60450Y-30496D01*
X60480Y-30526D01*
X60495Y-30586D01*
X60495Y-30691D01*
X60480Y-30751D01*
X60450Y-30781D01*
X60420Y-30796D01*
X60360Y-30796D01*
X60330Y-30781D01*
X60300Y-30751D01*
X60285Y-30691D01*
X60285Y-30586D01*
X60300Y-30526D01*
X60330Y-30496D01*
X60360Y-30481D01*
X60555Y-30826D02*
X60795Y-30826D01*
X60870Y-30796D02*
X60870Y-30481D01*
X60945Y-30481D01*
X60990Y-30496D01*
X61020Y-30526D01*
X61035Y-30556D01*
X61050Y-30616D01*
X61050Y-30661D01*
X61035Y-30721D01*
X61020Y-30751D01*
X60990Y-30781D01*
X60945Y-30796D01*
X60870Y-30796D01*
X61185Y-30796D02*
X61185Y-30481D01*
X61395Y-30481D02*
X61455Y-30481D01*
X61485Y-30496D01*
X61515Y-30526D01*
X61530Y-30586D01*
X61530Y-30691D01*
X61515Y-30751D01*
X61485Y-30781D01*
X61455Y-30796D01*
X61395Y-30796D01*
X61365Y-30781D01*
X61335Y-30751D01*
X61320Y-30691D01*
X61320Y-30586D01*
X61335Y-30526D01*
X61365Y-30496D01*
X61395Y-30481D01*
X61665Y-30796D02*
X61665Y-30481D01*
X61740Y-30481D01*
X61785Y-30496D01*
X61815Y-30526D01*
X61830Y-30556D01*
X61845Y-30616D01*
X61845Y-30661D01*
X61830Y-30721D01*
X61815Y-30751D01*
X61785Y-30781D01*
X61740Y-30796D01*
X61665Y-30796D01*
X61980Y-30631D02*
X62085Y-30631D01*
X62130Y-30796D02*
X61980Y-30796D01*
X61980Y-30481D01*
X62130Y-30481D01*
X59367Y-31623D02*
X59667Y-31623D01*
X61513Y-31623D02*
X61813Y-31623D01*
X61663Y-31773D02*
X61663Y-31473D01*
X44996Y-54655D02*
X44996Y-54910D01*
X45011Y-54940D01*
X45026Y-54955D01*
X45056Y-54970D01*
X45116Y-54970D01*
X45146Y-54955D01*
X45161Y-54940D01*
X45176Y-54910D01*
X45176Y-54655D01*
X45296Y-54655D02*
X45506Y-54655D01*
X45371Y-54970D01*
X48727Y-55166D02*
X48727Y-54851D01*
X48907Y-55166D01*
X48907Y-54851D01*
X49056Y-55166D02*
X49056Y-54851D01*
X49176Y-54851D02*
X49386Y-55166D01*
X49386Y-54851D02*
X49176Y-55166D01*
X49506Y-55166D02*
X49506Y-54851D01*
X49656Y-55001D02*
X49761Y-55001D01*
X49806Y-55166D02*
X49656Y-55166D01*
X49656Y-54851D01*
X49806Y-54851D01*
X49866Y-55196D02*
X50106Y-55196D01*
X50181Y-55166D02*
X50181Y-54851D01*
X50331Y-55166D02*
X50331Y-54851D01*
X50511Y-55166D01*
X50511Y-54851D01*
X50586Y-55196D02*
X50826Y-55196D01*
X51066Y-55166D02*
X50886Y-55166D01*
X50976Y-55166D02*
X50976Y-54851D01*
X50946Y-54896D01*
X50916Y-54926D01*
X50886Y-54941D01*
X51336Y-54851D02*
X51276Y-54851D01*
X51246Y-54866D01*
X51231Y-54881D01*
X51201Y-54926D01*
X51186Y-54986D01*
X51186Y-55106D01*
X51201Y-55136D01*
X51216Y-55151D01*
X51246Y-55166D01*
X51306Y-55166D01*
X51336Y-55151D01*
X51351Y-55136D01*
X51366Y-55106D01*
X51366Y-55031D01*
X51351Y-55001D01*
X51336Y-54986D01*
X51306Y-54971D01*
X51246Y-54971D01*
X51216Y-54986D01*
X51201Y-55001D01*
X51186Y-55031D01*
X46569Y-49883D02*
X46344Y-49883D01*
X46456Y-49883D02*
X46456Y-49490D01*
X46419Y-49546D01*
X46381Y-49583D01*
X46344Y-49602D01*
X45341Y-50474D02*
X45603Y-50474D01*
X45434Y-50868D01*
X44908Y-51655D02*
X45151Y-51655D01*
X45020Y-51805D01*
X45076Y-51805D01*
X45114Y-51824D01*
X45133Y-51842D01*
X45151Y-51880D01*
X45151Y-51974D01*
X45133Y-52011D01*
X45114Y-52030D01*
X45076Y-52049D01*
X44964Y-52049D01*
X44926Y-52030D01*
X44908Y-52011D01*
X45243Y-53427D02*
X45206Y-53408D01*
X45187Y-53370D01*
X45187Y-53033D01*
X45941Y-54266D02*
X45941Y-54529D01*
X45847Y-54116D02*
X45753Y-54398D01*
X45997Y-54398D01*
X47101Y-54805D02*
X46914Y-54805D01*
X46895Y-54992D01*
X46914Y-54973D01*
X46951Y-54955D01*
X47045Y-54955D01*
X47082Y-54973D01*
X47101Y-54992D01*
X47120Y-55029D01*
X47120Y-55123D01*
X47101Y-55161D01*
X47082Y-55179D01*
X47045Y-55198D01*
X46951Y-55198D01*
X46914Y-55179D01*
X46895Y-55161D01*
X48460Y-54805D02*
X48385Y-54805D01*
X48348Y-54823D01*
X48329Y-54842D01*
X48292Y-54898D01*
X48273Y-54973D01*
X48273Y-55123D01*
X48292Y-55161D01*
X48310Y-55179D01*
X48348Y-55198D01*
X48423Y-55198D01*
X48460Y-55179D01*
X48479Y-55161D01*
X48498Y-55123D01*
X48498Y-55029D01*
X48479Y-54992D01*
X48460Y-54973D01*
X48423Y-54955D01*
X48348Y-54955D01*
X48310Y-54973D01*
X48292Y-54992D01*
X48273Y-55029D01*
X49533Y-54251D02*
X49551Y-54233D01*
X49589Y-54214D01*
X49683Y-54214D01*
X49720Y-54233D01*
X49739Y-54251D01*
X49758Y-54289D01*
X49758Y-54326D01*
X49739Y-54383D01*
X49514Y-54608D01*
X49758Y-54608D01*
X50326Y-53427D02*
X50326Y-53164D01*
X50326Y-53239D02*
X50344Y-53202D01*
X50363Y-53183D01*
X50401Y-53164D01*
X50438Y-53164D01*
X50474Y-51824D02*
X50436Y-51805D01*
X50418Y-51786D01*
X50399Y-51749D01*
X50399Y-51730D01*
X50418Y-51692D01*
X50436Y-51674D01*
X50474Y-51655D01*
X50549Y-51655D01*
X50586Y-51674D01*
X50605Y-51692D01*
X50624Y-51730D01*
X50624Y-51749D01*
X50605Y-51786D01*
X50586Y-51805D01*
X50549Y-51824D01*
X50474Y-51824D01*
X50436Y-51842D01*
X50418Y-51861D01*
X50399Y-51899D01*
X50399Y-51974D01*
X50418Y-52011D01*
X50436Y-52030D01*
X50474Y-52049D01*
X50549Y-52049D01*
X50586Y-52030D01*
X50605Y-52011D01*
X50624Y-51974D01*
X50624Y-51899D01*
X50605Y-51861D01*
X50586Y-51842D01*
X50549Y-51824D01*
X50003Y-50828D02*
X50078Y-50828D01*
X50116Y-50809D01*
X50134Y-50791D01*
X50172Y-50734D01*
X50191Y-50659D01*
X50191Y-50509D01*
X50172Y-50472D01*
X50153Y-50453D01*
X50116Y-50434D01*
X50041Y-50434D01*
X50003Y-50453D01*
X49985Y-50472D01*
X49966Y-50509D01*
X49966Y-50603D01*
X49985Y-50641D01*
X50003Y-50659D01*
X50041Y-50678D01*
X50116Y-50678D01*
X50153Y-50659D01*
X50172Y-50641D01*
X50191Y-50603D01*
X49075Y-49568D02*
X49113Y-49568D01*
X49150Y-49587D01*
X49169Y-49606D01*
X49188Y-49643D01*
X49206Y-49718D01*
X49206Y-49812D01*
X49188Y-49887D01*
X49169Y-49925D01*
X49150Y-49943D01*
X49113Y-49962D01*
X49075Y-49962D01*
X49038Y-49943D01*
X49019Y-49925D01*
X49000Y-49887D01*
X48982Y-49812D01*
X48982Y-49718D01*
X49000Y-49643D01*
X49019Y-49606D01*
X49038Y-49587D01*
X49075Y-49568D01*
X46959Y-49298D02*
X47146Y-49298D01*
X46921Y-49411D02*
X47052Y-49017D01*
X47184Y-49411D01*
X47315Y-49148D02*
X47315Y-49411D01*
X47315Y-49186D02*
X47334Y-49167D01*
X47371Y-49148D01*
X47427Y-49148D01*
X47465Y-49167D01*
X47484Y-49205D01*
X47484Y-49411D01*
X47727Y-49411D02*
X47690Y-49392D01*
X47671Y-49373D01*
X47652Y-49336D01*
X47652Y-49223D01*
X47671Y-49186D01*
X47690Y-49167D01*
X47727Y-49148D01*
X47784Y-49148D01*
X47821Y-49167D01*
X47840Y-49186D01*
X47859Y-49223D01*
X47859Y-49336D01*
X47840Y-49373D01*
X47821Y-49392D01*
X47784Y-49411D01*
X47727Y-49411D01*
X48196Y-49411D02*
X48196Y-49017D01*
X48196Y-49392D02*
X48158Y-49411D01*
X48083Y-49411D01*
X48046Y-49392D01*
X48027Y-49373D01*
X48008Y-49336D01*
X48008Y-49223D01*
X48027Y-49186D01*
X48046Y-49167D01*
X48083Y-49148D01*
X48158Y-49148D01*
X48196Y-49167D01*
X48533Y-49392D02*
X48496Y-49411D01*
X48421Y-49411D01*
X48383Y-49392D01*
X48365Y-49355D01*
X48365Y-49205D01*
X48383Y-49167D01*
X48421Y-49148D01*
X48496Y-49148D01*
X48533Y-49167D01*
X48552Y-49205D01*
X48552Y-49242D01*
X48365Y-49280D01*
X39531Y-54655D02*
X39531Y-54910D01*
X39546Y-54940D01*
X39561Y-54955D01*
X39591Y-54970D01*
X39651Y-54970D01*
X39681Y-54955D01*
X39696Y-54940D01*
X39711Y-54910D01*
X39711Y-54655D01*
X40026Y-54970D02*
X39846Y-54970D01*
X39936Y-54970D02*
X39936Y-54655D01*
X39906Y-54700D01*
X39876Y-54730D01*
X39846Y-54745D01*
X40221Y-54655D02*
X40251Y-54655D01*
X40281Y-54670D01*
X40296Y-54685D01*
X40311Y-54715D01*
X40326Y-54775D01*
X40326Y-54850D01*
X40311Y-54910D01*
X40296Y-54940D01*
X40281Y-54955D01*
X40251Y-54970D01*
X40221Y-54970D01*
X40191Y-54955D01*
X40176Y-54940D01*
X40161Y-54910D01*
X40146Y-54850D01*
X40146Y-54775D01*
X40161Y-54715D01*
X40176Y-54685D01*
X40191Y-54670D01*
X40221Y-54655D01*
X43412Y-55166D02*
X43412Y-54851D01*
X43592Y-55166D01*
X43592Y-54851D01*
X43742Y-55166D02*
X43742Y-54851D01*
X43862Y-54851D02*
X44071Y-55166D01*
X44071Y-54851D02*
X43862Y-55166D01*
X44191Y-55166D02*
X44191Y-54851D01*
X44341Y-55001D02*
X44446Y-55001D01*
X44491Y-55166D02*
X44341Y-55166D01*
X44341Y-54851D01*
X44491Y-54851D01*
X44551Y-55196D02*
X44791Y-55196D01*
X44866Y-55166D02*
X44866Y-54851D01*
X45016Y-55166D02*
X45016Y-54851D01*
X45196Y-55166D01*
X45196Y-54851D01*
X45271Y-55196D02*
X45511Y-55196D01*
X45751Y-55166D02*
X45571Y-55166D01*
X45661Y-55166D02*
X45661Y-54851D01*
X45631Y-54896D01*
X45601Y-54926D01*
X45571Y-54941D01*
X46021Y-54851D02*
X45961Y-54851D01*
X45931Y-54866D01*
X45916Y-54881D01*
X45886Y-54926D01*
X45871Y-54986D01*
X45871Y-55106D01*
X45886Y-55136D01*
X45901Y-55151D01*
X45931Y-55166D01*
X45991Y-55166D01*
X46021Y-55151D01*
X46036Y-55136D01*
X46051Y-55106D01*
X46051Y-55031D01*
X46036Y-55001D01*
X46021Y-54986D01*
X45991Y-54971D01*
X45931Y-54971D01*
X45901Y-54986D01*
X45886Y-55001D01*
X45871Y-55031D01*
X41254Y-49883D02*
X41029Y-49883D01*
X41141Y-49883D02*
X41141Y-49490D01*
X41104Y-49546D01*
X41066Y-49583D01*
X41029Y-49602D01*
X40026Y-50474D02*
X40288Y-50474D01*
X40119Y-50868D01*
X39593Y-51655D02*
X39836Y-51655D01*
X39705Y-51805D01*
X39761Y-51805D01*
X39799Y-51824D01*
X39818Y-51842D01*
X39836Y-51880D01*
X39836Y-51974D01*
X39818Y-52011D01*
X39799Y-52030D01*
X39761Y-52049D01*
X39649Y-52049D01*
X39611Y-52030D01*
X39593Y-52011D01*
X39928Y-53427D02*
X39891Y-53408D01*
X39872Y-53370D01*
X39872Y-53033D01*
X40626Y-54266D02*
X40626Y-54529D01*
X40532Y-54116D02*
X40438Y-54398D01*
X40682Y-54398D01*
X41786Y-54805D02*
X41599Y-54805D01*
X41580Y-54992D01*
X41599Y-54973D01*
X41636Y-54955D01*
X41730Y-54955D01*
X41767Y-54973D01*
X41786Y-54992D01*
X41805Y-55029D01*
X41805Y-55123D01*
X41786Y-55161D01*
X41767Y-55179D01*
X41730Y-55198D01*
X41636Y-55198D01*
X41599Y-55179D01*
X41580Y-55161D01*
X43145Y-54805D02*
X43070Y-54805D01*
X43033Y-54823D01*
X43014Y-54842D01*
X42977Y-54898D01*
X42958Y-54973D01*
X42958Y-55123D01*
X42977Y-55161D01*
X42995Y-55179D01*
X43033Y-55198D01*
X43108Y-55198D01*
X43145Y-55179D01*
X43164Y-55161D01*
X43183Y-55123D01*
X43183Y-55029D01*
X43164Y-54992D01*
X43145Y-54973D01*
X43108Y-54955D01*
X43033Y-54955D01*
X42995Y-54973D01*
X42977Y-54992D01*
X42958Y-55029D01*
X44218Y-54251D02*
X44236Y-54233D01*
X44274Y-54214D01*
X44368Y-54214D01*
X44405Y-54233D01*
X44424Y-54251D01*
X44443Y-54289D01*
X44443Y-54326D01*
X44424Y-54383D01*
X44199Y-54608D01*
X44443Y-54608D01*
X45011Y-53427D02*
X45011Y-53164D01*
X45011Y-53239D02*
X45029Y-53202D01*
X45048Y-53183D01*
X45086Y-53164D01*
X45123Y-53164D01*
X45159Y-51824D02*
X45121Y-51805D01*
X45103Y-51786D01*
X45084Y-51749D01*
X45084Y-51730D01*
X45103Y-51692D01*
X45121Y-51674D01*
X45159Y-51655D01*
X45234Y-51655D01*
X45271Y-51674D01*
X45290Y-51692D01*
X45309Y-51730D01*
X45309Y-51749D01*
X45290Y-51786D01*
X45271Y-51805D01*
X45234Y-51824D01*
X45159Y-51824D01*
X45121Y-51842D01*
X45103Y-51861D01*
X45084Y-51899D01*
X45084Y-51974D01*
X45103Y-52011D01*
X45121Y-52030D01*
X45159Y-52049D01*
X45234Y-52049D01*
X45271Y-52030D01*
X45290Y-52011D01*
X45309Y-51974D01*
X45309Y-51899D01*
X45290Y-51861D01*
X45271Y-51842D01*
X45234Y-51824D01*
X44688Y-50828D02*
X44763Y-50828D01*
X44801Y-50809D01*
X44820Y-50791D01*
X44857Y-50734D01*
X44876Y-50659D01*
X44876Y-50509D01*
X44857Y-50472D01*
X44838Y-50453D01*
X44801Y-50434D01*
X44726Y-50434D01*
X44688Y-50453D01*
X44670Y-50472D01*
X44651Y-50509D01*
X44651Y-50603D01*
X44670Y-50641D01*
X44688Y-50659D01*
X44726Y-50678D01*
X44801Y-50678D01*
X44838Y-50659D01*
X44857Y-50641D01*
X44876Y-50603D01*
X43760Y-49568D02*
X43798Y-49568D01*
X43835Y-49587D01*
X43854Y-49606D01*
X43873Y-49643D01*
X43892Y-49718D01*
X43892Y-49812D01*
X43873Y-49887D01*
X43854Y-49925D01*
X43835Y-49943D01*
X43798Y-49962D01*
X43760Y-49962D01*
X43723Y-49943D01*
X43704Y-49925D01*
X43685Y-49887D01*
X43667Y-49812D01*
X43667Y-49718D01*
X43685Y-49643D01*
X43704Y-49606D01*
X43723Y-49587D01*
X43760Y-49568D01*
X41644Y-49298D02*
X41831Y-49298D01*
X41606Y-49411D02*
X41737Y-49017D01*
X41869Y-49411D01*
X42000Y-49148D02*
X42000Y-49411D01*
X42000Y-49186D02*
X42019Y-49167D01*
X42056Y-49148D01*
X42112Y-49148D01*
X42150Y-49167D01*
X42169Y-49205D01*
X42169Y-49411D01*
X42412Y-49411D02*
X42375Y-49392D01*
X42356Y-49373D01*
X42337Y-49336D01*
X42337Y-49223D01*
X42356Y-49186D01*
X42375Y-49167D01*
X42412Y-49148D01*
X42469Y-49148D01*
X42506Y-49167D01*
X42525Y-49186D01*
X42544Y-49223D01*
X42544Y-49336D01*
X42525Y-49373D01*
X42506Y-49392D01*
X42469Y-49411D01*
X42412Y-49411D01*
X42881Y-49411D02*
X42881Y-49017D01*
X42881Y-49392D02*
X42844Y-49411D01*
X42769Y-49411D01*
X42731Y-49392D01*
X42712Y-49373D01*
X42694Y-49336D01*
X42694Y-49223D01*
X42712Y-49186D01*
X42731Y-49167D01*
X42769Y-49148D01*
X42844Y-49148D01*
X42881Y-49167D01*
X43218Y-49392D02*
X43181Y-49411D01*
X43106Y-49411D01*
X43068Y-49392D01*
X43050Y-49355D01*
X43050Y-49205D01*
X43068Y-49167D01*
X43106Y-49148D01*
X43181Y-49148D01*
X43218Y-49167D01*
X43237Y-49205D01*
X43237Y-49242D01*
X43050Y-49280D01*
X51982Y-54656D02*
X51982Y-54911D01*
X51997Y-54941D01*
X52012Y-54956D01*
X52042Y-54971D01*
X52102Y-54971D01*
X52132Y-54956D01*
X52147Y-54941D01*
X52162Y-54911D01*
X52162Y-54656D01*
X52327Y-54971D02*
X52387Y-54971D01*
X52417Y-54956D01*
X52432Y-54941D01*
X52462Y-54896D01*
X52477Y-54836D01*
X52477Y-54716D01*
X52462Y-54686D01*
X52447Y-54671D01*
X52417Y-54656D01*
X52357Y-54656D01*
X52327Y-54671D01*
X52312Y-54686D01*
X52297Y-54716D01*
X52297Y-54791D01*
X52312Y-54821D01*
X52327Y-54836D01*
X52357Y-54851D01*
X52417Y-54851D01*
X52447Y-54836D01*
X52462Y-54821D01*
X52477Y-54791D01*
X55713Y-55168D02*
X55713Y-54853D01*
X55893Y-55168D01*
X55893Y-54853D01*
X56043Y-55168D02*
X56043Y-54853D01*
X56163Y-54853D02*
X56373Y-55168D01*
X56373Y-54853D02*
X56163Y-55168D01*
X56493Y-55168D02*
X56493Y-54853D01*
X56643Y-55003D02*
X56748Y-55003D01*
X56793Y-55168D02*
X56643Y-55168D01*
X56643Y-54853D01*
X56793Y-54853D01*
X56853Y-55198D02*
X57093Y-55198D01*
X57168Y-55168D02*
X57168Y-54853D01*
X57318Y-55168D02*
X57318Y-54853D01*
X57498Y-55168D01*
X57498Y-54853D01*
X57573Y-55198D02*
X57813Y-55198D01*
X58053Y-55168D02*
X57873Y-55168D01*
X57963Y-55168D02*
X57963Y-54853D01*
X57933Y-54898D01*
X57903Y-54928D01*
X57873Y-54943D01*
X58323Y-54853D02*
X58263Y-54853D01*
X58233Y-54868D01*
X58218Y-54883D01*
X58188Y-54928D01*
X58173Y-54988D01*
X58173Y-55108D01*
X58188Y-55138D01*
X58203Y-55153D01*
X58233Y-55168D01*
X58293Y-55168D01*
X58323Y-55153D01*
X58338Y-55138D01*
X58353Y-55108D01*
X58353Y-55033D01*
X58338Y-55003D01*
X58323Y-54988D01*
X58293Y-54973D01*
X58233Y-54973D01*
X58203Y-54988D01*
X58188Y-55003D01*
X58173Y-55033D01*
X53555Y-49885D02*
X53330Y-49885D01*
X53443Y-49885D02*
X53443Y-49491D01*
X53405Y-49547D01*
X53368Y-49585D01*
X53330Y-49604D01*
X52327Y-50475D02*
X52590Y-50475D01*
X52421Y-50869D01*
X51894Y-51656D02*
X52138Y-51656D01*
X52007Y-51806D01*
X52063Y-51806D01*
X52100Y-51825D01*
X52119Y-51844D01*
X52138Y-51881D01*
X52138Y-51975D01*
X52119Y-52013D01*
X52100Y-52031D01*
X52063Y-52050D01*
X51950Y-52050D01*
X51913Y-52031D01*
X51894Y-52013D01*
X52230Y-53428D02*
X52192Y-53409D01*
X52174Y-53372D01*
X52174Y-53034D01*
X52927Y-54268D02*
X52927Y-54531D01*
X52834Y-54118D02*
X52740Y-54399D01*
X52983Y-54399D01*
X54088Y-54806D02*
X53900Y-54806D01*
X53882Y-54994D01*
X53900Y-54975D01*
X53938Y-54956D01*
X54031Y-54956D01*
X54069Y-54975D01*
X54088Y-54994D01*
X54106Y-55031D01*
X54106Y-55125D01*
X54088Y-55162D01*
X54069Y-55181D01*
X54031Y-55200D01*
X53938Y-55200D01*
X53900Y-55181D01*
X53882Y-55162D01*
X55447Y-54806D02*
X55372Y-54806D01*
X55334Y-54825D01*
X55316Y-54844D01*
X55278Y-54900D01*
X55259Y-54975D01*
X55259Y-55125D01*
X55278Y-55162D01*
X55297Y-55181D01*
X55334Y-55200D01*
X55409Y-55200D01*
X55447Y-55181D01*
X55466Y-55162D01*
X55484Y-55125D01*
X55484Y-55031D01*
X55466Y-54994D01*
X55447Y-54975D01*
X55409Y-54956D01*
X55334Y-54956D01*
X55297Y-54975D01*
X55278Y-54994D01*
X55259Y-55031D01*
X56519Y-54253D02*
X56538Y-54234D01*
X56576Y-54216D01*
X56669Y-54216D01*
X56707Y-54234D01*
X56726Y-54253D01*
X56744Y-54291D01*
X56744Y-54328D01*
X56726Y-54384D01*
X56501Y-54609D01*
X56744Y-54609D01*
X57312Y-53428D02*
X57312Y-53166D01*
X57312Y-53241D02*
X57331Y-53203D01*
X57350Y-53184D01*
X57387Y-53166D01*
X57425Y-53166D01*
X57460Y-51825D02*
X57423Y-51806D01*
X57404Y-51788D01*
X57385Y-51750D01*
X57385Y-51731D01*
X57404Y-51694D01*
X57423Y-51675D01*
X57460Y-51656D01*
X57535Y-51656D01*
X57573Y-51675D01*
X57592Y-51694D01*
X57610Y-51731D01*
X57610Y-51750D01*
X57592Y-51788D01*
X57573Y-51806D01*
X57535Y-51825D01*
X57460Y-51825D01*
X57423Y-51844D01*
X57404Y-51863D01*
X57385Y-51900D01*
X57385Y-51975D01*
X57404Y-52013D01*
X57423Y-52031D01*
X57460Y-52050D01*
X57535Y-52050D01*
X57573Y-52031D01*
X57592Y-52013D01*
X57610Y-51975D01*
X57610Y-51900D01*
X57592Y-51863D01*
X57573Y-51844D01*
X57535Y-51825D01*
X56990Y-50830D02*
X57065Y-50830D01*
X57102Y-50811D01*
X57121Y-50792D01*
X57159Y-50736D01*
X57177Y-50661D01*
X57177Y-50511D01*
X57159Y-50474D01*
X57140Y-50455D01*
X57102Y-50436D01*
X57027Y-50436D01*
X56990Y-50455D01*
X56971Y-50474D01*
X56952Y-50511D01*
X56952Y-50605D01*
X56971Y-50642D01*
X56990Y-50661D01*
X57027Y-50680D01*
X57102Y-50680D01*
X57140Y-50661D01*
X57159Y-50642D01*
X57177Y-50605D01*
X56062Y-49570D02*
X56099Y-49570D01*
X56137Y-49589D01*
X56156Y-49607D01*
X56174Y-49645D01*
X56193Y-49720D01*
X56193Y-49814D01*
X56174Y-49889D01*
X56156Y-49926D01*
X56137Y-49945D01*
X56099Y-49964D01*
X56062Y-49964D01*
X56024Y-49945D01*
X56006Y-49926D01*
X55987Y-49889D01*
X55968Y-49814D01*
X55968Y-49720D01*
X55987Y-49645D01*
X56006Y-49607D01*
X56024Y-49589D01*
X56062Y-49570D01*
X53945Y-49300D02*
X54133Y-49300D01*
X53908Y-49412D02*
X54039Y-49019D01*
X54170Y-49412D01*
X54301Y-49150D02*
X54301Y-49412D01*
X54301Y-49187D02*
X54320Y-49169D01*
X54358Y-49150D01*
X54414Y-49150D01*
X54451Y-49169D01*
X54470Y-49206D01*
X54470Y-49412D01*
X54714Y-49412D02*
X54676Y-49394D01*
X54658Y-49375D01*
X54639Y-49337D01*
X54639Y-49225D01*
X54658Y-49187D01*
X54676Y-49169D01*
X54714Y-49150D01*
X54770Y-49150D01*
X54808Y-49169D01*
X54826Y-49187D01*
X54845Y-49225D01*
X54845Y-49337D01*
X54826Y-49375D01*
X54808Y-49394D01*
X54770Y-49412D01*
X54714Y-49412D01*
X55183Y-49412D02*
X55183Y-49019D01*
X55183Y-49394D02*
X55145Y-49412D01*
X55070Y-49412D01*
X55033Y-49394D01*
X55014Y-49375D01*
X54995Y-49337D01*
X54995Y-49225D01*
X55014Y-49187D01*
X55033Y-49169D01*
X55070Y-49150D01*
X55145Y-49150D01*
X55183Y-49169D01*
X55520Y-49394D02*
X55483Y-49412D01*
X55408Y-49412D01*
X55370Y-49394D01*
X55351Y-49356D01*
X55351Y-49206D01*
X55370Y-49169D01*
X55408Y-49150D01*
X55483Y-49150D01*
X55520Y-49169D01*
X55539Y-49206D01*
X55539Y-49244D01*
X55351Y-49281D01*
X57297Y-54656D02*
X57297Y-54911D01*
X57312Y-54941D01*
X57327Y-54956D01*
X57357Y-54971D01*
X57417Y-54971D01*
X57447Y-54956D01*
X57462Y-54941D01*
X57477Y-54911D01*
X57477Y-54656D01*
X57762Y-54656D02*
X57702Y-54656D01*
X57672Y-54671D01*
X57657Y-54686D01*
X57627Y-54731D01*
X57612Y-54791D01*
X57612Y-54911D01*
X57627Y-54941D01*
X57642Y-54956D01*
X57672Y-54971D01*
X57732Y-54971D01*
X57762Y-54956D01*
X57777Y-54941D01*
X57792Y-54911D01*
X57792Y-54836D01*
X57777Y-54806D01*
X57762Y-54791D01*
X57732Y-54776D01*
X57672Y-54776D01*
X57642Y-54791D01*
X57627Y-54806D01*
X57612Y-54836D01*
X61028Y-55168D02*
X61028Y-54853D01*
X61208Y-55168D01*
X61208Y-54853D01*
X61358Y-55168D02*
X61358Y-54853D01*
X61478Y-54853D02*
X61688Y-55168D01*
X61688Y-54853D02*
X61478Y-55168D01*
X61808Y-55168D02*
X61808Y-54853D01*
X61958Y-55003D02*
X62063Y-55003D01*
X62108Y-55168D02*
X61958Y-55168D01*
X61958Y-54853D01*
X62108Y-54853D01*
X62168Y-55198D02*
X62408Y-55198D01*
X62483Y-55168D02*
X62483Y-54853D01*
X62633Y-55168D02*
X62633Y-54853D01*
X62813Y-55168D01*
X62813Y-54853D01*
X62888Y-55198D02*
X63128Y-55198D01*
X63368Y-55168D02*
X63188Y-55168D01*
X63278Y-55168D02*
X63278Y-54853D01*
X63248Y-54898D01*
X63218Y-54928D01*
X63188Y-54943D01*
X63638Y-54853D02*
X63578Y-54853D01*
X63548Y-54868D01*
X63533Y-54883D01*
X63503Y-54928D01*
X63488Y-54988D01*
X63488Y-55108D01*
X63503Y-55138D01*
X63518Y-55153D01*
X63548Y-55168D01*
X63608Y-55168D01*
X63638Y-55153D01*
X63653Y-55138D01*
X63668Y-55108D01*
X63668Y-55033D01*
X63653Y-55003D01*
X63638Y-54988D01*
X63608Y-54973D01*
X63548Y-54973D01*
X63518Y-54988D01*
X63503Y-55003D01*
X63488Y-55033D01*
X58870Y-49885D02*
X58645Y-49885D01*
X58758Y-49885D02*
X58758Y-49491D01*
X58720Y-49547D01*
X58683Y-49585D01*
X58645Y-49604D01*
X57642Y-50475D02*
X57905Y-50475D01*
X57736Y-50869D01*
X57209Y-51656D02*
X57453Y-51656D01*
X57322Y-51806D01*
X57378Y-51806D01*
X57415Y-51825D01*
X57434Y-51844D01*
X57453Y-51881D01*
X57453Y-51975D01*
X57434Y-52013D01*
X57415Y-52031D01*
X57378Y-52050D01*
X57265Y-52050D01*
X57228Y-52031D01*
X57209Y-52013D01*
X57545Y-53428D02*
X57507Y-53409D01*
X57489Y-53372D01*
X57489Y-53034D01*
X58242Y-54268D02*
X58242Y-54531D01*
X58148Y-54118D02*
X58055Y-54399D01*
X58298Y-54399D01*
X59403Y-54806D02*
X59215Y-54806D01*
X59196Y-54994D01*
X59215Y-54975D01*
X59253Y-54956D01*
X59346Y-54956D01*
X59384Y-54975D01*
X59403Y-54994D01*
X59421Y-55031D01*
X59421Y-55125D01*
X59403Y-55162D01*
X59384Y-55181D01*
X59346Y-55200D01*
X59253Y-55200D01*
X59215Y-55181D01*
X59196Y-55162D01*
X60762Y-54806D02*
X60687Y-54806D01*
X60649Y-54825D01*
X60631Y-54844D01*
X60593Y-54900D01*
X60574Y-54975D01*
X60574Y-55125D01*
X60593Y-55162D01*
X60612Y-55181D01*
X60649Y-55200D01*
X60724Y-55200D01*
X60762Y-55181D01*
X60781Y-55162D01*
X60799Y-55125D01*
X60799Y-55031D01*
X60781Y-54994D01*
X60762Y-54975D01*
X60724Y-54956D01*
X60649Y-54956D01*
X60612Y-54975D01*
X60593Y-54994D01*
X60574Y-55031D01*
X61834Y-54253D02*
X61853Y-54234D01*
X61891Y-54216D01*
X61984Y-54216D01*
X62022Y-54234D01*
X62040Y-54253D01*
X62059Y-54291D01*
X62059Y-54328D01*
X62040Y-54384D01*
X61816Y-54609D01*
X62059Y-54609D01*
X62627Y-53428D02*
X62627Y-53166D01*
X62627Y-53241D02*
X62646Y-53203D01*
X62665Y-53184D01*
X62702Y-53166D01*
X62740Y-53166D01*
X62775Y-51825D02*
X62738Y-51806D01*
X62719Y-51788D01*
X62700Y-51750D01*
X62700Y-51731D01*
X62719Y-51694D01*
X62738Y-51675D01*
X62775Y-51656D01*
X62850Y-51656D01*
X62888Y-51675D01*
X62907Y-51694D01*
X62925Y-51731D01*
X62925Y-51750D01*
X62907Y-51788D01*
X62888Y-51806D01*
X62850Y-51825D01*
X62775Y-51825D01*
X62738Y-51844D01*
X62719Y-51863D01*
X62700Y-51900D01*
X62700Y-51975D01*
X62719Y-52013D01*
X62738Y-52031D01*
X62775Y-52050D01*
X62850Y-52050D01*
X62888Y-52031D01*
X62907Y-52013D01*
X62925Y-51975D01*
X62925Y-51900D01*
X62907Y-51863D01*
X62888Y-51844D01*
X62850Y-51825D01*
X62305Y-50830D02*
X62380Y-50830D01*
X62417Y-50811D01*
X62436Y-50792D01*
X62474Y-50736D01*
X62492Y-50661D01*
X62492Y-50511D01*
X62474Y-50474D01*
X62455Y-50455D01*
X62417Y-50436D01*
X62342Y-50436D01*
X62305Y-50455D01*
X62286Y-50474D01*
X62267Y-50511D01*
X62267Y-50605D01*
X62286Y-50642D01*
X62305Y-50661D01*
X62342Y-50680D01*
X62417Y-50680D01*
X62455Y-50661D01*
X62474Y-50642D01*
X62492Y-50605D01*
X61377Y-49570D02*
X61414Y-49570D01*
X61452Y-49589D01*
X61471Y-49607D01*
X61489Y-49645D01*
X61508Y-49720D01*
X61508Y-49814D01*
X61489Y-49889D01*
X61471Y-49926D01*
X61452Y-49945D01*
X61414Y-49964D01*
X61377Y-49964D01*
X61339Y-49945D01*
X61321Y-49926D01*
X61302Y-49889D01*
X61283Y-49814D01*
X61283Y-49720D01*
X61302Y-49645D01*
X61321Y-49607D01*
X61339Y-49589D01*
X61377Y-49570D01*
X59260Y-49300D02*
X59448Y-49300D01*
X59223Y-49412D02*
X59354Y-49019D01*
X59485Y-49412D01*
X59616Y-49150D02*
X59616Y-49412D01*
X59616Y-49187D02*
X59635Y-49169D01*
X59673Y-49150D01*
X59729Y-49150D01*
X59766Y-49169D01*
X59785Y-49206D01*
X59785Y-49412D01*
X60029Y-49412D02*
X59991Y-49394D01*
X59973Y-49375D01*
X59954Y-49337D01*
X59954Y-49225D01*
X59973Y-49187D01*
X59991Y-49169D01*
X60029Y-49150D01*
X60085Y-49150D01*
X60123Y-49169D01*
X60141Y-49187D01*
X60160Y-49225D01*
X60160Y-49337D01*
X60141Y-49375D01*
X60123Y-49394D01*
X60085Y-49412D01*
X60029Y-49412D01*
X60498Y-49412D02*
X60498Y-49019D01*
X60498Y-49394D02*
X60460Y-49412D01*
X60385Y-49412D01*
X60348Y-49394D01*
X60329Y-49375D01*
X60310Y-49337D01*
X60310Y-49225D01*
X60329Y-49187D01*
X60348Y-49169D01*
X60385Y-49150D01*
X60460Y-49150D01*
X60498Y-49169D01*
X60835Y-49394D02*
X60798Y-49412D01*
X60723Y-49412D01*
X60685Y-49394D01*
X60666Y-49356D01*
X60666Y-49206D01*
X60685Y-49169D01*
X60723Y-49150D01*
X60798Y-49150D01*
X60835Y-49169D01*
X60854Y-49206D01*
X60854Y-49244D01*
X60666Y-49281D01*
X64286Y-54656D02*
X64286Y-54911D01*
X64301Y-54941D01*
X64316Y-54956D01*
X64346Y-54971D01*
X64405Y-54971D01*
X64435Y-54956D01*
X64450Y-54941D01*
X64465Y-54911D01*
X64465Y-54656D01*
X64660Y-54791D02*
X64630Y-54776D01*
X64615Y-54761D01*
X64600Y-54731D01*
X64600Y-54716D01*
X64615Y-54686D01*
X64630Y-54671D01*
X64660Y-54656D01*
X64720Y-54656D01*
X64750Y-54671D01*
X64765Y-54686D01*
X64780Y-54716D01*
X64780Y-54731D01*
X64765Y-54761D01*
X64750Y-54776D01*
X64720Y-54791D01*
X64660Y-54791D01*
X64630Y-54806D01*
X64615Y-54821D01*
X64600Y-54851D01*
X64600Y-54911D01*
X64615Y-54941D01*
X64630Y-54956D01*
X64660Y-54971D01*
X64720Y-54971D01*
X64750Y-54956D01*
X64765Y-54941D01*
X64780Y-54911D01*
X64780Y-54851D01*
X64765Y-54821D01*
X64750Y-54806D01*
X64720Y-54791D01*
X68016Y-55168D02*
X68016Y-54853D01*
X68196Y-55168D01*
X68196Y-54853D01*
X68346Y-55168D02*
X68346Y-54853D01*
X68466Y-54853D02*
X68676Y-55168D01*
X68676Y-54853D02*
X68466Y-55168D01*
X68796Y-55168D02*
X68796Y-54853D01*
X68946Y-55003D02*
X69051Y-55003D01*
X69096Y-55168D02*
X68946Y-55168D01*
X68946Y-54853D01*
X69096Y-54853D01*
X69156Y-55198D02*
X69396Y-55198D01*
X69471Y-55168D02*
X69471Y-54853D01*
X69621Y-55168D02*
X69621Y-54853D01*
X69801Y-55168D01*
X69801Y-54853D01*
X69876Y-55198D02*
X70116Y-55198D01*
X70356Y-55168D02*
X70176Y-55168D01*
X70266Y-55168D02*
X70266Y-54853D01*
X70236Y-54898D01*
X70206Y-54928D01*
X70176Y-54943D01*
X70626Y-54853D02*
X70566Y-54853D01*
X70536Y-54868D01*
X70521Y-54883D01*
X70491Y-54928D01*
X70476Y-54988D01*
X70476Y-55108D01*
X70491Y-55138D01*
X70506Y-55153D01*
X70536Y-55168D01*
X70596Y-55168D01*
X70626Y-55153D01*
X70641Y-55138D01*
X70656Y-55108D01*
X70656Y-55033D01*
X70641Y-55003D01*
X70626Y-54988D01*
X70596Y-54973D01*
X70536Y-54973D01*
X70506Y-54988D01*
X70491Y-55003D01*
X70476Y-55033D01*
X65858Y-49885D02*
X65633Y-49885D01*
X65746Y-49885D02*
X65746Y-49491D01*
X65708Y-49547D01*
X65671Y-49585D01*
X65633Y-49604D01*
X64630Y-50475D02*
X64893Y-50475D01*
X64724Y-50869D01*
X64197Y-51656D02*
X64441Y-51656D01*
X64310Y-51806D01*
X64366Y-51806D01*
X64404Y-51825D01*
X64422Y-51844D01*
X64441Y-51881D01*
X64441Y-51975D01*
X64422Y-52013D01*
X64404Y-52031D01*
X64366Y-52050D01*
X64254Y-52050D01*
X64216Y-52031D01*
X64197Y-52013D01*
X64533Y-53428D02*
X64495Y-53409D01*
X64477Y-53372D01*
X64477Y-53034D01*
X65230Y-54268D02*
X65230Y-54531D01*
X65137Y-54118D02*
X65043Y-54399D01*
X65287Y-54399D01*
X66391Y-54806D02*
X66203Y-54806D01*
X66185Y-54994D01*
X66203Y-54975D01*
X66241Y-54956D01*
X66335Y-54956D01*
X66372Y-54975D01*
X66391Y-54994D01*
X66410Y-55031D01*
X66410Y-55125D01*
X66391Y-55162D01*
X66372Y-55181D01*
X66335Y-55200D01*
X66241Y-55200D01*
X66203Y-55181D01*
X66185Y-55162D01*
X67750Y-54806D02*
X67675Y-54806D01*
X67638Y-54825D01*
X67619Y-54844D01*
X67581Y-54900D01*
X67563Y-54975D01*
X67563Y-55125D01*
X67581Y-55162D01*
X67600Y-55181D01*
X67638Y-55200D01*
X67713Y-55200D01*
X67750Y-55181D01*
X67769Y-55162D01*
X67788Y-55125D01*
X67788Y-55031D01*
X67769Y-54994D01*
X67750Y-54975D01*
X67713Y-54956D01*
X67638Y-54956D01*
X67600Y-54975D01*
X67581Y-54994D01*
X67563Y-55031D01*
X68822Y-54253D02*
X68841Y-54234D01*
X68879Y-54216D01*
X68972Y-54216D01*
X69010Y-54234D01*
X69029Y-54253D01*
X69047Y-54291D01*
X69047Y-54328D01*
X69029Y-54384D01*
X68804Y-54609D01*
X69047Y-54609D01*
X69615Y-53428D02*
X69615Y-53166D01*
X69615Y-53241D02*
X69634Y-53203D01*
X69653Y-53184D01*
X69690Y-53166D01*
X69728Y-53166D01*
X69764Y-51825D02*
X69726Y-51806D01*
X69707Y-51788D01*
X69689Y-51750D01*
X69689Y-51731D01*
X69707Y-51694D01*
X69726Y-51675D01*
X69764Y-51656D01*
X69839Y-51656D01*
X69876Y-51675D01*
X69895Y-51694D01*
X69914Y-51731D01*
X69914Y-51750D01*
X69895Y-51788D01*
X69876Y-51806D01*
X69839Y-51825D01*
X69764Y-51825D01*
X69726Y-51844D01*
X69707Y-51863D01*
X69689Y-51900D01*
X69689Y-51975D01*
X69707Y-52013D01*
X69726Y-52031D01*
X69764Y-52050D01*
X69839Y-52050D01*
X69876Y-52031D01*
X69895Y-52013D01*
X69914Y-51975D01*
X69914Y-51900D01*
X69895Y-51863D01*
X69876Y-51844D01*
X69839Y-51825D01*
X69293Y-50830D02*
X69368Y-50830D01*
X69405Y-50811D01*
X69424Y-50792D01*
X69462Y-50736D01*
X69480Y-50661D01*
X69480Y-50511D01*
X69462Y-50474D01*
X69443Y-50455D01*
X69405Y-50436D01*
X69331Y-50436D01*
X69293Y-50455D01*
X69274Y-50474D01*
X69256Y-50511D01*
X69256Y-50605D01*
X69274Y-50642D01*
X69293Y-50661D01*
X69331Y-50680D01*
X69405Y-50680D01*
X69443Y-50661D01*
X69462Y-50642D01*
X69480Y-50605D01*
X68365Y-49570D02*
X68403Y-49570D01*
X68440Y-49589D01*
X68459Y-49607D01*
X68477Y-49645D01*
X68496Y-49720D01*
X68496Y-49814D01*
X68477Y-49889D01*
X68459Y-49926D01*
X68440Y-49945D01*
X68403Y-49964D01*
X68365Y-49964D01*
X68328Y-49945D01*
X68309Y-49926D01*
X68290Y-49889D01*
X68271Y-49814D01*
X68271Y-49720D01*
X68290Y-49645D01*
X68309Y-49607D01*
X68328Y-49589D01*
X68365Y-49570D01*
X66248Y-49300D02*
X66436Y-49300D01*
X66211Y-49412D02*
X66342Y-49019D01*
X66473Y-49412D01*
X66605Y-49150D02*
X66605Y-49412D01*
X66605Y-49187D02*
X66623Y-49169D01*
X66661Y-49150D01*
X66717Y-49150D01*
X66755Y-49169D01*
X66773Y-49206D01*
X66773Y-49412D01*
X67017Y-49412D02*
X66980Y-49394D01*
X66961Y-49375D01*
X66942Y-49337D01*
X66942Y-49225D01*
X66961Y-49187D01*
X66980Y-49169D01*
X67017Y-49150D01*
X67073Y-49150D01*
X67111Y-49169D01*
X67130Y-49187D01*
X67148Y-49225D01*
X67148Y-49337D01*
X67130Y-49375D01*
X67111Y-49394D01*
X67073Y-49412D01*
X67017Y-49412D01*
X67486Y-49412D02*
X67486Y-49019D01*
X67486Y-49394D02*
X67448Y-49412D01*
X67373Y-49412D01*
X67336Y-49394D01*
X67317Y-49375D01*
X67298Y-49337D01*
X67298Y-49225D01*
X67317Y-49187D01*
X67336Y-49169D01*
X67373Y-49150D01*
X67448Y-49150D01*
X67486Y-49169D01*
X67823Y-49394D02*
X67786Y-49412D01*
X67711Y-49412D01*
X67673Y-49394D01*
X67654Y-49356D01*
X67654Y-49206D01*
X67673Y-49169D01*
X67711Y-49150D01*
X67786Y-49150D01*
X67823Y-49169D01*
X67842Y-49206D01*
X67842Y-49244D01*
X67654Y-49281D01*
X69600Y-54656D02*
X69600Y-54911D01*
X69615Y-54941D01*
X69630Y-54956D01*
X69660Y-54971D01*
X69720Y-54971D01*
X69750Y-54956D01*
X69765Y-54941D01*
X69780Y-54911D01*
X69780Y-54656D01*
X70080Y-54656D02*
X69930Y-54656D01*
X69915Y-54806D01*
X69930Y-54791D01*
X69960Y-54776D01*
X70035Y-54776D01*
X70065Y-54791D01*
X70080Y-54806D01*
X70095Y-54836D01*
X70095Y-54911D01*
X70080Y-54941D01*
X70065Y-54956D01*
X70035Y-54971D01*
X69960Y-54971D01*
X69930Y-54956D01*
X69915Y-54941D01*
X73331Y-55168D02*
X73331Y-54853D01*
X73511Y-55168D01*
X73511Y-54853D01*
X73661Y-55168D02*
X73661Y-54853D01*
X73781Y-54853D02*
X73991Y-55168D01*
X73991Y-54853D02*
X73781Y-55168D01*
X74111Y-55168D02*
X74111Y-54853D01*
X74261Y-55003D02*
X74366Y-55003D01*
X74411Y-55168D02*
X74261Y-55168D01*
X74261Y-54853D01*
X74411Y-54853D01*
X74471Y-55198D02*
X74711Y-55198D01*
X74786Y-55168D02*
X74786Y-54853D01*
X74936Y-55168D02*
X74936Y-54853D01*
X75116Y-55168D01*
X75116Y-54853D01*
X75191Y-55198D02*
X75431Y-55198D01*
X75671Y-55168D02*
X75491Y-55168D01*
X75581Y-55168D02*
X75581Y-54853D01*
X75551Y-54898D01*
X75521Y-54928D01*
X75491Y-54943D01*
X75941Y-54853D02*
X75881Y-54853D01*
X75851Y-54868D01*
X75836Y-54883D01*
X75806Y-54928D01*
X75791Y-54988D01*
X75791Y-55108D01*
X75806Y-55138D01*
X75821Y-55153D01*
X75851Y-55168D01*
X75911Y-55168D01*
X75941Y-55153D01*
X75956Y-55138D01*
X75971Y-55108D01*
X75971Y-55033D01*
X75956Y-55003D01*
X75941Y-54988D01*
X75911Y-54973D01*
X75851Y-54973D01*
X75821Y-54988D01*
X75806Y-55003D01*
X75791Y-55033D01*
X71173Y-49885D02*
X70948Y-49885D01*
X71061Y-49885D02*
X71061Y-49491D01*
X71023Y-49547D01*
X70986Y-49585D01*
X70948Y-49604D01*
X69945Y-50475D02*
X70208Y-50475D01*
X70039Y-50869D01*
X69512Y-51656D02*
X69756Y-51656D01*
X69625Y-51806D01*
X69681Y-51806D01*
X69719Y-51825D01*
X69737Y-51844D01*
X69756Y-51881D01*
X69756Y-51975D01*
X69737Y-52013D01*
X69719Y-52031D01*
X69681Y-52050D01*
X69569Y-52050D01*
X69531Y-52031D01*
X69512Y-52013D01*
X69848Y-53428D02*
X69810Y-53409D01*
X69792Y-53372D01*
X69792Y-53034D01*
X70545Y-54268D02*
X70545Y-54531D01*
X70452Y-54118D02*
X70358Y-54399D01*
X70602Y-54399D01*
X71706Y-54806D02*
X71518Y-54806D01*
X71500Y-54994D01*
X71518Y-54975D01*
X71556Y-54956D01*
X71650Y-54956D01*
X71687Y-54975D01*
X71706Y-54994D01*
X71725Y-55031D01*
X71725Y-55125D01*
X71706Y-55162D01*
X71687Y-55181D01*
X71650Y-55200D01*
X71556Y-55200D01*
X71518Y-55181D01*
X71500Y-55162D01*
X73065Y-54806D02*
X72990Y-54806D01*
X72953Y-54825D01*
X72934Y-54844D01*
X72896Y-54900D01*
X72878Y-54975D01*
X72878Y-55125D01*
X72896Y-55162D01*
X72915Y-55181D01*
X72953Y-55200D01*
X73028Y-55200D01*
X73065Y-55181D01*
X73084Y-55162D01*
X73103Y-55125D01*
X73103Y-55031D01*
X73084Y-54994D01*
X73065Y-54975D01*
X73028Y-54956D01*
X72953Y-54956D01*
X72915Y-54975D01*
X72896Y-54994D01*
X72878Y-55031D01*
X74137Y-54253D02*
X74156Y-54234D01*
X74194Y-54216D01*
X74287Y-54216D01*
X74325Y-54234D01*
X74344Y-54253D01*
X74362Y-54291D01*
X74362Y-54328D01*
X74344Y-54384D01*
X74119Y-54609D01*
X74362Y-54609D01*
X74930Y-53428D02*
X74930Y-53166D01*
X74930Y-53241D02*
X74949Y-53203D01*
X74968Y-53184D01*
X75005Y-53166D01*
X75043Y-53166D01*
X75079Y-51825D02*
X75041Y-51806D01*
X75022Y-51788D01*
X75004Y-51750D01*
X75004Y-51731D01*
X75022Y-51694D01*
X75041Y-51675D01*
X75079Y-51656D01*
X75154Y-51656D01*
X75191Y-51675D01*
X75210Y-51694D01*
X75229Y-51731D01*
X75229Y-51750D01*
X75210Y-51788D01*
X75191Y-51806D01*
X75154Y-51825D01*
X75079Y-51825D01*
X75041Y-51844D01*
X75022Y-51863D01*
X75004Y-51900D01*
X75004Y-51975D01*
X75022Y-52013D01*
X75041Y-52031D01*
X75079Y-52050D01*
X75154Y-52050D01*
X75191Y-52031D01*
X75210Y-52013D01*
X75229Y-51975D01*
X75229Y-51900D01*
X75210Y-51863D01*
X75191Y-51844D01*
X75154Y-51825D01*
X74608Y-50830D02*
X74683Y-50830D01*
X74720Y-50811D01*
X74739Y-50792D01*
X74777Y-50736D01*
X74795Y-50661D01*
X74795Y-50511D01*
X74777Y-50474D01*
X74758Y-50455D01*
X74720Y-50436D01*
X74645Y-50436D01*
X74608Y-50455D01*
X74589Y-50474D01*
X74570Y-50511D01*
X74570Y-50605D01*
X74589Y-50642D01*
X74608Y-50661D01*
X74645Y-50680D01*
X74720Y-50680D01*
X74758Y-50661D01*
X74777Y-50642D01*
X74795Y-50605D01*
X73680Y-49570D02*
X73717Y-49570D01*
X73755Y-49589D01*
X73774Y-49607D01*
X73792Y-49645D01*
X73811Y-49720D01*
X73811Y-49814D01*
X73792Y-49889D01*
X73774Y-49926D01*
X73755Y-49945D01*
X73717Y-49964D01*
X73680Y-49964D01*
X73642Y-49945D01*
X73624Y-49926D01*
X73605Y-49889D01*
X73586Y-49814D01*
X73586Y-49720D01*
X73605Y-49645D01*
X73624Y-49607D01*
X73642Y-49589D01*
X73680Y-49570D01*
X71563Y-49300D02*
X71751Y-49300D01*
X71526Y-49412D02*
X71657Y-49019D01*
X71788Y-49412D01*
X71920Y-49150D02*
X71920Y-49412D01*
X71920Y-49187D02*
X71938Y-49169D01*
X71976Y-49150D01*
X72032Y-49150D01*
X72070Y-49169D01*
X72088Y-49206D01*
X72088Y-49412D01*
X72332Y-49412D02*
X72295Y-49394D01*
X72276Y-49375D01*
X72257Y-49337D01*
X72257Y-49225D01*
X72276Y-49187D01*
X72295Y-49169D01*
X72332Y-49150D01*
X72388Y-49150D01*
X72426Y-49169D01*
X72444Y-49187D01*
X72463Y-49225D01*
X72463Y-49337D01*
X72444Y-49375D01*
X72426Y-49394D01*
X72388Y-49412D01*
X72332Y-49412D01*
X72801Y-49412D02*
X72801Y-49019D01*
X72801Y-49394D02*
X72763Y-49412D01*
X72688Y-49412D01*
X72651Y-49394D01*
X72632Y-49375D01*
X72613Y-49337D01*
X72613Y-49225D01*
X72632Y-49187D01*
X72651Y-49169D01*
X72688Y-49150D01*
X72763Y-49150D01*
X72801Y-49169D01*
X73138Y-49394D02*
X73101Y-49412D01*
X73026Y-49412D01*
X72988Y-49394D01*
X72969Y-49356D01*
X72969Y-49206D01*
X72988Y-49169D01*
X73026Y-49150D01*
X73101Y-49150D01*
X73138Y-49169D01*
X73157Y-49206D01*
X73157Y-49244D01*
X72969Y-49281D01*
X45508Y-26127D02*
X45508Y-26382D01*
X45523Y-26412D01*
X45538Y-26427D01*
X45568Y-26442D01*
X45628Y-26442D01*
X45658Y-26427D01*
X45673Y-26412D01*
X45688Y-26382D01*
X45688Y-26127D01*
X46002Y-26442D02*
X45823Y-26442D01*
X45913Y-26442D02*
X45913Y-26127D01*
X45883Y-26172D01*
X45853Y-26202D01*
X45823Y-26217D01*
X45303Y-24733D02*
X45303Y-24418D01*
X45483Y-24733D01*
X45483Y-24418D01*
X45633Y-24568D02*
X45738Y-24568D01*
X45783Y-24733D02*
X45633Y-24733D01*
X45633Y-24418D01*
X45783Y-24418D01*
X45978Y-24418D02*
X46038Y-24418D01*
X46068Y-24433D01*
X46098Y-24463D01*
X46113Y-24523D01*
X46113Y-24628D01*
X46098Y-24688D01*
X46068Y-24718D01*
X46038Y-24733D01*
X45978Y-24733D01*
X45948Y-24718D01*
X45918Y-24688D01*
X45903Y-24628D01*
X45903Y-24523D01*
X45918Y-24463D01*
X45948Y-24433D01*
X45978Y-24418D01*
X46248Y-24733D02*
X46248Y-24418D01*
X46428Y-24733D01*
X46428Y-24418D01*
X48067Y-26127D02*
X48067Y-26382D01*
X48082Y-26412D01*
X48097Y-26427D01*
X48127Y-26442D01*
X48187Y-26442D01*
X48217Y-26427D01*
X48232Y-26412D01*
X48247Y-26382D01*
X48247Y-26127D01*
X48382Y-26157D02*
X48397Y-26142D01*
X48427Y-26127D01*
X48502Y-26127D01*
X48532Y-26142D01*
X48547Y-26157D01*
X48562Y-26187D01*
X48562Y-26217D01*
X48547Y-26262D01*
X48367Y-26442D01*
X48562Y-26442D01*
X47862Y-24733D02*
X47862Y-24418D01*
X48042Y-24733D01*
X48042Y-24418D01*
X48192Y-24568D02*
X48297Y-24568D01*
X48342Y-24733D02*
X48192Y-24733D01*
X48192Y-24418D01*
X48342Y-24418D01*
X48537Y-24418D02*
X48597Y-24418D01*
X48627Y-24433D01*
X48657Y-24463D01*
X48672Y-24523D01*
X48672Y-24628D01*
X48657Y-24688D01*
X48627Y-24718D01*
X48597Y-24733D01*
X48537Y-24733D01*
X48507Y-24718D01*
X48477Y-24688D01*
X48462Y-24628D01*
X48462Y-24523D01*
X48477Y-24463D01*
X48507Y-24433D01*
X48537Y-24418D01*
X48807Y-24733D02*
X48807Y-24418D01*
X48987Y-24733D01*
X48987Y-24418D01*
X40934Y-32997D02*
X40949Y-33012D01*
X40964Y-33057D01*
X40964Y-33087D01*
X40949Y-33132D01*
X40919Y-33162D01*
X40889Y-33177D01*
X40829Y-33192D01*
X40784Y-33192D01*
X40724Y-33177D01*
X40694Y-33162D01*
X40664Y-33132D01*
X40649Y-33087D01*
X40649Y-33057D01*
X40664Y-33012D01*
X40679Y-32997D01*
X40964Y-32697D02*
X40964Y-32877D01*
X40964Y-32787D02*
X40649Y-32787D01*
X40694Y-32817D01*
X40724Y-32847D01*
X40739Y-32877D01*
X40754Y-32427D02*
X40964Y-32427D01*
X40634Y-32502D02*
X40859Y-32577D01*
X40859Y-32382D01*
X40157Y-34399D02*
X40157Y-34549D01*
X40306Y-34564D01*
X40291Y-34549D01*
X40276Y-34519D01*
X40276Y-34444D01*
X40291Y-34414D01*
X40306Y-34399D01*
X40336Y-34384D01*
X40411Y-34384D01*
X40441Y-34399D01*
X40456Y-34414D01*
X40471Y-34444D01*
X40471Y-34519D01*
X40456Y-34549D01*
X40441Y-34564D01*
X40441Y-34249D02*
X40456Y-34234D01*
X40471Y-34249D01*
X40456Y-34264D01*
X40441Y-34249D01*
X40471Y-34249D01*
X40157Y-33949D02*
X40157Y-34099D01*
X40306Y-34114D01*
X40291Y-34099D01*
X40276Y-34069D01*
X40276Y-33994D01*
X40291Y-33964D01*
X40306Y-33949D01*
X40336Y-33934D01*
X40411Y-33934D01*
X40441Y-33949D01*
X40456Y-33964D01*
X40471Y-33994D01*
X40471Y-34069D01*
X40456Y-34099D01*
X40441Y-34114D01*
X40157Y-33844D02*
X40471Y-33739D01*
X40157Y-33634D01*
X40157Y-33229D02*
X40157Y-33199D01*
X40172Y-33169D01*
X40187Y-33154D01*
X40217Y-33139D01*
X40276Y-33124D01*
X40351Y-33124D01*
X40411Y-33139D01*
X40441Y-33154D01*
X40456Y-33169D01*
X40471Y-33199D01*
X40471Y-33229D01*
X40456Y-33259D01*
X40441Y-33274D01*
X40411Y-33289D01*
X40351Y-33304D01*
X40276Y-33304D01*
X40217Y-33289D01*
X40187Y-33274D01*
X40172Y-33259D01*
X40157Y-33229D01*
X40441Y-32989D02*
X40456Y-32974D01*
X40471Y-32989D01*
X40456Y-33004D01*
X40441Y-32989D01*
X40471Y-32989D01*
X40471Y-32674D02*
X40471Y-32854D01*
X40471Y-32764D02*
X40157Y-32764D01*
X40202Y-32794D01*
X40232Y-32824D01*
X40247Y-32854D01*
X40306Y-32434D02*
X40306Y-32539D01*
X40471Y-32539D02*
X40157Y-32539D01*
X40157Y-32389D01*
X42617Y-36488D02*
X42617Y-36188D01*
X42767Y-36338D02*
X42467Y-36338D01*
X42617Y-33535D02*
X42617Y-33235D01*
X45973Y-33463D02*
X46288Y-33253D01*
X45973Y-33253D02*
X46288Y-33463D01*
X46003Y-33148D02*
X45988Y-33133D01*
X45973Y-33103D01*
X45973Y-33028D01*
X45988Y-32998D01*
X46003Y-32983D01*
X46033Y-32968D01*
X46063Y-32968D01*
X46108Y-32983D01*
X46288Y-33163D01*
X46288Y-32968D01*
X45481Y-34014D02*
X45481Y-33819D01*
X45601Y-33924D01*
X45601Y-33879D01*
X45616Y-33849D01*
X45631Y-33834D01*
X45661Y-33819D01*
X45736Y-33819D01*
X45766Y-33834D01*
X45781Y-33849D01*
X45796Y-33879D01*
X45796Y-33969D01*
X45781Y-33999D01*
X45766Y-34014D01*
X45511Y-33699D02*
X45496Y-33684D01*
X45481Y-33654D01*
X45481Y-33579D01*
X45496Y-33549D01*
X45511Y-33534D01*
X45541Y-33519D01*
X45571Y-33519D01*
X45616Y-33534D01*
X45796Y-33714D01*
X45796Y-33519D01*
X45766Y-33384D02*
X45781Y-33369D01*
X45796Y-33384D01*
X45781Y-33399D01*
X45766Y-33384D01*
X45796Y-33384D01*
X45481Y-33264D02*
X45481Y-33054D01*
X45796Y-33189D01*
X45481Y-32799D02*
X45481Y-32859D01*
X45496Y-32889D01*
X45511Y-32904D01*
X45556Y-32934D01*
X45616Y-32949D01*
X45736Y-32949D01*
X45766Y-32934D01*
X45781Y-32919D01*
X45796Y-32889D01*
X45796Y-32829D01*
X45781Y-32799D01*
X45766Y-32784D01*
X45736Y-32769D01*
X45661Y-32769D01*
X45631Y-32784D01*
X45616Y-32799D01*
X45601Y-32829D01*
X45601Y-32889D01*
X45616Y-32919D01*
X45631Y-32934D01*
X45661Y-32949D01*
X45616Y-32589D02*
X45601Y-32619D01*
X45586Y-32634D01*
X45556Y-32649D01*
X45541Y-32649D01*
X45511Y-32634D01*
X45496Y-32619D01*
X45481Y-32589D01*
X45481Y-32529D01*
X45496Y-32500D01*
X45511Y-32485D01*
X45541Y-32470D01*
X45556Y-32470D01*
X45586Y-32485D01*
X45601Y-32500D01*
X45616Y-32529D01*
X45616Y-32589D01*
X45631Y-32619D01*
X45646Y-32634D01*
X45676Y-32649D01*
X45736Y-32649D01*
X45766Y-32634D01*
X45781Y-32619D01*
X45796Y-32589D01*
X45796Y-32529D01*
X45781Y-32500D01*
X45766Y-32485D01*
X45736Y-32470D01*
X45676Y-32470D01*
X45646Y-32485D01*
X45631Y-32500D01*
X45616Y-32529D01*
X45796Y-32335D02*
X45481Y-32335D01*
X45676Y-32305D02*
X45796Y-32215D01*
X45586Y-32215D02*
X45706Y-32335D01*
X45796Y-32080D02*
X45481Y-32080D01*
X45631Y-32080D02*
X45631Y-31900D01*
X45796Y-31900D02*
X45481Y-31900D01*
X45586Y-31780D02*
X45586Y-31615D01*
X45796Y-31780D01*
X45796Y-31615D01*
X52027Y-35727D02*
X52342Y-35517D01*
X52027Y-35517D02*
X52342Y-35727D01*
X52342Y-35232D02*
X52342Y-35412D01*
X52342Y-35322D02*
X52027Y-35322D01*
X52072Y-35352D01*
X52102Y-35382D01*
X52117Y-35412D01*
X50491Y-36004D02*
X50491Y-36184D01*
X50491Y-36094D02*
X50176Y-36094D01*
X50221Y-36124D01*
X50251Y-36154D01*
X50266Y-36184D01*
X50206Y-35884D02*
X50191Y-35869D01*
X50176Y-35839D01*
X50176Y-35764D01*
X50191Y-35734D01*
X50206Y-35719D01*
X50236Y-35704D01*
X50266Y-35704D01*
X50311Y-35719D01*
X50491Y-35899D01*
X50491Y-35704D01*
X50491Y-35569D02*
X50176Y-35569D01*
X50401Y-35464D01*
X50176Y-35359D01*
X50491Y-35359D01*
X50491Y-35209D02*
X50176Y-35209D01*
X50326Y-35209D02*
X50326Y-35029D01*
X50491Y-35029D02*
X50176Y-35029D01*
X50281Y-34910D02*
X50281Y-34745D01*
X50491Y-34910D01*
X50491Y-34745D01*
X59108Y-35540D02*
X59108Y-35225D01*
X59228Y-35225D01*
X59258Y-35240D01*
X59273Y-35255D01*
X59288Y-35285D01*
X59288Y-35330D01*
X59273Y-35360D01*
X59258Y-35375D01*
X59228Y-35390D01*
X59108Y-35390D01*
X59588Y-35540D02*
X59408Y-35540D01*
X59498Y-35540D02*
X59498Y-35225D01*
X59468Y-35270D01*
X59438Y-35300D01*
X59408Y-35315D01*
X58673Y-37833D02*
X58658Y-37848D01*
X58613Y-37863D01*
X58583Y-37863D01*
X58538Y-37848D01*
X58508Y-37818D01*
X58493Y-37788D01*
X58478Y-37728D01*
X58478Y-37683D01*
X58493Y-37623D01*
X58508Y-37593D01*
X58538Y-37563D01*
X58583Y-37548D01*
X58613Y-37548D01*
X58658Y-37563D01*
X58673Y-37578D01*
X58868Y-37548D02*
X58928Y-37548D01*
X58958Y-37563D01*
X58988Y-37593D01*
X59003Y-37653D01*
X59003Y-37758D01*
X58988Y-37818D01*
X58958Y-37848D01*
X58928Y-37863D01*
X58868Y-37863D01*
X58838Y-37848D01*
X58808Y-37818D01*
X58793Y-37758D01*
X58793Y-37653D01*
X58808Y-37593D01*
X58838Y-37563D01*
X58868Y-37548D01*
X59138Y-37863D02*
X59138Y-37548D01*
X59318Y-37863D01*
X59318Y-37548D01*
X59468Y-37863D02*
X59468Y-37548D01*
X59648Y-37863D01*
X59648Y-37548D01*
X59723Y-37893D02*
X59962Y-37893D01*
X60172Y-37548D02*
X60112Y-37548D01*
X60082Y-37563D01*
X60067Y-37578D01*
X60037Y-37623D01*
X60022Y-37683D01*
X60022Y-37803D01*
X60037Y-37833D01*
X60052Y-37848D01*
X60082Y-37863D01*
X60142Y-37863D01*
X60172Y-37848D01*
X60187Y-37833D01*
X60202Y-37803D01*
X60202Y-37728D01*
X60187Y-37698D01*
X60172Y-37683D01*
X60142Y-37668D01*
X60082Y-37668D01*
X60052Y-37683D01*
X60037Y-37698D01*
X60022Y-37728D01*
X52489Y-49287D02*
X52174Y-49287D01*
X52489Y-49107D02*
X52309Y-49242D01*
X52174Y-49107D02*
X52354Y-49287D01*
X52174Y-49002D02*
X52174Y-48807D01*
X52294Y-48912D01*
X52294Y-48867D01*
X52309Y-48837D01*
X52324Y-48822D01*
X52354Y-48807D01*
X52429Y-48807D01*
X52459Y-48822D01*
X52474Y-48837D01*
X52489Y-48867D01*
X52489Y-48957D01*
X52474Y-48987D01*
X52459Y-49002D01*
X50806Y-49722D02*
X50821Y-49737D01*
X50836Y-49782D01*
X50836Y-49812D01*
X50821Y-49857D01*
X50791Y-49887D01*
X50761Y-49902D01*
X50701Y-49917D01*
X50656Y-49917D01*
X50596Y-49902D01*
X50566Y-49887D01*
X50536Y-49857D01*
X50521Y-49812D01*
X50521Y-49782D01*
X50536Y-49737D01*
X50551Y-49722D01*
X50521Y-49527D02*
X50521Y-49467D01*
X50536Y-49437D01*
X50566Y-49407D01*
X50626Y-49392D01*
X50731Y-49392D01*
X50791Y-49407D01*
X50821Y-49437D01*
X50836Y-49467D01*
X50836Y-49527D01*
X50821Y-49557D01*
X50791Y-49587D01*
X50731Y-49602D01*
X50626Y-49602D01*
X50566Y-49587D01*
X50536Y-49557D01*
X50521Y-49527D01*
X50836Y-49257D02*
X50521Y-49257D01*
X50836Y-49077D01*
X50521Y-49077D01*
X50836Y-48927D02*
X50521Y-48927D01*
X50836Y-48747D01*
X50521Y-48747D01*
X50866Y-48672D02*
X50866Y-48432D01*
X50521Y-48387D02*
X50521Y-48192D01*
X50641Y-48297D01*
X50641Y-48252D01*
X50656Y-48222D01*
X50671Y-48207D01*
X50701Y-48192D01*
X50776Y-48192D01*
X50806Y-48207D01*
X50821Y-48222D01*
X50836Y-48252D01*
X50836Y-48342D01*
X50821Y-48372D01*
X50806Y-48387D01*
X39300Y-26137D02*
X38985Y-26137D01*
X39300Y-25958D02*
X39120Y-26092D01*
X38985Y-25958D02*
X39165Y-26137D01*
X39015Y-25838D02*
X39000Y-25823D01*
X38985Y-25793D01*
X38985Y-25718D01*
X39000Y-25688D01*
X39015Y-25673D01*
X39045Y-25658D01*
X39075Y-25658D01*
X39120Y-25673D01*
X39300Y-25853D01*
X39300Y-25658D01*
X37617Y-26572D02*
X37632Y-26587D01*
X37647Y-26632D01*
X37647Y-26662D01*
X37632Y-26707D01*
X37602Y-26737D01*
X37572Y-26752D01*
X37512Y-26767D01*
X37467Y-26767D01*
X37407Y-26752D01*
X37377Y-26737D01*
X37347Y-26707D01*
X37332Y-26662D01*
X37332Y-26632D01*
X37347Y-26587D01*
X37362Y-26572D01*
X37332Y-26377D02*
X37332Y-26317D01*
X37347Y-26287D01*
X37377Y-26257D01*
X37437Y-26242D01*
X37542Y-26242D01*
X37602Y-26257D01*
X37632Y-26287D01*
X37647Y-26317D01*
X37647Y-26377D01*
X37632Y-26407D01*
X37602Y-26437D01*
X37542Y-26452D01*
X37437Y-26452D01*
X37377Y-26437D01*
X37347Y-26407D01*
X37332Y-26377D01*
X37647Y-26107D02*
X37332Y-26107D01*
X37647Y-25928D01*
X37332Y-25928D01*
X37647Y-25778D02*
X37332Y-25778D01*
X37647Y-25598D01*
X37332Y-25598D01*
X37677Y-25523D02*
X37677Y-25283D01*
X37332Y-25238D02*
X37332Y-25043D01*
X37452Y-25148D01*
X37452Y-25103D01*
X37467Y-25073D01*
X37482Y-25058D01*
X37512Y-25043D01*
X37587Y-25043D01*
X37617Y-25058D01*
X37632Y-25073D01*
X37647Y-25103D01*
X37647Y-25193D01*
X37632Y-25223D01*
X37617Y-25238D01*
X64812Y-49287D02*
X64497Y-49287D01*
X64812Y-49107D02*
X64632Y-49242D01*
X64497Y-49107D02*
X64677Y-49287D01*
X64812Y-48807D02*
X64812Y-48987D01*
X64812Y-48897D02*
X64497Y-48897D01*
X64542Y-48927D01*
X64572Y-48957D01*
X64587Y-48987D01*
X63128Y-49722D02*
X63143Y-49737D01*
X63158Y-49782D01*
X63158Y-49812D01*
X63143Y-49857D01*
X63113Y-49887D01*
X63083Y-49902D01*
X63023Y-49917D01*
X62979Y-49917D01*
X62919Y-49902D01*
X62889Y-49887D01*
X62859Y-49857D01*
X62844Y-49812D01*
X62844Y-49782D01*
X62859Y-49737D01*
X62874Y-49722D01*
X62844Y-49527D02*
X62844Y-49467D01*
X62859Y-49437D01*
X62889Y-49407D01*
X62949Y-49392D01*
X63053Y-49392D01*
X63113Y-49407D01*
X63143Y-49437D01*
X63158Y-49467D01*
X63158Y-49527D01*
X63143Y-49557D01*
X63113Y-49587D01*
X63053Y-49602D01*
X62949Y-49602D01*
X62889Y-49587D01*
X62859Y-49557D01*
X62844Y-49527D01*
X63158Y-49257D02*
X62844Y-49257D01*
X63158Y-49077D01*
X62844Y-49077D01*
X63158Y-48927D02*
X62844Y-48927D01*
X63158Y-48747D01*
X62844Y-48747D01*
X63188Y-48672D02*
X63188Y-48432D01*
X62844Y-48387D02*
X62844Y-48192D01*
X62964Y-48297D01*
X62964Y-48252D01*
X62979Y-48222D01*
X62994Y-48207D01*
X63023Y-48192D01*
X63098Y-48192D01*
X63128Y-48207D01*
X63143Y-48222D01*
X63158Y-48252D01*
X63158Y-48342D01*
X63143Y-48372D01*
X63128Y-48387D01*
X57062Y-45856D02*
X56747Y-45856D01*
X57032Y-45526D02*
X57047Y-45541D01*
X57062Y-45586D01*
X57062Y-45616D01*
X57047Y-45661D01*
X57017Y-45691D01*
X56987Y-45706D01*
X56927Y-45721D01*
X56882Y-45721D01*
X56822Y-45706D01*
X56792Y-45691D01*
X56762Y-45661D01*
X56747Y-45616D01*
X56747Y-45586D01*
X56762Y-45541D01*
X56777Y-45526D01*
X56852Y-45256D02*
X57062Y-45256D01*
X56732Y-45331D02*
X56957Y-45406D01*
X56957Y-45211D01*
X54610Y-45361D02*
X54790Y-45361D01*
X54700Y-45676D02*
X54700Y-45361D01*
X55045Y-45676D02*
X54895Y-45676D01*
X54895Y-45361D01*
X55150Y-45676D02*
X55150Y-45361D01*
X55270Y-45361D01*
X55300Y-45376D01*
X55315Y-45391D01*
X55330Y-45421D01*
X55330Y-45466D01*
X55315Y-45496D01*
X55300Y-45511D01*
X55270Y-45526D01*
X55150Y-45526D01*
X55600Y-45361D02*
X55540Y-45361D01*
X55510Y-45376D01*
X55495Y-45391D01*
X55465Y-45436D01*
X55450Y-45496D01*
X55450Y-45616D01*
X55465Y-45646D01*
X55480Y-45661D01*
X55510Y-45676D01*
X55570Y-45676D01*
X55600Y-45661D01*
X55615Y-45646D01*
X55630Y-45616D01*
X55630Y-45541D01*
X55615Y-45511D01*
X55600Y-45496D01*
X55570Y-45481D01*
X55510Y-45481D01*
X55480Y-45496D01*
X55465Y-45511D01*
X55450Y-45541D01*
X55750Y-45391D02*
X55765Y-45376D01*
X55795Y-45361D01*
X55870Y-45361D01*
X55900Y-45376D01*
X55915Y-45391D01*
X55930Y-45421D01*
X55930Y-45451D01*
X55915Y-45496D01*
X55735Y-45676D01*
X55930Y-45676D01*
X56035Y-45361D02*
X56245Y-45361D01*
X56110Y-45676D01*
X59062Y-45856D02*
X58747Y-45856D01*
X59032Y-45526D02*
X59047Y-45541D01*
X59062Y-45586D01*
X59062Y-45616D01*
X59047Y-45661D01*
X59017Y-45691D01*
X58987Y-45706D01*
X58927Y-45721D01*
X58882Y-45721D01*
X58822Y-45706D01*
X58792Y-45691D01*
X58762Y-45661D01*
X58747Y-45616D01*
X58747Y-45586D01*
X58762Y-45541D01*
X58777Y-45526D01*
X58747Y-45421D02*
X58747Y-45226D01*
X58867Y-45331D01*
X58867Y-45286D01*
X58882Y-45256D01*
X58897Y-45241D01*
X58927Y-45226D01*
X59002Y-45226D01*
X59032Y-45241D01*
X59047Y-45256D01*
X59062Y-45286D01*
X59062Y-45376D01*
X59047Y-45406D01*
X59032Y-45421D01*
X56610Y-45361D02*
X56790Y-45361D01*
X56700Y-45676D02*
X56700Y-45361D01*
X57045Y-45676D02*
X56895Y-45676D01*
X56895Y-45361D01*
X57150Y-45676D02*
X57150Y-45361D01*
X57270Y-45361D01*
X57300Y-45376D01*
X57315Y-45391D01*
X57330Y-45421D01*
X57330Y-45466D01*
X57315Y-45496D01*
X57300Y-45511D01*
X57270Y-45526D01*
X57150Y-45526D01*
X57600Y-45361D02*
X57540Y-45361D01*
X57510Y-45376D01*
X57495Y-45391D01*
X57465Y-45436D01*
X57450Y-45496D01*
X57450Y-45616D01*
X57465Y-45646D01*
X57480Y-45661D01*
X57510Y-45676D01*
X57570Y-45676D01*
X57600Y-45661D01*
X57615Y-45646D01*
X57630Y-45616D01*
X57630Y-45541D01*
X57615Y-45511D01*
X57600Y-45496D01*
X57570Y-45481D01*
X57510Y-45481D01*
X57480Y-45496D01*
X57465Y-45511D01*
X57450Y-45541D01*
X57750Y-45391D02*
X57765Y-45376D01*
X57795Y-45361D01*
X57870Y-45361D01*
X57900Y-45376D01*
X57915Y-45391D01*
X57930Y-45421D01*
X57930Y-45451D01*
X57915Y-45496D01*
X57735Y-45676D01*
X57930Y-45676D01*
X58035Y-45361D02*
X58245Y-45361D01*
X58110Y-45676D01*
X75277Y-36514D02*
X75277Y-36769D01*
X75292Y-36799D01*
X75307Y-36814D01*
X75337Y-36829D01*
X75397Y-36829D01*
X75427Y-36814D01*
X75442Y-36799D01*
X75457Y-36769D01*
X75457Y-36514D01*
X75772Y-36829D02*
X75592Y-36829D01*
X75682Y-36829D02*
X75682Y-36514D01*
X75652Y-36559D01*
X75622Y-36589D01*
X75592Y-36604D01*
X75877Y-36514D02*
X76087Y-36514D01*
X75952Y-36829D01*
X74610Y-30829D02*
X74610Y-30514D01*
X74715Y-30739D01*
X74820Y-30514D01*
X74820Y-30829D01*
X75030Y-30679D02*
X75030Y-30829D01*
X74925Y-30514D02*
X75030Y-30679D01*
X75135Y-30514D01*
X75165Y-30859D02*
X75405Y-30859D01*
X75480Y-30829D02*
X75480Y-30514D01*
X75600Y-30514D01*
X75630Y-30529D01*
X75645Y-30544D01*
X75660Y-30574D01*
X75660Y-30619D01*
X75645Y-30649D01*
X75630Y-30664D01*
X75600Y-30679D01*
X75480Y-30679D01*
X75795Y-30829D02*
X75795Y-30514D01*
X75945Y-30829D02*
X75945Y-30514D01*
X76125Y-30829D01*
X76125Y-30514D01*
X76425Y-30514D02*
X76275Y-30514D01*
X76260Y-30664D01*
X76275Y-30649D01*
X76305Y-30634D01*
X76380Y-30634D01*
X76410Y-30649D01*
X76425Y-30664D01*
X76440Y-30694D01*
X76440Y-30769D01*
X76425Y-30799D01*
X76410Y-30814D01*
X76380Y-30829D01*
X76305Y-30829D01*
X76275Y-30814D01*
X76260Y-30799D01*
X76560Y-30544D02*
X76575Y-30529D01*
X76605Y-30514D01*
X76680Y-30514D01*
X76710Y-30529D01*
X76725Y-30544D01*
X76740Y-30574D01*
X76740Y-30604D01*
X76725Y-30649D01*
X76545Y-30829D01*
X76740Y-30829D01*
X38663Y-36514D02*
X38663Y-36769D01*
X38678Y-36799D01*
X38693Y-36814D01*
X38723Y-36829D01*
X38783Y-36829D01*
X38813Y-36814D01*
X38828Y-36799D01*
X38843Y-36769D01*
X38843Y-36514D01*
X39158Y-36829D02*
X38978Y-36829D01*
X39068Y-36829D02*
X39068Y-36514D01*
X39038Y-36559D01*
X39008Y-36589D01*
X38978Y-36604D01*
X39443Y-36514D02*
X39293Y-36514D01*
X39278Y-36664D01*
X39293Y-36649D01*
X39323Y-36634D01*
X39398Y-36634D01*
X39428Y-36649D01*
X39443Y-36664D01*
X39458Y-36694D01*
X39458Y-36769D01*
X39443Y-36799D01*
X39428Y-36814D01*
X39398Y-36829D01*
X39323Y-36829D01*
X39293Y-36814D01*
X39278Y-36799D01*
X37996Y-30829D02*
X37996Y-30514D01*
X38101Y-30739D01*
X38206Y-30514D01*
X38206Y-30829D01*
X38416Y-30679D02*
X38416Y-30829D01*
X38311Y-30514D02*
X38416Y-30679D01*
X38521Y-30514D01*
X38551Y-30859D02*
X38791Y-30859D01*
X38866Y-30829D02*
X38866Y-30514D01*
X38986Y-30514D01*
X39016Y-30529D01*
X39031Y-30544D01*
X39046Y-30574D01*
X39046Y-30619D01*
X39031Y-30649D01*
X39016Y-30664D01*
X38986Y-30679D01*
X38866Y-30679D01*
X39181Y-30829D02*
X39181Y-30514D01*
X39331Y-30829D02*
X39331Y-30514D01*
X39510Y-30829D01*
X39510Y-30514D01*
X39810Y-30514D02*
X39660Y-30514D01*
X39645Y-30664D01*
X39660Y-30649D01*
X39690Y-30634D01*
X39765Y-30634D01*
X39795Y-30649D01*
X39810Y-30664D01*
X39825Y-30694D01*
X39825Y-30769D01*
X39810Y-30799D01*
X39795Y-30814D01*
X39765Y-30829D01*
X39690Y-30829D01*
X39660Y-30814D01*
X39645Y-30799D01*
X39945Y-30544D02*
X39960Y-30529D01*
X39990Y-30514D01*
X40065Y-30514D01*
X40095Y-30529D01*
X40110Y-30544D01*
X40125Y-30574D01*
X40125Y-30604D01*
X40110Y-30649D01*
X39930Y-30829D01*
X40125Y-30829D01*
X75277Y-46829D02*
X75277Y-47084D01*
X75292Y-47114D01*
X75307Y-47129D01*
X75337Y-47144D01*
X75397Y-47144D01*
X75427Y-47129D01*
X75442Y-47114D01*
X75457Y-47084D01*
X75457Y-46829D01*
X75772Y-47144D02*
X75592Y-47144D01*
X75682Y-47144D02*
X75682Y-46829D01*
X75652Y-46874D01*
X75622Y-46904D01*
X75592Y-46919D01*
X75952Y-46964D02*
X75922Y-46949D01*
X75907Y-46934D01*
X75892Y-46904D01*
X75892Y-46889D01*
X75907Y-46859D01*
X75922Y-46844D01*
X75952Y-46829D01*
X76012Y-46829D01*
X76042Y-46844D01*
X76057Y-46859D01*
X76072Y-46889D01*
X76072Y-46904D01*
X76057Y-46934D01*
X76042Y-46949D01*
X76012Y-46964D01*
X75952Y-46964D01*
X75922Y-46979D01*
X75907Y-46994D01*
X75892Y-47024D01*
X75892Y-47084D01*
X75907Y-47114D01*
X75922Y-47129D01*
X75952Y-47144D01*
X76012Y-47144D01*
X76042Y-47129D01*
X76057Y-47114D01*
X76072Y-47084D01*
X76072Y-47024D01*
X76057Y-46994D01*
X76042Y-46979D01*
X76012Y-46964D01*
X74610Y-41144D02*
X74610Y-40829D01*
X74715Y-41054D01*
X74820Y-40829D01*
X74820Y-41144D01*
X75030Y-40994D02*
X75030Y-41144D01*
X74925Y-40829D02*
X75030Y-40994D01*
X75135Y-40829D01*
X75165Y-41174D02*
X75405Y-41174D01*
X75480Y-41144D02*
X75480Y-40829D01*
X75600Y-40829D01*
X75630Y-40844D01*
X75645Y-40859D01*
X75660Y-40889D01*
X75660Y-40934D01*
X75645Y-40964D01*
X75630Y-40979D01*
X75600Y-40994D01*
X75480Y-40994D01*
X75795Y-41144D02*
X75795Y-40829D01*
X75945Y-41144D02*
X75945Y-40829D01*
X76125Y-41144D01*
X76125Y-40829D01*
X76425Y-40829D02*
X76275Y-40829D01*
X76260Y-40979D01*
X76275Y-40964D01*
X76305Y-40949D01*
X76380Y-40949D01*
X76410Y-40964D01*
X76425Y-40979D01*
X76440Y-41009D01*
X76440Y-41084D01*
X76425Y-41114D01*
X76410Y-41129D01*
X76380Y-41144D01*
X76305Y-41144D01*
X76275Y-41129D01*
X76260Y-41114D01*
X76560Y-40859D02*
X76575Y-40844D01*
X76605Y-40829D01*
X76680Y-40829D01*
X76710Y-40844D01*
X76725Y-40859D01*
X76740Y-40889D01*
X76740Y-40919D01*
X76725Y-40964D01*
X76545Y-41144D01*
X76740Y-41144D01*
X38663Y-46829D02*
X38663Y-47084D01*
X38678Y-47114D01*
X38693Y-47129D01*
X38723Y-47144D01*
X38783Y-47144D01*
X38813Y-47129D01*
X38828Y-47114D01*
X38843Y-47084D01*
X38843Y-46829D01*
X39158Y-47144D02*
X38978Y-47144D01*
X39068Y-47144D02*
X39068Y-46829D01*
X39038Y-46874D01*
X39008Y-46904D01*
X38978Y-46919D01*
X39428Y-46829D02*
X39368Y-46829D01*
X39338Y-46844D01*
X39323Y-46859D01*
X39293Y-46904D01*
X39278Y-46964D01*
X39278Y-47084D01*
X39293Y-47114D01*
X39308Y-47129D01*
X39338Y-47144D01*
X39398Y-47144D01*
X39428Y-47129D01*
X39443Y-47114D01*
X39458Y-47084D01*
X39458Y-47009D01*
X39443Y-46979D01*
X39428Y-46964D01*
X39398Y-46949D01*
X39338Y-46949D01*
X39308Y-46964D01*
X39293Y-46979D01*
X39278Y-47009D01*
X37996Y-41144D02*
X37996Y-40829D01*
X38101Y-41054D01*
X38206Y-40829D01*
X38206Y-41144D01*
X38416Y-40994D02*
X38416Y-41144D01*
X38311Y-40829D02*
X38416Y-40994D01*
X38521Y-40829D01*
X38551Y-41174D02*
X38791Y-41174D01*
X38866Y-41144D02*
X38866Y-40829D01*
X38986Y-40829D01*
X39016Y-40844D01*
X39031Y-40859D01*
X39046Y-40889D01*
X39046Y-40934D01*
X39031Y-40964D01*
X39016Y-40979D01*
X38986Y-40994D01*
X38866Y-40994D01*
X39181Y-41144D02*
X39181Y-40829D01*
X39331Y-41144D02*
X39331Y-40829D01*
X39510Y-41144D01*
X39510Y-40829D01*
X39810Y-40829D02*
X39660Y-40829D01*
X39645Y-40979D01*
X39660Y-40964D01*
X39690Y-40949D01*
X39765Y-40949D01*
X39795Y-40964D01*
X39810Y-40979D01*
X39825Y-41009D01*
X39825Y-41084D01*
X39810Y-41114D01*
X39795Y-41129D01*
X39765Y-41144D01*
X39690Y-41144D01*
X39660Y-41129D01*
X39645Y-41114D01*
X39945Y-40859D02*
X39960Y-40844D01*
X39990Y-40829D01*
X40065Y-40829D01*
X40095Y-40844D01*
X40110Y-40859D01*
X40125Y-40889D01*
X40125Y-40919D01*
X40110Y-40964D01*
X39930Y-41144D01*
X40125Y-41144D01*
X50127Y-45676D02*
X50127Y-45361D01*
X50457Y-45646D02*
X50442Y-45661D01*
X50397Y-45676D01*
X50367Y-45676D01*
X50322Y-45661D01*
X50292Y-45631D01*
X50277Y-45601D01*
X50262Y-45541D01*
X50262Y-45496D01*
X50277Y-45436D01*
X50292Y-45406D01*
X50322Y-45376D01*
X50367Y-45361D01*
X50397Y-45361D01*
X50442Y-45376D01*
X50457Y-45391D01*
X50742Y-45361D02*
X50592Y-45361D01*
X50577Y-45511D01*
X50592Y-45496D01*
X50622Y-45481D01*
X50697Y-45481D01*
X50727Y-45496D01*
X50742Y-45511D01*
X50757Y-45541D01*
X50757Y-45616D01*
X50742Y-45646D01*
X50727Y-45661D01*
X50697Y-45676D01*
X50622Y-45676D01*
X50592Y-45661D01*
X50577Y-45646D01*
X55047Y-47581D02*
X55062Y-47536D01*
X55062Y-47461D01*
X55047Y-47431D01*
X55032Y-47416D01*
X55002Y-47401D01*
X54972Y-47401D01*
X54942Y-47416D01*
X54927Y-47431D01*
X54912Y-47461D01*
X54897Y-47521D01*
X54882Y-47551D01*
X54867Y-47566D01*
X54837Y-47581D01*
X54807Y-47581D01*
X54777Y-47566D01*
X54762Y-47551D01*
X54747Y-47521D01*
X54747Y-47446D01*
X54762Y-47401D01*
X55062Y-47266D02*
X54747Y-47266D01*
X55062Y-47086D01*
X54747Y-47086D01*
X54747Y-46966D02*
X54747Y-46756D01*
X55062Y-46891D01*
X54852Y-46501D02*
X55062Y-46501D01*
X54732Y-46576D02*
X54957Y-46651D01*
X54957Y-46456D01*
X55062Y-46171D02*
X55062Y-46351D01*
X55062Y-46261D02*
X54747Y-46261D01*
X54792Y-46291D01*
X54822Y-46321D01*
X54837Y-46351D01*
X54852Y-45901D02*
X55062Y-45901D01*
X54732Y-45976D02*
X54957Y-46051D01*
X54957Y-45856D01*
X55062Y-45571D02*
X55062Y-45751D01*
X55062Y-45661D02*
X54747Y-45661D01*
X54792Y-45691D01*
X54822Y-45721D01*
X54837Y-45751D01*
X55092Y-45511D02*
X55092Y-45271D01*
X55062Y-45196D02*
X54747Y-45196D01*
X55062Y-45016D02*
X54882Y-45151D01*
X54747Y-45016D02*
X54927Y-45196D01*
X55062Y-44716D02*
X55062Y-44896D01*
X55062Y-44806D02*
X54747Y-44806D01*
X54792Y-44836D01*
X54822Y-44866D01*
X54837Y-44896D01*
X54747Y-44431D02*
X54747Y-44581D01*
X54897Y-44596D01*
X54882Y-44581D01*
X54867Y-44551D01*
X54867Y-44476D01*
X54882Y-44446D01*
X54897Y-44431D01*
X54927Y-44416D01*
X55002Y-44416D01*
X55032Y-44431D01*
X55047Y-44446D01*
X55062Y-44476D01*
X55062Y-44551D01*
X55047Y-44581D01*
X55032Y-44596D01*
X54747Y-44131D02*
X54747Y-44281D01*
X54897Y-44296D01*
X54882Y-44281D01*
X54867Y-44251D01*
X54867Y-44176D01*
X54882Y-44146D01*
X54897Y-44131D01*
X54927Y-44116D01*
X55002Y-44116D01*
X55032Y-44131D01*
X55047Y-44146D01*
X55062Y-44176D01*
X55062Y-44251D01*
X55047Y-44281D01*
X55032Y-44296D01*
X55062Y-43981D02*
X54747Y-43981D01*
X55062Y-43801D01*
X54747Y-43801D01*
X54972Y-43666D02*
X54972Y-43516D01*
X55062Y-43696D02*
X54747Y-43591D01*
X55062Y-43486D01*
X70127Y-45676D02*
X70127Y-45361D01*
X70457Y-45646D02*
X70442Y-45661D01*
X70397Y-45676D01*
X70367Y-45676D01*
X70322Y-45661D01*
X70292Y-45631D01*
X70277Y-45601D01*
X70262Y-45541D01*
X70262Y-45496D01*
X70277Y-45436D01*
X70292Y-45406D01*
X70322Y-45376D01*
X70367Y-45361D01*
X70397Y-45361D01*
X70442Y-45376D01*
X70457Y-45391D01*
X70727Y-45361D02*
X70667Y-45361D01*
X70637Y-45376D01*
X70622Y-45391D01*
X70592Y-45436D01*
X70577Y-45496D01*
X70577Y-45616D01*
X70592Y-45646D01*
X70607Y-45661D01*
X70637Y-45676D01*
X70697Y-45676D01*
X70727Y-45661D01*
X70742Y-45646D01*
X70757Y-45616D01*
X70757Y-45541D01*
X70742Y-45511D01*
X70727Y-45496D01*
X70697Y-45481D01*
X70637Y-45481D01*
X70607Y-45496D01*
X70592Y-45511D01*
X70577Y-45541D01*
X74747Y-46718D02*
X74747Y-46538D01*
X75062Y-46628D02*
X74747Y-46628D01*
X75062Y-46283D02*
X75062Y-46433D01*
X74747Y-46433D01*
X75062Y-46178D02*
X74747Y-46178D01*
X74747Y-46058D01*
X74762Y-46028D01*
X74777Y-46013D01*
X74807Y-45998D01*
X74852Y-45998D01*
X74882Y-46013D01*
X74897Y-46028D01*
X74912Y-46058D01*
X74912Y-46178D01*
X74747Y-45728D02*
X74747Y-45788D01*
X74762Y-45818D01*
X74777Y-45833D01*
X74822Y-45863D01*
X74882Y-45878D01*
X75002Y-45878D01*
X75032Y-45863D01*
X75047Y-45848D01*
X75062Y-45818D01*
X75062Y-45758D01*
X75047Y-45728D01*
X75032Y-45713D01*
X75002Y-45698D01*
X74927Y-45698D01*
X74897Y-45713D01*
X74882Y-45728D01*
X74867Y-45758D01*
X74867Y-45818D01*
X74882Y-45848D01*
X74897Y-45863D01*
X74927Y-45878D01*
X74777Y-45578D02*
X74762Y-45563D01*
X74747Y-45533D01*
X74747Y-45458D01*
X74762Y-45428D01*
X74777Y-45413D01*
X74807Y-45398D01*
X74837Y-45398D01*
X74882Y-45413D01*
X75062Y-45593D01*
X75062Y-45398D01*
X74747Y-45293D02*
X74747Y-45083D01*
X75062Y-45218D01*
X74942Y-44963D02*
X74942Y-44723D01*
X74852Y-44438D02*
X75062Y-44438D01*
X74732Y-44513D02*
X74957Y-44588D01*
X74957Y-44393D01*
X74204Y-52684D02*
X74204Y-52474D01*
X74204Y-52504D02*
X74219Y-52489D01*
X74249Y-52474D01*
X74294Y-52474D01*
X74324Y-52489D01*
X74339Y-52519D01*
X74339Y-52684D01*
X74339Y-52519D02*
X74354Y-52489D01*
X74384Y-52474D01*
X74429Y-52474D01*
X74459Y-52489D01*
X74474Y-52519D01*
X74474Y-52684D01*
X74594Y-52474D02*
X74669Y-52684D01*
X74744Y-52474D02*
X74669Y-52684D01*
X74639Y-52759D01*
X74624Y-52774D01*
X74594Y-52789D01*
X74789Y-52714D02*
X75029Y-52714D01*
X75104Y-52684D02*
X75104Y-52370D01*
X75209Y-52594D01*
X75314Y-52370D01*
X75314Y-52684D01*
X75434Y-52370D02*
X75629Y-52370D01*
X75524Y-52489D01*
X75569Y-52489D01*
X75599Y-52504D01*
X75614Y-52519D01*
X75629Y-52549D01*
X75629Y-52624D01*
X75614Y-52654D01*
X75599Y-52669D01*
X75569Y-52684D01*
X75479Y-52684D01*
X75449Y-52669D01*
X75434Y-52654D01*
X75689Y-52714D02*
X75929Y-52714D01*
X75989Y-52669D02*
X76019Y-52684D01*
X76079Y-52684D01*
X76109Y-52669D01*
X76124Y-52639D01*
X76124Y-52624D01*
X76109Y-52594D01*
X76079Y-52579D01*
X76034Y-52579D01*
X76004Y-52564D01*
X75989Y-52534D01*
X75989Y-52519D01*
X76004Y-52489D01*
X76034Y-52474D01*
X76079Y-52474D01*
X76109Y-52489D01*
X76394Y-52669D02*
X76364Y-52684D01*
X76304Y-52684D01*
X76274Y-52669D01*
X76259Y-52654D01*
X76244Y-52624D01*
X76244Y-52534D01*
X76259Y-52504D01*
X76274Y-52489D01*
X76304Y-52474D01*
X76364Y-52474D01*
X76394Y-52489D01*
X76529Y-52684D02*
X76529Y-52474D01*
X76529Y-52534D02*
X76544Y-52504D01*
X76559Y-52489D01*
X76589Y-52474D01*
X76619Y-52474D01*
X76844Y-52669D02*
X76814Y-52684D01*
X76754Y-52684D01*
X76724Y-52669D01*
X76709Y-52639D01*
X76709Y-52519D01*
X76724Y-52489D01*
X76754Y-52474D01*
X76814Y-52474D01*
X76844Y-52489D01*
X76859Y-52519D01*
X76859Y-52549D01*
X76709Y-52579D01*
X76964Y-52474D02*
X77024Y-52684D01*
X77084Y-52534D01*
X77144Y-52684D01*
X77204Y-52474D01*
X75082Y-55519D02*
X75187Y-55834D01*
X75292Y-55519D01*
X75382Y-55744D02*
X75532Y-55744D01*
X75352Y-55834D02*
X75457Y-55519D01*
X75562Y-55834D01*
X75817Y-55834D02*
X75667Y-55834D01*
X75667Y-55519D01*
X75967Y-55519D02*
X75967Y-55594D01*
X75892Y-55564D02*
X75967Y-55594D01*
X76042Y-55564D01*
X75922Y-55654D02*
X75967Y-55594D01*
X76012Y-55654D01*
X76207Y-55519D02*
X76207Y-55594D01*
X76132Y-55564D02*
X76207Y-55594D01*
X76282Y-55564D01*
X76162Y-55654D02*
X76207Y-55594D01*
X76252Y-55654D01*
X74182Y-28318D02*
X74182Y-28108D01*
X74182Y-28138D02*
X74197Y-28123D01*
X74227Y-28108D01*
X74272Y-28108D01*
X74302Y-28123D01*
X74317Y-28153D01*
X74317Y-28318D01*
X74317Y-28153D02*
X74332Y-28123D01*
X74362Y-28108D01*
X74407Y-28108D01*
X74437Y-28123D01*
X74452Y-28153D01*
X74452Y-28318D01*
X74572Y-28108D02*
X74647Y-28318D01*
X74722Y-28108D02*
X74647Y-28318D01*
X74617Y-28393D01*
X74602Y-28408D01*
X74572Y-28423D01*
X74767Y-28348D02*
X75007Y-28348D01*
X75082Y-28318D02*
X75082Y-28003D01*
X75187Y-28228D01*
X75292Y-28003D01*
X75292Y-28318D01*
X75412Y-28003D02*
X75607Y-28003D01*
X75502Y-28123D01*
X75547Y-28123D01*
X75577Y-28138D01*
X75592Y-28153D01*
X75607Y-28183D01*
X75607Y-28258D01*
X75592Y-28288D01*
X75577Y-28303D01*
X75547Y-28318D01*
X75457Y-28318D01*
X75427Y-28303D01*
X75412Y-28288D01*
X75667Y-28348D02*
X75907Y-28348D01*
X75967Y-28303D02*
X75997Y-28318D01*
X76057Y-28318D01*
X76087Y-28303D01*
X76102Y-28273D01*
X76102Y-28258D01*
X76087Y-28228D01*
X76057Y-28213D01*
X76012Y-28213D01*
X75982Y-28198D01*
X75967Y-28168D01*
X75967Y-28153D01*
X75982Y-28123D01*
X76012Y-28108D01*
X76057Y-28108D01*
X76087Y-28123D01*
X76372Y-28303D02*
X76342Y-28318D01*
X76282Y-28318D01*
X76252Y-28303D01*
X76237Y-28288D01*
X76222Y-28258D01*
X76222Y-28168D01*
X76237Y-28138D01*
X76252Y-28123D01*
X76282Y-28108D01*
X76342Y-28108D01*
X76372Y-28123D01*
X76507Y-28318D02*
X76507Y-28108D01*
X76507Y-28168D02*
X76522Y-28138D01*
X76537Y-28123D01*
X76567Y-28108D01*
X76597Y-28108D01*
X76822Y-28303D02*
X76792Y-28318D01*
X76732Y-28318D01*
X76702Y-28303D01*
X76687Y-28273D01*
X76687Y-28153D01*
X76702Y-28123D01*
X76732Y-28108D01*
X76792Y-28108D01*
X76822Y-28123D01*
X76837Y-28153D01*
X76837Y-28183D01*
X76687Y-28213D01*
X76942Y-28108D02*
X77002Y-28318D01*
X77062Y-28168D01*
X77122Y-28318D01*
X77182Y-28108D01*
X75060Y-31152D02*
X75165Y-31467D01*
X75270Y-31152D01*
X75360Y-31377D02*
X75510Y-31377D01*
X75330Y-31467D02*
X75435Y-31152D01*
X75540Y-31467D01*
X75795Y-31467D02*
X75645Y-31467D01*
X75645Y-31152D01*
X75945Y-31152D02*
X75945Y-31227D01*
X75870Y-31197D02*
X75945Y-31227D01*
X76020Y-31197D01*
X75900Y-31287D02*
X75945Y-31227D01*
X75990Y-31287D01*
X76185Y-31152D02*
X76185Y-31227D01*
X76110Y-31197D02*
X76185Y-31227D01*
X76260Y-31197D01*
X76140Y-31287D02*
X76185Y-31227D01*
X76230Y-31287D01*
X37568Y-28318D02*
X37568Y-28108D01*
X37568Y-28138D02*
X37583Y-28123D01*
X37613Y-28108D01*
X37658Y-28108D01*
X37688Y-28123D01*
X37703Y-28153D01*
X37703Y-28318D01*
X37703Y-28153D02*
X37718Y-28123D01*
X37748Y-28108D01*
X37793Y-28108D01*
X37823Y-28123D01*
X37838Y-28153D01*
X37838Y-28318D01*
X37958Y-28108D02*
X38033Y-28318D01*
X38108Y-28108D02*
X38033Y-28318D01*
X38003Y-28393D01*
X37988Y-28408D01*
X37958Y-28423D01*
X38153Y-28348D02*
X38393Y-28348D01*
X38468Y-28318D02*
X38468Y-28003D01*
X38573Y-28228D01*
X38678Y-28003D01*
X38678Y-28318D01*
X38798Y-28003D02*
X38993Y-28003D01*
X38888Y-28123D01*
X38933Y-28123D01*
X38963Y-28138D01*
X38978Y-28153D01*
X38993Y-28183D01*
X38993Y-28258D01*
X38978Y-28288D01*
X38963Y-28303D01*
X38933Y-28318D01*
X38843Y-28318D01*
X38813Y-28303D01*
X38798Y-28288D01*
X39053Y-28348D02*
X39293Y-28348D01*
X39353Y-28303D02*
X39383Y-28318D01*
X39443Y-28318D01*
X39473Y-28303D01*
X39488Y-28273D01*
X39488Y-28258D01*
X39473Y-28228D01*
X39443Y-28213D01*
X39398Y-28213D01*
X39368Y-28198D01*
X39353Y-28168D01*
X39353Y-28153D01*
X39368Y-28123D01*
X39398Y-28108D01*
X39443Y-28108D01*
X39473Y-28123D01*
X39758Y-28303D02*
X39728Y-28318D01*
X39668Y-28318D01*
X39638Y-28303D01*
X39623Y-28288D01*
X39608Y-28258D01*
X39608Y-28168D01*
X39623Y-28138D01*
X39638Y-28123D01*
X39668Y-28108D01*
X39728Y-28108D01*
X39758Y-28123D01*
X39893Y-28318D02*
X39893Y-28108D01*
X39893Y-28168D02*
X39908Y-28138D01*
X39923Y-28123D01*
X39953Y-28108D01*
X39983Y-28108D01*
X40208Y-28303D02*
X40178Y-28318D01*
X40118Y-28318D01*
X40088Y-28303D01*
X40073Y-28273D01*
X40073Y-28153D01*
X40088Y-28123D01*
X40118Y-28108D01*
X40178Y-28108D01*
X40208Y-28123D01*
X40223Y-28153D01*
X40223Y-28183D01*
X40073Y-28213D01*
X40328Y-28108D02*
X40388Y-28318D01*
X40448Y-28168D01*
X40508Y-28318D01*
X40568Y-28108D01*
X38446Y-31152D02*
X38551Y-31467D01*
X38656Y-31152D01*
X38746Y-31377D02*
X38896Y-31377D01*
X38716Y-31467D02*
X38821Y-31152D01*
X38926Y-31467D01*
X39181Y-31467D02*
X39031Y-31467D01*
X39031Y-31152D01*
X39331Y-31152D02*
X39331Y-31227D01*
X39256Y-31197D02*
X39331Y-31227D01*
X39405Y-31197D01*
X39286Y-31287D02*
X39331Y-31227D01*
X39376Y-31287D01*
X39570Y-31152D02*
X39570Y-31227D01*
X39495Y-31197D02*
X39570Y-31227D01*
X39645Y-31197D01*
X39525Y-31287D02*
X39570Y-31227D01*
X39615Y-31287D01*
X37604Y-52684D02*
X37604Y-52474D01*
X37604Y-52504D02*
X37619Y-52489D01*
X37649Y-52474D01*
X37694Y-52474D01*
X37724Y-52489D01*
X37739Y-52519D01*
X37739Y-52684D01*
X37739Y-52519D02*
X37754Y-52489D01*
X37784Y-52474D01*
X37829Y-52474D01*
X37859Y-52489D01*
X37874Y-52519D01*
X37874Y-52684D01*
X37994Y-52474D02*
X38069Y-52684D01*
X38144Y-52474D02*
X38069Y-52684D01*
X38039Y-52759D01*
X38024Y-52774D01*
X37994Y-52789D01*
X38189Y-52714D02*
X38429Y-52714D01*
X38504Y-52684D02*
X38504Y-52370D01*
X38609Y-52594D01*
X38714Y-52370D01*
X38714Y-52684D01*
X38834Y-52370D02*
X39029Y-52370D01*
X38924Y-52489D01*
X38969Y-52489D01*
X38999Y-52504D01*
X39014Y-52519D01*
X39029Y-52549D01*
X39029Y-52624D01*
X39014Y-52654D01*
X38999Y-52669D01*
X38969Y-52684D01*
X38879Y-52684D01*
X38849Y-52669D01*
X38834Y-52654D01*
X39089Y-52714D02*
X39329Y-52714D01*
X39389Y-52669D02*
X39419Y-52684D01*
X39479Y-52684D01*
X39509Y-52669D01*
X39524Y-52639D01*
X39524Y-52624D01*
X39509Y-52594D01*
X39479Y-52579D01*
X39434Y-52579D01*
X39404Y-52564D01*
X39389Y-52534D01*
X39389Y-52519D01*
X39404Y-52489D01*
X39434Y-52474D01*
X39479Y-52474D01*
X39509Y-52489D01*
X39794Y-52669D02*
X39764Y-52684D01*
X39704Y-52684D01*
X39674Y-52669D01*
X39659Y-52654D01*
X39644Y-52624D01*
X39644Y-52534D01*
X39659Y-52504D01*
X39674Y-52489D01*
X39704Y-52474D01*
X39764Y-52474D01*
X39794Y-52489D01*
X39929Y-52684D02*
X39929Y-52474D01*
X39929Y-52534D02*
X39944Y-52504D01*
X39959Y-52489D01*
X39989Y-52474D01*
X40019Y-52474D01*
X40244Y-52669D02*
X40214Y-52684D01*
X40154Y-52684D01*
X40124Y-52669D01*
X40109Y-52639D01*
X40109Y-52519D01*
X40124Y-52489D01*
X40154Y-52474D01*
X40214Y-52474D01*
X40244Y-52489D01*
X40259Y-52519D01*
X40259Y-52549D01*
X40109Y-52579D01*
X40364Y-52474D02*
X40424Y-52684D01*
X40484Y-52534D01*
X40544Y-52684D01*
X40604Y-52474D01*
X38482Y-55519D02*
X38587Y-55834D01*
X38692Y-55519D01*
X38782Y-55744D02*
X38932Y-55744D01*
X38752Y-55834D02*
X38857Y-55519D01*
X38962Y-55834D01*
X39217Y-55834D02*
X39067Y-55834D01*
X39067Y-55519D01*
X39367Y-55519D02*
X39367Y-55594D01*
X39292Y-55564D02*
X39367Y-55594D01*
X39442Y-55564D01*
X39322Y-55654D02*
X39367Y-55594D01*
X39412Y-55654D01*
X39607Y-55519D02*
X39607Y-55594D01*
X39532Y-55564D02*
X39607Y-55594D01*
X39682Y-55564D01*
X39562Y-55654D02*
X39607Y-55594D01*
X39652Y-55654D01*
X37568Y-38632D02*
X37568Y-38423D01*
X37568Y-38453D02*
X37583Y-38438D01*
X37613Y-38423D01*
X37658Y-38423D01*
X37688Y-38438D01*
X37703Y-38468D01*
X37703Y-38632D01*
X37703Y-38468D02*
X37718Y-38438D01*
X37748Y-38423D01*
X37793Y-38423D01*
X37823Y-38438D01*
X37838Y-38468D01*
X37838Y-38632D01*
X37958Y-38423D02*
X38033Y-38632D01*
X38108Y-38423D02*
X38033Y-38632D01*
X38003Y-38707D01*
X37988Y-38722D01*
X37958Y-38737D01*
X38153Y-38662D02*
X38393Y-38662D01*
X38468Y-38632D02*
X38468Y-38318D01*
X38573Y-38543D01*
X38678Y-38318D01*
X38678Y-38632D01*
X38798Y-38318D02*
X38993Y-38318D01*
X38888Y-38438D01*
X38933Y-38438D01*
X38963Y-38453D01*
X38978Y-38468D01*
X38993Y-38498D01*
X38993Y-38573D01*
X38978Y-38602D01*
X38963Y-38617D01*
X38933Y-38632D01*
X38843Y-38632D01*
X38813Y-38617D01*
X38798Y-38602D01*
X39053Y-38662D02*
X39293Y-38662D01*
X39353Y-38617D02*
X39383Y-38632D01*
X39443Y-38632D01*
X39473Y-38617D01*
X39488Y-38588D01*
X39488Y-38573D01*
X39473Y-38543D01*
X39443Y-38528D01*
X39398Y-38528D01*
X39368Y-38513D01*
X39353Y-38483D01*
X39353Y-38468D01*
X39368Y-38438D01*
X39398Y-38423D01*
X39443Y-38423D01*
X39473Y-38438D01*
X39758Y-38617D02*
X39728Y-38632D01*
X39668Y-38632D01*
X39638Y-38617D01*
X39623Y-38602D01*
X39608Y-38573D01*
X39608Y-38483D01*
X39623Y-38453D01*
X39638Y-38438D01*
X39668Y-38423D01*
X39728Y-38423D01*
X39758Y-38438D01*
X39893Y-38632D02*
X39893Y-38423D01*
X39893Y-38483D02*
X39908Y-38453D01*
X39923Y-38438D01*
X39953Y-38423D01*
X39983Y-38423D01*
X40208Y-38617D02*
X40178Y-38632D01*
X40118Y-38632D01*
X40088Y-38617D01*
X40073Y-38588D01*
X40073Y-38468D01*
X40088Y-38438D01*
X40118Y-38423D01*
X40178Y-38423D01*
X40208Y-38438D01*
X40223Y-38468D01*
X40223Y-38498D01*
X40073Y-38528D01*
X40328Y-38423D02*
X40388Y-38632D01*
X40448Y-38483D01*
X40508Y-38632D01*
X40568Y-38423D01*
X38446Y-41467D02*
X38551Y-41782D01*
X38656Y-41467D01*
X38746Y-41692D02*
X38896Y-41692D01*
X38716Y-41782D02*
X38821Y-41467D01*
X38926Y-41782D01*
X39181Y-41782D02*
X39031Y-41782D01*
X39031Y-41467D01*
X39331Y-41467D02*
X39331Y-41542D01*
X39256Y-41512D02*
X39331Y-41542D01*
X39405Y-41512D01*
X39286Y-41602D02*
X39331Y-41542D01*
X39376Y-41602D01*
X39570Y-41467D02*
X39570Y-41542D01*
X39495Y-41512D02*
X39570Y-41542D01*
X39645Y-41512D01*
X39525Y-41602D02*
X39570Y-41542D01*
X39615Y-41602D01*
X74182Y-38632D02*
X74182Y-38423D01*
X74182Y-38453D02*
X74197Y-38438D01*
X74227Y-38423D01*
X74272Y-38423D01*
X74302Y-38438D01*
X74317Y-38468D01*
X74317Y-38632D01*
X74317Y-38468D02*
X74332Y-38438D01*
X74362Y-38423D01*
X74407Y-38423D01*
X74437Y-38438D01*
X74452Y-38468D01*
X74452Y-38632D01*
X74572Y-38423D02*
X74647Y-38632D01*
X74722Y-38423D02*
X74647Y-38632D01*
X74617Y-38707D01*
X74602Y-38722D01*
X74572Y-38737D01*
X74767Y-38662D02*
X75007Y-38662D01*
X75082Y-38632D02*
X75082Y-38318D01*
X75187Y-38543D01*
X75292Y-38318D01*
X75292Y-38632D01*
X75412Y-38318D02*
X75607Y-38318D01*
X75502Y-38438D01*
X75547Y-38438D01*
X75577Y-38453D01*
X75592Y-38468D01*
X75607Y-38498D01*
X75607Y-38573D01*
X75592Y-38602D01*
X75577Y-38617D01*
X75547Y-38632D01*
X75457Y-38632D01*
X75427Y-38617D01*
X75412Y-38602D01*
X75667Y-38662D02*
X75907Y-38662D01*
X75967Y-38617D02*
X75997Y-38632D01*
X76057Y-38632D01*
X76087Y-38617D01*
X76102Y-38588D01*
X76102Y-38573D01*
X76087Y-38543D01*
X76057Y-38528D01*
X76012Y-38528D01*
X75982Y-38513D01*
X75967Y-38483D01*
X75967Y-38468D01*
X75982Y-38438D01*
X76012Y-38423D01*
X76057Y-38423D01*
X76087Y-38438D01*
X76372Y-38617D02*
X76342Y-38632D01*
X76282Y-38632D01*
X76252Y-38617D01*
X76237Y-38602D01*
X76222Y-38573D01*
X76222Y-38483D01*
X76237Y-38453D01*
X76252Y-38438D01*
X76282Y-38423D01*
X76342Y-38423D01*
X76372Y-38438D01*
X76507Y-38632D02*
X76507Y-38423D01*
X76507Y-38483D02*
X76522Y-38453D01*
X76537Y-38438D01*
X76567Y-38423D01*
X76597Y-38423D01*
X76822Y-38617D02*
X76792Y-38632D01*
X76732Y-38632D01*
X76702Y-38617D01*
X76687Y-38588D01*
X76687Y-38468D01*
X76702Y-38438D01*
X76732Y-38423D01*
X76792Y-38423D01*
X76822Y-38438D01*
X76837Y-38468D01*
X76837Y-38498D01*
X76687Y-38528D01*
X76942Y-38423D02*
X77002Y-38632D01*
X77062Y-38483D01*
X77122Y-38632D01*
X77182Y-38423D01*
X75060Y-41467D02*
X75165Y-41782D01*
X75270Y-41467D01*
X75360Y-41692D02*
X75510Y-41692D01*
X75330Y-41782D02*
X75435Y-41467D01*
X75540Y-41782D01*
X75795Y-41782D02*
X75645Y-41782D01*
X75645Y-41467D01*
X75945Y-41467D02*
X75945Y-41542D01*
X75870Y-41512D02*
X75945Y-41542D01*
X76020Y-41512D01*
X75900Y-41602D02*
X75945Y-41542D01*
X75990Y-41602D01*
X76185Y-41467D02*
X76185Y-41542D01*
X76110Y-41512D02*
X76185Y-41542D01*
X76260Y-41512D01*
X76140Y-41602D02*
X76185Y-41542D01*
X76230Y-41602D01*
X42887Y-28281D02*
X42932Y-28296D01*
X43007Y-28296D01*
X43037Y-28281D01*
X43052Y-28266D01*
X43067Y-28236D01*
X43067Y-28206D01*
X43052Y-28176D01*
X43037Y-28161D01*
X43007Y-28146D01*
X42947Y-28131D01*
X42917Y-28116D01*
X42902Y-28101D01*
X42887Y-28071D01*
X42887Y-28041D01*
X42902Y-28011D01*
X42917Y-27996D01*
X42947Y-27981D01*
X43022Y-27981D01*
X43067Y-27996D01*
X43172Y-27981D02*
X43247Y-28296D01*
X43307Y-28071D01*
X43367Y-28296D01*
X43442Y-27981D01*
X43532Y-27981D02*
X43727Y-27981D01*
X43622Y-28101D01*
X43667Y-28101D01*
X43697Y-28116D01*
X43712Y-28131D01*
X43727Y-28161D01*
X43727Y-28236D01*
X43712Y-28266D01*
X43697Y-28281D01*
X43667Y-28296D01*
X43577Y-28296D01*
X43547Y-28281D01*
X43532Y-28266D01*
X41295Y-28872D02*
X41340Y-28887D01*
X41415Y-28887D01*
X41445Y-28872D01*
X41460Y-28857D01*
X41475Y-28827D01*
X41475Y-28797D01*
X41460Y-28767D01*
X41445Y-28752D01*
X41415Y-28737D01*
X41355Y-28722D01*
X41325Y-28707D01*
X41310Y-28692D01*
X41295Y-28662D01*
X41295Y-28632D01*
X41310Y-28602D01*
X41325Y-28587D01*
X41355Y-28572D01*
X41430Y-28572D01*
X41475Y-28587D01*
X41580Y-28572D02*
X41655Y-28887D01*
X41715Y-28662D01*
X41775Y-28887D01*
X41850Y-28572D01*
X41895Y-28917D02*
X42135Y-28917D01*
X42210Y-28887D02*
X42210Y-28572D01*
X42330Y-28572D01*
X42360Y-28587D01*
X42375Y-28602D01*
X42390Y-28632D01*
X42390Y-28677D01*
X42375Y-28707D01*
X42360Y-28722D01*
X42330Y-28737D01*
X42210Y-28737D01*
X42525Y-28572D02*
X42525Y-28827D01*
X42540Y-28857D01*
X42555Y-28872D01*
X42585Y-28887D01*
X42645Y-28887D01*
X42675Y-28872D01*
X42690Y-28857D01*
X42705Y-28827D01*
X42705Y-28572D01*
X42840Y-28872D02*
X42885Y-28887D01*
X42960Y-28887D01*
X42990Y-28872D01*
X43005Y-28857D01*
X43020Y-28827D01*
X43020Y-28797D01*
X43005Y-28767D01*
X42990Y-28752D01*
X42960Y-28737D01*
X42900Y-28722D01*
X42870Y-28707D01*
X42855Y-28692D01*
X42840Y-28662D01*
X42840Y-28632D01*
X42855Y-28602D01*
X42870Y-28587D01*
X42900Y-28572D01*
X42975Y-28572D01*
X43020Y-28587D01*
X43155Y-28887D02*
X43155Y-28572D01*
X43155Y-28722D02*
X43335Y-28722D01*
X43335Y-28887D02*
X43335Y-28572D01*
X46627Y-28281D02*
X46672Y-28296D01*
X46747Y-28296D01*
X46777Y-28281D01*
X46792Y-28266D01*
X46807Y-28236D01*
X46807Y-28206D01*
X46792Y-28176D01*
X46777Y-28161D01*
X46747Y-28146D01*
X46687Y-28131D01*
X46657Y-28116D01*
X46642Y-28101D01*
X46627Y-28071D01*
X46627Y-28041D01*
X46642Y-28011D01*
X46657Y-27996D01*
X46687Y-27981D01*
X46762Y-27981D01*
X46807Y-27996D01*
X46912Y-27981D02*
X46987Y-28296D01*
X47047Y-28071D01*
X47107Y-28296D01*
X47182Y-27981D01*
X47437Y-28086D02*
X47437Y-28296D01*
X47362Y-27966D02*
X47287Y-28191D01*
X47482Y-28191D01*
X45035Y-28872D02*
X45080Y-28887D01*
X45155Y-28887D01*
X45185Y-28872D01*
X45200Y-28857D01*
X45215Y-28827D01*
X45215Y-28797D01*
X45200Y-28767D01*
X45185Y-28752D01*
X45155Y-28737D01*
X45095Y-28722D01*
X45065Y-28707D01*
X45050Y-28692D01*
X45035Y-28662D01*
X45035Y-28632D01*
X45050Y-28602D01*
X45065Y-28587D01*
X45095Y-28572D01*
X45170Y-28572D01*
X45215Y-28587D01*
X45320Y-28572D02*
X45395Y-28887D01*
X45455Y-28662D01*
X45515Y-28887D01*
X45590Y-28572D01*
X45635Y-28917D02*
X45875Y-28917D01*
X45950Y-28887D02*
X45950Y-28572D01*
X46070Y-28572D01*
X46100Y-28587D01*
X46115Y-28602D01*
X46130Y-28632D01*
X46130Y-28677D01*
X46115Y-28707D01*
X46100Y-28722D01*
X46070Y-28737D01*
X45950Y-28737D01*
X46265Y-28572D02*
X46265Y-28827D01*
X46280Y-28857D01*
X46295Y-28872D01*
X46325Y-28887D01*
X46385Y-28887D01*
X46415Y-28872D01*
X46430Y-28857D01*
X46445Y-28827D01*
X46445Y-28572D01*
X46580Y-28872D02*
X46625Y-28887D01*
X46700Y-28887D01*
X46730Y-28872D01*
X46745Y-28857D01*
X46760Y-28827D01*
X46760Y-28797D01*
X46745Y-28767D01*
X46730Y-28752D01*
X46700Y-28737D01*
X46640Y-28722D01*
X46610Y-28707D01*
X46595Y-28692D01*
X46580Y-28662D01*
X46580Y-28632D01*
X46595Y-28602D01*
X46610Y-28587D01*
X46640Y-28572D01*
X46715Y-28572D01*
X46760Y-28587D01*
X46895Y-28887D02*
X46895Y-28572D01*
X46895Y-28722D02*
X47075Y-28722D01*
X47075Y-28887D02*
X47075Y-28572D01*
X50367Y-28183D02*
X50412Y-28198D01*
X50487Y-28198D01*
X50517Y-28183D01*
X50532Y-28168D01*
X50547Y-28138D01*
X50547Y-28108D01*
X50532Y-28078D01*
X50517Y-28063D01*
X50487Y-28048D01*
X50427Y-28033D01*
X50397Y-28018D01*
X50382Y-28003D01*
X50367Y-27973D01*
X50367Y-27943D01*
X50382Y-27913D01*
X50397Y-27898D01*
X50427Y-27883D01*
X50502Y-27883D01*
X50547Y-27898D01*
X50652Y-27883D02*
X50727Y-28198D01*
X50787Y-27973D01*
X50847Y-28198D01*
X50922Y-27883D01*
X51192Y-27883D02*
X51042Y-27883D01*
X51027Y-28033D01*
X51042Y-28018D01*
X51072Y-28003D01*
X51147Y-28003D01*
X51177Y-28018D01*
X51192Y-28033D01*
X51207Y-28063D01*
X51207Y-28138D01*
X51192Y-28168D01*
X51177Y-28183D01*
X51147Y-28198D01*
X51072Y-28198D01*
X51042Y-28183D01*
X51027Y-28168D01*
X48677Y-28872D02*
X48722Y-28887D01*
X48797Y-28887D01*
X48827Y-28872D01*
X48842Y-28857D01*
X48857Y-28827D01*
X48857Y-28797D01*
X48842Y-28767D01*
X48827Y-28752D01*
X48797Y-28737D01*
X48737Y-28722D01*
X48707Y-28707D01*
X48692Y-28692D01*
X48677Y-28662D01*
X48677Y-28632D01*
X48692Y-28602D01*
X48707Y-28587D01*
X48737Y-28572D01*
X48812Y-28572D01*
X48857Y-28587D01*
X48962Y-28572D02*
X49037Y-28887D01*
X49097Y-28662D01*
X49157Y-28887D01*
X49232Y-28572D01*
X49277Y-28917D02*
X49517Y-28917D01*
X49592Y-28887D02*
X49592Y-28572D01*
X49712Y-28572D01*
X49742Y-28587D01*
X49757Y-28602D01*
X49772Y-28632D01*
X49772Y-28677D01*
X49757Y-28707D01*
X49742Y-28722D01*
X49712Y-28737D01*
X49592Y-28737D01*
X49907Y-28572D02*
X49907Y-28827D01*
X49922Y-28857D01*
X49937Y-28872D01*
X49967Y-28887D01*
X50027Y-28887D01*
X50057Y-28872D01*
X50072Y-28857D01*
X50087Y-28827D01*
X50087Y-28572D01*
X50222Y-28872D02*
X50267Y-28887D01*
X50342Y-28887D01*
X50372Y-28872D01*
X50387Y-28857D01*
X50402Y-28827D01*
X50402Y-28797D01*
X50387Y-28767D01*
X50372Y-28752D01*
X50342Y-28737D01*
X50282Y-28722D01*
X50252Y-28707D01*
X50237Y-28692D01*
X50222Y-28662D01*
X50222Y-28632D01*
X50237Y-28602D01*
X50252Y-28587D01*
X50282Y-28572D01*
X50357Y-28572D01*
X50402Y-28587D01*
X50537Y-28887D02*
X50537Y-28572D01*
X50537Y-28722D02*
X50717Y-28722D01*
X50717Y-28887D02*
X50717Y-28572D01*
G54D17*
X65337Y-31026D02*
X65037Y-31026D01*
X65309Y-30711D02*
X65323Y-30726D01*
X65337Y-30769D01*
X65337Y-30797D01*
X65323Y-30840D01*
X65295Y-30869D01*
X65266Y-30883D01*
X65209Y-30897D01*
X65166Y-30897D01*
X65109Y-30883D01*
X65080Y-30869D01*
X65052Y-30840D01*
X65037Y-30797D01*
X65037Y-30769D01*
X65052Y-30726D01*
X65066Y-30711D01*
X65337Y-30426D02*
X65337Y-30597D01*
X65337Y-30511D02*
X65037Y-30511D01*
X65080Y-30540D01*
X65109Y-30569D01*
X65123Y-30597D01*
X65066Y-30311D02*
X65052Y-30297D01*
X65037Y-30269D01*
X65037Y-30197D01*
X65052Y-30169D01*
X65066Y-30154D01*
X65095Y-30140D01*
X65123Y-30140D01*
X65166Y-30154D01*
X65337Y-30326D01*
X65337Y-30140D01*
G54D16*
X63727Y-30670D02*
X63727Y-30473D01*
X63792Y-30614D01*
X63858Y-30473D01*
X63858Y-30670D01*
X63989Y-30576D02*
X63989Y-30670D01*
X63924Y-30473D02*
X63989Y-30576D01*
X64055Y-30473D01*
X64074Y-30689D02*
X64224Y-30689D01*
X64271Y-30670D02*
X64271Y-30473D01*
X64383Y-30670D01*
X64383Y-30473D01*
X64477Y-30670D02*
X64477Y-30473D01*
X64552Y-30473D01*
X64571Y-30482D01*
X64580Y-30492D01*
X64590Y-30510D01*
X64590Y-30538D01*
X64580Y-30557D01*
X64571Y-30567D01*
X64552Y-30576D01*
X64477Y-30576D01*
X64674Y-30670D02*
X64674Y-30473D01*
X64787Y-30670D01*
X64787Y-30473D01*
G54D10*
X64172Y-29703D02*
X64157Y-29718D01*
X64112Y-29733D01*
X64082Y-29733D01*
X64037Y-29718D01*
X64007Y-29688D01*
X63992Y-29658D01*
X63977Y-29598D01*
X63977Y-29553D01*
X63992Y-29493D01*
X64007Y-29463D01*
X64037Y-29433D01*
X64082Y-29418D01*
X64112Y-29418D01*
X64157Y-29433D01*
X64172Y-29448D01*
X64307Y-29733D02*
X64307Y-29418D01*
X64382Y-29418D01*
X64427Y-29433D01*
X64457Y-29463D01*
X64472Y-29493D01*
X64487Y-29553D01*
X64487Y-29598D01*
X64472Y-29658D01*
X64457Y-29688D01*
X64427Y-29718D01*
X64382Y-29733D01*
X64307Y-29733D01*
X64408Y-31537D02*
X64513Y-31537D01*
X64558Y-31702D02*
X64408Y-31702D01*
X64408Y-31387D01*
X64558Y-31387D01*
X64678Y-31687D02*
X64723Y-31702D01*
X64798Y-31702D01*
X64828Y-31687D01*
X64843Y-31672D01*
X64858Y-31642D01*
X64858Y-31612D01*
X64843Y-31582D01*
X64828Y-31567D01*
X64798Y-31552D01*
X64738Y-31537D01*
X64708Y-31522D01*
X64693Y-31507D01*
X64678Y-31477D01*
X64678Y-31447D01*
X64693Y-31417D01*
X64708Y-31402D01*
X64738Y-31387D01*
X64813Y-31387D01*
X64858Y-31402D01*
X63703Y-31537D02*
X63748Y-31552D01*
X63763Y-31567D01*
X63778Y-31597D01*
X63778Y-31642D01*
X63763Y-31672D01*
X63748Y-31687D01*
X63718Y-31702D01*
X63598Y-31702D01*
X63598Y-31387D01*
X63703Y-31387D01*
X63733Y-31402D01*
X63748Y-31417D01*
X63763Y-31447D01*
X63763Y-31477D01*
X63748Y-31507D01*
X63733Y-31522D01*
X63703Y-31537D01*
X63598Y-31537D01*
X64078Y-31402D02*
X64048Y-31387D01*
X64003Y-31387D01*
X63958Y-31402D01*
X63928Y-31432D01*
X63913Y-31462D01*
X63898Y-31522D01*
X63898Y-31567D01*
X63913Y-31627D01*
X63928Y-31657D01*
X63958Y-31687D01*
X64003Y-31702D01*
X64033Y-31702D01*
X64078Y-31687D01*
X64093Y-31672D01*
X64093Y-31567D01*
X64033Y-31567D01*
G54D17*
X66738Y-30983D02*
X66438Y-30983D01*
X66709Y-30669D02*
X66724Y-30683D01*
X66738Y-30726D01*
X66738Y-30755D01*
X66724Y-30798D01*
X66695Y-30826D01*
X66667Y-30840D01*
X66609Y-30855D01*
X66567Y-30855D01*
X66509Y-30840D01*
X66481Y-30826D01*
X66452Y-30798D01*
X66438Y-30755D01*
X66438Y-30726D01*
X66452Y-30683D01*
X66467Y-30669D01*
X66738Y-30383D02*
X66738Y-30555D01*
X66738Y-30469D02*
X66438Y-30469D01*
X66481Y-30498D01*
X66509Y-30526D01*
X66524Y-30555D01*
X66438Y-30283D02*
X66438Y-30098D01*
X66552Y-30198D01*
X66552Y-30155D01*
X66567Y-30126D01*
X66581Y-30112D01*
X66609Y-30098D01*
X66681Y-30098D01*
X66709Y-30112D01*
X66724Y-30126D01*
X66738Y-30155D01*
X66738Y-30240D01*
X66724Y-30269D01*
X66709Y-30283D01*
G54D16*
X65132Y-30627D02*
X65132Y-30430D01*
X65198Y-30571D01*
X65263Y-30430D01*
X65263Y-30627D01*
X65395Y-30534D02*
X65395Y-30627D01*
X65329Y-30430D02*
X65395Y-30534D01*
X65460Y-30430D01*
X65479Y-30646D02*
X65629Y-30646D01*
X65676Y-30627D02*
X65676Y-30430D01*
X65751Y-30430D01*
X65770Y-30440D01*
X65779Y-30449D01*
X65789Y-30468D01*
X65789Y-30496D01*
X65779Y-30515D01*
X65770Y-30524D01*
X65751Y-30534D01*
X65676Y-30534D01*
X65873Y-30627D02*
X65873Y-30430D01*
X65986Y-30627D01*
X65986Y-30430D01*
X66079Y-30627D02*
X66079Y-30430D01*
X66154Y-30430D01*
X66173Y-30440D01*
X66183Y-30449D01*
X66192Y-30468D01*
X66192Y-30496D01*
X66183Y-30515D01*
X66173Y-30524D01*
X66154Y-30534D01*
X66079Y-30534D01*
G54D10*
X65572Y-29661D02*
X65557Y-29676D01*
X65512Y-29691D01*
X65482Y-29691D01*
X65437Y-29676D01*
X65407Y-29646D01*
X65392Y-29616D01*
X65377Y-29556D01*
X65377Y-29511D01*
X65392Y-29451D01*
X65407Y-29421D01*
X65437Y-29391D01*
X65482Y-29376D01*
X65512Y-29376D01*
X65557Y-29391D01*
X65572Y-29406D01*
X65707Y-29691D02*
X65707Y-29376D01*
X65782Y-29376D01*
X65827Y-29391D01*
X65857Y-29421D01*
X65872Y-29451D01*
X65887Y-29511D01*
X65887Y-29556D01*
X65872Y-29616D01*
X65857Y-29646D01*
X65827Y-29676D01*
X65782Y-29691D01*
X65707Y-29691D01*
X65808Y-31494D02*
X65913Y-31494D01*
X65958Y-31659D02*
X65808Y-31659D01*
X65808Y-31344D01*
X65958Y-31344D01*
X66078Y-31644D02*
X66123Y-31659D01*
X66198Y-31659D01*
X66228Y-31644D01*
X66243Y-31629D01*
X66258Y-31599D01*
X66258Y-31569D01*
X66243Y-31539D01*
X66228Y-31524D01*
X66198Y-31509D01*
X66138Y-31494D01*
X66108Y-31479D01*
X66093Y-31464D01*
X66078Y-31434D01*
X66078Y-31404D01*
X66093Y-31374D01*
X66108Y-31359D01*
X66138Y-31344D01*
X66213Y-31344D01*
X66258Y-31359D01*
X65104Y-31494D02*
X65149Y-31509D01*
X65164Y-31524D01*
X65179Y-31554D01*
X65179Y-31599D01*
X65164Y-31629D01*
X65149Y-31644D01*
X65119Y-31659D01*
X64999Y-31659D01*
X64999Y-31344D01*
X65104Y-31344D01*
X65134Y-31359D01*
X65149Y-31374D01*
X65164Y-31404D01*
X65164Y-31434D01*
X65149Y-31464D01*
X65134Y-31479D01*
X65104Y-31494D01*
X64999Y-31494D01*
X65479Y-31359D02*
X65449Y-31344D01*
X65404Y-31344D01*
X65359Y-31359D01*
X65329Y-31389D01*
X65314Y-31419D01*
X65299Y-31479D01*
X65299Y-31524D01*
X65314Y-31584D01*
X65329Y-31614D01*
X65359Y-31644D01*
X65404Y-31659D01*
X65434Y-31659D01*
X65479Y-31644D01*
X65494Y-31629D01*
X65494Y-31524D01*
X65434Y-31524D01*
G54D17*
X52523Y-40593D02*
X52223Y-40593D01*
X52494Y-40278D02*
X52508Y-40293D01*
X52523Y-40336D01*
X52523Y-40364D01*
X52508Y-40407D01*
X52480Y-40436D01*
X52451Y-40450D01*
X52394Y-40464D01*
X52351Y-40464D01*
X52294Y-40450D01*
X52265Y-40436D01*
X52237Y-40407D01*
X52223Y-40364D01*
X52223Y-40336D01*
X52237Y-40293D01*
X52251Y-40278D01*
X52523Y-39993D02*
X52523Y-40164D01*
X52523Y-40078D02*
X52223Y-40078D01*
X52265Y-40107D01*
X52294Y-40136D01*
X52308Y-40164D01*
X52223Y-39807D02*
X52223Y-39778D01*
X52237Y-39750D01*
X52251Y-39736D01*
X52280Y-39721D01*
X52337Y-39707D01*
X52408Y-39707D01*
X52465Y-39721D01*
X52494Y-39736D01*
X52508Y-39750D01*
X52523Y-39778D01*
X52523Y-39807D01*
X52508Y-39836D01*
X52494Y-39850D01*
X52465Y-39864D01*
X52408Y-39878D01*
X52337Y-39878D01*
X52280Y-39864D01*
X52251Y-39850D01*
X52237Y-39836D01*
X52223Y-39807D01*
G54D16*
X52713Y-40237D02*
X52713Y-40040D01*
X52779Y-40180D01*
X52844Y-40040D01*
X52844Y-40237D01*
X52976Y-40143D02*
X52976Y-40237D01*
X52910Y-40040D02*
X52976Y-40143D01*
X53041Y-40040D01*
X53060Y-40255D02*
X53210Y-40255D01*
X53323Y-40134D02*
X53257Y-40134D01*
X53257Y-40237D02*
X53257Y-40040D01*
X53351Y-40040D01*
X53426Y-40134D02*
X53492Y-40134D01*
X53520Y-40237D02*
X53426Y-40237D01*
X53426Y-40040D01*
X53520Y-40040D01*
X53576Y-40040D02*
X53689Y-40040D01*
X53632Y-40237D02*
X53632Y-40040D01*
X53707Y-40255D02*
X53858Y-40255D01*
X53904Y-40237D02*
X53904Y-40040D01*
X53979Y-40040D01*
X53998Y-40049D01*
X54008Y-40058D01*
X54017Y-40077D01*
X54017Y-40105D01*
X54008Y-40124D01*
X53998Y-40134D01*
X53979Y-40143D01*
X53904Y-40143D01*
G54D10*
X53325Y-41239D02*
X53310Y-41254D01*
X53265Y-41269D01*
X53235Y-41269D01*
X53190Y-41254D01*
X53160Y-41224D01*
X53145Y-41194D01*
X53130Y-41134D01*
X53130Y-41089D01*
X53145Y-41029D01*
X53160Y-40999D01*
X53190Y-40969D01*
X53235Y-40954D01*
X53265Y-40954D01*
X53310Y-40969D01*
X53325Y-40984D01*
X53460Y-41269D02*
X53460Y-40954D01*
X53535Y-40954D01*
X53580Y-40969D01*
X53610Y-40999D01*
X53625Y-41029D01*
X53640Y-41089D01*
X53640Y-41134D01*
X53625Y-41194D01*
X53610Y-41224D01*
X53580Y-41254D01*
X53535Y-41269D01*
X53460Y-41269D01*
X52774Y-39135D02*
X52879Y-39135D01*
X52924Y-39300D02*
X52774Y-39300D01*
X52774Y-38985D01*
X52924Y-38985D01*
X53044Y-39285D02*
X53089Y-39300D01*
X53164Y-39300D01*
X53194Y-39285D01*
X53209Y-39270D01*
X53224Y-39240D01*
X53224Y-39210D01*
X53209Y-39180D01*
X53194Y-39165D01*
X53164Y-39150D01*
X53104Y-39135D01*
X53074Y-39120D01*
X53059Y-39105D01*
X53044Y-39075D01*
X53044Y-39045D01*
X53059Y-39015D01*
X53074Y-39000D01*
X53104Y-38985D01*
X53179Y-38985D01*
X53224Y-39000D01*
X53644Y-39135D02*
X53689Y-39150D01*
X53704Y-39165D01*
X53719Y-39195D01*
X53719Y-39240D01*
X53704Y-39270D01*
X53689Y-39285D01*
X53659Y-39300D01*
X53539Y-39300D01*
X53539Y-38985D01*
X53644Y-38985D01*
X53674Y-39000D01*
X53689Y-39015D01*
X53704Y-39045D01*
X53704Y-39075D01*
X53689Y-39105D01*
X53674Y-39120D01*
X53644Y-39135D01*
X53539Y-39135D01*
X54019Y-39000D02*
X53989Y-38985D01*
X53944Y-38985D01*
X53899Y-39000D01*
X53869Y-39030D01*
X53854Y-39060D01*
X53839Y-39120D01*
X53839Y-39165D01*
X53854Y-39225D01*
X53869Y-39255D01*
X53899Y-39285D01*
X53944Y-39300D01*
X53974Y-39300D01*
X54019Y-39285D01*
X54034Y-39270D01*
X54034Y-39165D01*
X53974Y-39165D01*
G54D19*
X67462Y-32124D02*
X67462Y-31730D01*
X67874Y-32087D02*
X67856Y-32106D01*
X67799Y-32124D01*
X67762Y-32124D01*
X67705Y-32106D01*
X67668Y-32068D01*
X67649Y-32031D01*
X67630Y-31956D01*
X67630Y-31899D01*
X67649Y-31824D01*
X67668Y-31787D01*
X67705Y-31749D01*
X67762Y-31730D01*
X67799Y-31730D01*
X67856Y-31749D01*
X67874Y-31768D01*
X68250Y-32124D02*
X68024Y-32124D01*
X68137Y-32124D02*
X68137Y-31730D01*
X68099Y-31787D01*
X68062Y-31824D01*
X68024Y-31843D01*
X68587Y-31862D02*
X68587Y-32124D01*
X68493Y-31712D02*
X68400Y-31993D01*
X68644Y-31993D01*
G54D20*
X65522Y-29137D02*
X65457Y-29043D01*
X65410Y-29137D02*
X65410Y-28940D01*
X65485Y-28940D01*
X65504Y-28950D01*
X65513Y-28959D01*
X65522Y-28978D01*
X65522Y-29006D01*
X65513Y-29025D01*
X65504Y-29034D01*
X65485Y-29043D01*
X65410Y-29043D01*
X65588Y-28940D02*
X65710Y-28940D01*
X65644Y-29015D01*
X65673Y-29015D01*
X65691Y-29025D01*
X65701Y-29034D01*
X65710Y-29053D01*
X65710Y-29100D01*
X65701Y-29119D01*
X65691Y-29128D01*
X65673Y-29137D01*
X65616Y-29137D01*
X65598Y-29128D01*
X65588Y-29119D01*
X65776Y-28940D02*
X65898Y-28940D01*
X65832Y-29015D01*
X65860Y-29015D01*
X65879Y-29025D01*
X65888Y-29034D01*
X65898Y-29053D01*
X65898Y-29100D01*
X65888Y-29119D01*
X65879Y-29128D01*
X65860Y-29137D01*
X65804Y-29137D01*
X65785Y-29128D01*
X65776Y-29119D01*
X65710Y-29412D02*
X65644Y-29318D01*
X65598Y-29412D02*
X65598Y-29215D01*
X65673Y-29215D01*
X65691Y-29225D01*
X65701Y-29234D01*
X65710Y-29253D01*
X65710Y-29281D01*
X65701Y-29300D01*
X65691Y-29309D01*
X65673Y-29318D01*
X65598Y-29318D01*
G54D10*
X53971Y-30153D02*
X54226Y-30153D01*
X54256Y-30138D01*
X54271Y-30123D01*
X54286Y-30093D01*
X54286Y-30033D01*
X54271Y-30003D01*
X54256Y-29988D01*
X54226Y-29973D01*
X53971Y-29973D01*
X54286Y-29658D02*
X54286Y-29838D01*
X54286Y-29748D02*
X53971Y-29748D01*
X54016Y-29778D01*
X54046Y-29808D01*
X54061Y-29838D01*
X54001Y-29538D02*
X53986Y-29523D01*
X53971Y-29493D01*
X53971Y-29418D01*
X53986Y-29388D01*
X54001Y-29373D01*
X54031Y-29358D01*
X54061Y-29358D01*
X54106Y-29373D01*
X54286Y-29553D01*
X54286Y-29358D01*
X62286Y-30821D02*
X61971Y-30821D01*
X62196Y-30716D01*
X61971Y-30611D01*
X62286Y-30611D01*
X62136Y-30401D02*
X62286Y-30401D01*
X61971Y-30506D02*
X62136Y-30401D01*
X61971Y-30296D01*
X62316Y-30266D02*
X62316Y-30026D01*
X62286Y-29951D02*
X61971Y-29951D01*
X61971Y-29831D01*
X61986Y-29801D01*
X62001Y-29786D01*
X62031Y-29771D01*
X62076Y-29771D01*
X62106Y-29786D01*
X62121Y-29801D01*
X62136Y-29831D01*
X62136Y-29951D01*
X62286Y-29636D02*
X61971Y-29636D01*
X62286Y-29486D02*
X61971Y-29486D01*
X62286Y-29306D01*
X61971Y-29306D01*
X61971Y-29186D02*
X61971Y-28976D01*
X62286Y-29111D01*
X62001Y-28871D02*
X61986Y-28856D01*
X61971Y-28826D01*
X61971Y-28751D01*
X61986Y-28721D01*
X62001Y-28706D01*
X62031Y-28691D01*
X62061Y-28691D01*
X62106Y-28706D01*
X62286Y-28886D01*
X62286Y-28691D01*
X53853Y-40468D02*
X54108Y-40468D01*
X54138Y-40453D01*
X54153Y-40438D01*
X54168Y-40408D01*
X54168Y-40348D01*
X54153Y-40318D01*
X54138Y-40303D01*
X54108Y-40288D01*
X53853Y-40288D01*
X54168Y-39973D02*
X54168Y-40153D01*
X54168Y-40063D02*
X53853Y-40063D01*
X53898Y-40093D01*
X53928Y-40123D01*
X53943Y-40153D01*
X53853Y-39868D02*
X53853Y-39673D01*
X53973Y-39778D01*
X53973Y-39733D01*
X53988Y-39703D01*
X54003Y-39688D01*
X54033Y-39673D01*
X54108Y-39673D01*
X54138Y-39688D01*
X54153Y-39703D01*
X54168Y-39733D01*
X54168Y-39823D01*
X54153Y-39853D01*
X54138Y-39868D01*
X62168Y-41136D02*
X61853Y-41136D01*
X62078Y-41031D01*
X61853Y-40926D01*
X62168Y-40926D01*
X62018Y-40716D02*
X62168Y-40716D01*
X61853Y-40821D02*
X62018Y-40716D01*
X61853Y-40611D01*
X62198Y-40581D02*
X62198Y-40341D01*
X62168Y-40266D02*
X61853Y-40266D01*
X61853Y-40146D01*
X61868Y-40116D01*
X61883Y-40101D01*
X61913Y-40086D01*
X61958Y-40086D01*
X61988Y-40101D01*
X62003Y-40116D01*
X62018Y-40146D01*
X62018Y-40266D01*
X62168Y-39951D02*
X61853Y-39951D01*
X62168Y-39801D02*
X61853Y-39801D01*
X62168Y-39621D01*
X61853Y-39621D01*
X61853Y-39501D02*
X61853Y-39291D01*
X62168Y-39426D01*
X61883Y-39186D02*
X61868Y-39171D01*
X61853Y-39141D01*
X61853Y-39066D01*
X61868Y-39036D01*
X61883Y-39021D01*
X61913Y-39006D01*
X61943Y-39006D01*
X61988Y-39021D01*
X62168Y-39201D01*
X62168Y-39006D01*
M02*
