M48
;DRILL file {Pcbnew (2013-07-07 BZR 4022)-stable} date 2014/09/07 1:12:20
;FORMAT={-:-/ absolute / metric / decimal}
FMAT,2
METRIC,TZ
T1C0.635
T2C0.700
T3C0.800
T4C0.813
T5C0.850
T6C1.000
T7C1.200
T8C3.000
%
G90
G05
M71
T1
X103.625Y-103.7
X107.425Y-79.3
X109.375Y-123.35
X115.3Y-103.
X116.025Y-79.3
X116.3Y-99.6
X119.8Y-103.2
X120.175Y-116.35
X120.425Y-80.5
X120.725Y-90.1
X121.Y-107.7
X123.7Y-105.8
X125.625Y-79.3
X125.725Y-82.1
X125.9Y-107.6
X126.225Y-88.4
X126.225Y-89.8
X126.225Y-91.2
X127.Y-102.9
X127.7Y-107.6
X128.4Y-102.9
X130.1Y-102.4
X130.2Y-113.6
X131.825Y-106.35
X132.825Y-75.4
X133.4Y-114.6
X133.775Y-123.5
X134.25Y-107.65
X134.425Y-90.7
X135.325Y-83.
X135.9Y-104.5
X136.225Y-92.8
X136.725Y-86.3
X136.9Y-102.3
X137.275Y-125.95
X137.325Y-82.9
X137.525Y-92.4
X138.425Y-87.6
X138.525Y-94.2
X138.625Y-84.
X139.625Y-88.
X139.925Y-83.9
X140.825Y-88.
X140.925Y-82.9
X141.225Y-107.3
X142.225Y-90.3
X142.525Y-93.1
X143.825Y-122.
X145.875Y-121.
X145.925Y-80.1
X146.325Y-87.1
X149.025Y-83.9
X150.6Y-107.3
X150.725Y-83.7
X151.3Y-115.1
X151.4Y-122.1
X156.8Y-122.1
X159.6Y-107.1
X160.6Y-74.1
X161.5Y-101.6
X162.2Y-82.9
X163.525Y-90.7
X163.525Y-92.6
X163.6Y-85.1
X163.6Y-86.9
X165.025Y-85.4
X166.5Y-122.4
X166.6Y-87.1
X169.4Y-102.
X170.6Y-123.4
X170.7Y-102.
X172.9Y-102.1
X173.325Y-88.75
X176.8Y-80.9
X177.1Y-105.9
X177.125Y-92.95
X177.2Y-90.9
X177.5Y-122.9
X178.8Y-74.3
X180.Y-105.9
X183.Y-122.9
X185.4Y-91.1
X187.325Y-73.2
T2
X146.975Y-92.95
X148.475Y-92.95
X149.975Y-92.95
X151.475Y-92.95
X152.975Y-92.95
X154.475Y-92.95
T3
X102.2Y-132.
X102.5Y-134.7
X103.1Y-129.5
X104.1Y-136.9
X105.2Y-127.7
X105.25Y-74.75
X106.4Y-138.1
X107.8Y-127.
X109.2Y-138.1
X109.75Y-74.75
X110.4Y-127.7
X111.5Y-136.9
X112.5Y-129.5
X113.1Y-134.7
X113.4Y-132.
X114.75Y-74.75
X115.2Y-64.3
X115.7Y-132.
X116.Y-134.7
X116.6Y-129.5
X117.2Y-64.3
X117.6Y-136.9
X118.7Y-127.7
X119.25Y-74.75
X119.9Y-138.1
X121.3Y-127.
X121.7Y-64.3
X122.7Y-138.1
X123.7Y-64.3
X123.9Y-127.7
X124.25Y-74.75
X125.Y-136.9
X126.Y-129.5
X126.6Y-134.7
X126.9Y-132.
X128.7Y-64.3
X128.75Y-74.75
X130.7Y-64.3
X133.446Y-132.004
X133.746Y-134.704
X134.346Y-129.504
X135.2Y-64.3
X135.346Y-136.904
X136.446Y-127.704
X137.2Y-64.3
X137.646Y-138.104
X139.046Y-127.004
X140.446Y-138.104
X141.646Y-127.704
X142.746Y-136.904
X143.746Y-129.504
X144.346Y-134.704
X144.646Y-132.004
X146.946Y-132.004
X147.246Y-134.704
X147.846Y-129.504
X148.846Y-136.904
X149.946Y-127.704
X151.146Y-138.104
X152.546Y-127.004
X153.946Y-138.104
X155.146Y-127.704
X156.246Y-136.904
X157.246Y-129.504
X157.846Y-134.704
X158.146Y-132.004
X164.696Y-132.004
X164.996Y-134.704
X165.596Y-129.504
X166.596Y-136.904
X167.696Y-127.704
X168.896Y-138.104
X170.296Y-127.004
X171.696Y-138.104
X172.896Y-127.704
X173.996Y-136.904
X174.996Y-129.504
X175.596Y-134.704
X175.896Y-132.004
X178.196Y-132.004
X178.496Y-134.704
X179.096Y-129.504
X180.096Y-136.904
X181.196Y-127.704
X182.396Y-138.104
X183.796Y-127.004
X185.196Y-138.104
X186.396Y-127.704
X187.496Y-136.904
X188.496Y-129.504
X189.096Y-134.704
X189.396Y-132.004
T4
X139.536Y-111.884
X139.536Y-119.504
X142.076Y-111.884
X142.076Y-119.504
X144.616Y-111.884
X144.616Y-119.504
X147.156Y-111.884
X147.156Y-119.504
T5
X108.225Y-82.3
X108.225Y-93.8
T6
X97.2Y-63.26
X97.2Y-65.8
X97.2Y-68.34
X97.926Y-80.524
X97.926Y-83.064
X97.926Y-85.604
X97.926Y-88.144
X97.926Y-90.684
X97.926Y-106.724
X97.926Y-109.264
X97.926Y-111.804
X97.926Y-114.344
X97.926Y-116.884
X100.466Y-80.524
X100.466Y-83.064
X100.466Y-85.604
X100.466Y-88.144
X100.466Y-90.684
X100.466Y-106.724
X100.466Y-109.264
X100.466Y-111.804
X100.466Y-114.344
X100.466Y-116.884
X119.216Y-111.884
X119.216Y-119.504
X121.756Y-111.884
X121.756Y-119.504
X124.296Y-111.884
X124.296Y-119.504
X126.836Y-111.884
X126.836Y-119.504
X129.376Y-111.884
X129.376Y-119.504
X130.7Y-122.06
X130.7Y-124.6
X130.7Y-127.14
X131.916Y-111.884
X131.916Y-119.504
X134.456Y-111.884
X134.456Y-119.504
X136.996Y-111.884
X136.996Y-119.504
X139.805Y-100.53
X139.805Y-103.07
X140.105Y-74.33
X140.105Y-76.87
X142.345Y-100.53
X142.345Y-103.07
X142.645Y-74.33
X142.645Y-76.87
X144.885Y-100.53
X144.885Y-103.07
X145.185Y-74.33
X145.185Y-76.87
X147.425Y-100.53
X147.425Y-103.07
X147.725Y-74.33
X147.725Y-76.87
X149.696Y-111.884
X149.696Y-119.504
X149.965Y-100.53
X149.965Y-103.07
X150.265Y-74.33
X150.265Y-76.87
X152.236Y-111.884
X152.236Y-119.504
X152.505Y-100.53
X152.505Y-103.07
X152.805Y-74.33
X152.805Y-76.87
X154.776Y-111.884
X154.776Y-119.504
X155.045Y-100.53
X155.045Y-103.07
X155.2Y-63.26
X155.2Y-65.8
X155.2Y-68.34
X155.345Y-74.33
X155.345Y-76.87
X157.316Y-111.884
X157.316Y-119.504
X159.856Y-111.884
X159.856Y-119.504
X162.Y-122.06
X162.Y-124.6
X162.Y-127.14
X162.396Y-111.884
X162.396Y-119.504
X164.936Y-111.884
X164.936Y-119.504
X167.476Y-111.884
X167.476Y-119.504
X170.016Y-111.884
X170.016Y-119.504
X172.556Y-111.884
X172.556Y-119.504
X175.096Y-111.884
X175.096Y-119.504
X177.636Y-111.884
X177.636Y-119.504
X180.176Y-111.884
X180.176Y-119.504
X182.716Y-111.884
X182.716Y-119.504
X185.256Y-111.884
X185.256Y-119.504
X187.796Y-111.884
X187.796Y-119.504
X190.926Y-80.524
X190.926Y-83.064
X190.926Y-85.604
X190.926Y-88.144
X190.926Y-90.684
X190.926Y-106.724
X190.926Y-109.264
X190.926Y-111.804
X190.926Y-114.344
X190.926Y-116.884
X193.466Y-80.524
X193.466Y-83.064
X193.466Y-85.604
X193.466Y-88.144
X193.466Y-90.684
X193.466Y-106.724
X193.466Y-109.264
X193.466Y-111.804
X193.466Y-114.344
X193.466Y-116.884
T7
X104.Y-77.25
X111.Y-77.25
X113.5Y-77.25
X120.5Y-77.25
X123.Y-77.25
X130.Y-77.25
T8
X99.196Y-75.604
X99.196Y-101.804
X99.288Y-137.496
X192.196Y-75.604
X192.196Y-101.804
X192.252Y-137.496
T3
X103.7Y-109.2G85X103.7Y-107.
G05
X107.4Y-104.85G85X109.6Y-104.85
G05
X107.4Y-111.1G85X109.6Y-111.1
G05
T0
M30
