G04 (created by PCBNEW (2013-07-07 BZR 4022)-stable) date 2014/09/06 23:28:59*
%MOIN*%
G04 Gerber Fmt 3.4, Leading zero omitted, Abs format*
%FSLAX34Y34*%
G01*
G70*
G90*
G04 APERTURE LIST*
%ADD10C,0.00590551*%
%ADD11R,0.025X0.05*%
%ADD12C,0.0629921*%
%ADD13R,0.0787X0.0177*%
%ADD14R,0.0177X0.0787*%
%ADD15R,0.0197X0.0906*%
%ADD16R,0.0984252X0.0708661*%
%ADD17O,0.0787402X0.165354*%
%ADD18O,0.165354X0.0787402*%
%ADD19R,0.11811X0.11811*%
%ADD20R,0.0394X0.0315*%
%ADD21R,0.05X0.025*%
%ADD22R,0.06X0.08*%
%ADD23R,0.035X0.055*%
%ADD24R,0.055X0.035*%
%ADD25R,0.025X0.045*%
%ADD26R,0.045X0.025*%
%ADD27R,0.144X0.08*%
%ADD28R,0.04X0.08*%
%ADD29R,0.0393701X0.0354331*%
%ADD30R,0.0433071X0.0354331*%
%ADD31R,0.19685X0.0314961*%
%ADD32R,0.0393701X0.0905512*%
%ADD33C,0.0551181*%
%ADD34R,0.0511811X0.0866142*%
%ADD35R,0.0472441X0.0551181*%
%ADD36O,0.0433071X0.0669291*%
%ADD37C,0.055*%
%ADD38C,0.23622*%
%ADD39C,0.0708661*%
%ADD40R,0.0315X0.0394*%
%ADD41R,0.0591X0.0984*%
%ADD42R,0.2756X0.2756*%
%ADD43C,0.035*%
%ADD44C,0.01*%
G04 APERTURE END LIST*
G54D10*
G54D11*
X69072Y-39726D03*
X68572Y-39726D03*
X68072Y-39726D03*
X67572Y-39726D03*
X67072Y-39726D03*
X66572Y-39726D03*
X66072Y-39726D03*
X65572Y-39726D03*
X65572Y-42556D03*
X66072Y-42556D03*
X66572Y-42556D03*
X67072Y-42556D03*
X67572Y-42556D03*
X68072Y-42556D03*
X68572Y-42556D03*
X69072Y-42556D03*
G54D12*
X65935Y-44048D03*
X64935Y-44048D03*
X63935Y-44048D03*
X62935Y-44048D03*
X61935Y-44048D03*
X60935Y-44048D03*
X59935Y-44048D03*
X58935Y-44048D03*
X58935Y-47048D03*
X59935Y-47048D03*
X60935Y-47048D03*
X61935Y-47048D03*
X62935Y-47048D03*
X63935Y-47048D03*
X64935Y-47048D03*
X65935Y-47048D03*
G54D13*
X52582Y-32530D03*
X52582Y-32215D03*
X52582Y-31900D03*
X52582Y-31585D03*
X52582Y-31270D03*
X52582Y-30955D03*
X52582Y-30640D03*
X52582Y-30325D03*
X56348Y-30327D03*
X56348Y-32537D03*
X56348Y-32217D03*
X56348Y-31897D03*
X56348Y-31587D03*
X56348Y-31267D03*
X56348Y-30957D03*
X56348Y-30637D03*
G54D14*
X53366Y-29537D03*
X53680Y-29537D03*
X53996Y-29537D03*
X54310Y-29537D03*
X54626Y-29537D03*
X54940Y-29537D03*
X55256Y-29537D03*
X55570Y-29537D03*
X53368Y-33317D03*
X53678Y-33317D03*
X53998Y-33317D03*
X54308Y-33317D03*
X54618Y-33317D03*
X54938Y-33317D03*
X55258Y-33317D03*
X55578Y-33317D03*
G54D15*
X50825Y-41320D03*
X50510Y-41320D03*
X50195Y-41320D03*
X49880Y-41320D03*
X49565Y-41320D03*
G54D16*
X51927Y-40749D03*
X51927Y-39883D03*
X48462Y-40749D03*
X48462Y-39883D03*
G54D17*
X40826Y-42559D03*
G54D18*
X42716Y-41279D03*
X42716Y-43740D03*
G54D19*
X70317Y-28304D03*
X73546Y-28304D03*
G54D11*
X64489Y-32711D03*
X64989Y-32711D03*
X65489Y-32711D03*
X65989Y-32711D03*
X65989Y-30511D03*
X65489Y-30511D03*
X64989Y-30511D03*
X64489Y-30511D03*
G54D20*
X69881Y-32716D03*
X70747Y-32341D03*
X70747Y-33091D03*
G54D21*
X46852Y-32202D03*
X46852Y-32702D03*
X46852Y-33202D03*
X46852Y-33702D03*
X49052Y-33702D03*
X49052Y-33202D03*
X49052Y-32702D03*
X49052Y-32202D03*
G54D22*
X74035Y-31299D03*
X72735Y-31299D03*
G54D23*
X63840Y-29603D03*
X64590Y-29603D03*
G54D24*
X71695Y-34070D03*
X71695Y-34820D03*
X71653Y-32341D03*
X71653Y-33091D03*
G54D23*
X71634Y-31299D03*
X70884Y-31299D03*
G54D24*
X59301Y-29745D03*
X59301Y-28995D03*
X65039Y-34193D03*
X65039Y-33443D03*
G54D23*
X66752Y-34133D03*
X66002Y-34133D03*
X66007Y-29603D03*
X65257Y-29603D03*
X63847Y-26889D03*
X64597Y-26889D03*
X45343Y-33700D03*
X46093Y-33700D03*
X46093Y-31968D03*
X45343Y-31968D03*
X60225Y-32401D03*
X60975Y-32401D03*
X60975Y-30984D03*
X60225Y-30984D03*
X60225Y-31692D03*
X60975Y-31692D03*
X60975Y-33110D03*
X60225Y-33110D03*
X45343Y-32913D03*
X46093Y-32913D03*
X47312Y-34527D03*
X48062Y-34527D03*
X75493Y-47007D03*
X74743Y-47007D03*
G54D24*
X58671Y-32461D03*
X58671Y-31711D03*
G54D25*
X46687Y-34527D03*
X46087Y-34527D03*
X64866Y-39763D03*
X64266Y-39763D03*
G54D26*
X57923Y-31441D03*
X57923Y-30841D03*
X50875Y-34424D03*
X50875Y-35024D03*
X51663Y-34424D03*
X51663Y-35024D03*
X51584Y-31117D03*
X51584Y-31717D03*
G54D25*
X68095Y-34153D03*
X68695Y-34153D03*
G54D27*
X46259Y-42402D03*
G54D28*
X46259Y-39802D03*
X45359Y-39802D03*
X47159Y-39802D03*
G54D29*
X66790Y-33307D03*
G54D30*
X67165Y-32125D03*
G54D29*
X67540Y-33307D03*
X68443Y-33307D03*
G54D30*
X68818Y-32125D03*
G54D29*
X69193Y-33307D03*
G54D31*
X73464Y-32460D03*
X73464Y-34862D03*
G54D32*
X61131Y-29330D03*
X60068Y-29330D03*
G54D33*
X47755Y-50000D03*
X48307Y-54370D03*
X49212Y-53897D03*
X49842Y-53031D03*
X49960Y-51968D03*
X49606Y-50984D03*
X48779Y-50275D03*
X46732Y-50275D03*
X45905Y-50984D03*
X45551Y-51968D03*
X45669Y-53031D03*
X46299Y-53897D03*
X47204Y-54370D03*
X42440Y-50000D03*
X42992Y-54370D03*
X43897Y-53897D03*
X44527Y-53031D03*
X44645Y-51968D03*
X44291Y-50984D03*
X43464Y-50275D03*
X41417Y-50275D03*
X40590Y-50984D03*
X40236Y-51968D03*
X40354Y-53031D03*
X40984Y-53897D03*
X41889Y-54370D03*
X54742Y-50001D03*
X55293Y-54371D03*
X56199Y-53899D03*
X56829Y-53033D03*
X56947Y-51970D03*
X56592Y-50985D03*
X55766Y-50277D03*
X53718Y-50277D03*
X52892Y-50985D03*
X52537Y-51970D03*
X52655Y-53033D03*
X53285Y-53899D03*
X54191Y-54371D03*
X60057Y-50001D03*
X60608Y-54371D03*
X61514Y-53899D03*
X62144Y-53033D03*
X62262Y-51970D03*
X61907Y-50985D03*
X61081Y-50277D03*
X59033Y-50277D03*
X58207Y-50985D03*
X57852Y-51970D03*
X57970Y-53033D03*
X58600Y-53899D03*
X59506Y-54371D03*
X67045Y-50001D03*
X67596Y-54371D03*
X68502Y-53899D03*
X69132Y-53033D03*
X69250Y-51970D03*
X68896Y-50985D03*
X68069Y-50277D03*
X66022Y-50277D03*
X65195Y-50985D03*
X64840Y-51970D03*
X64959Y-53033D03*
X65588Y-53899D03*
X66494Y-54371D03*
X72360Y-50001D03*
X72911Y-54371D03*
X73817Y-53899D03*
X74447Y-53033D03*
X74565Y-51970D03*
X74211Y-50985D03*
X73384Y-50277D03*
X71337Y-50277D03*
X70510Y-50985D03*
X70155Y-51970D03*
X70274Y-53033D03*
X70903Y-53899D03*
X71809Y-54371D03*
X45275Y-20275D03*
X46062Y-20275D03*
X47834Y-20275D03*
X48622Y-20275D03*
X61417Y-20275D03*
X62204Y-20275D03*
X63976Y-20275D03*
X64763Y-20275D03*
X42608Y-34645D03*
X42608Y-30118D03*
G54D34*
X48818Y-31220D03*
X47165Y-31220D03*
G54D35*
X51584Y-33622D03*
X51584Y-32755D03*
X50954Y-33622D03*
X50954Y-32755D03*
G54D36*
X60816Y-34311D03*
X60226Y-34311D03*
X59635Y-34311D03*
X59045Y-34311D03*
X58454Y-34311D03*
X57864Y-34311D03*
G54D12*
X54330Y-21866D03*
X54330Y-20866D03*
X54330Y-19866D03*
X51456Y-50055D03*
X51456Y-49055D03*
X51456Y-48055D03*
X38188Y-21866D03*
X38188Y-20866D03*
X38188Y-19866D03*
X63779Y-50055D03*
X63779Y-49055D03*
X63779Y-48055D03*
G54D37*
X55935Y-44048D03*
X54935Y-44048D03*
X54935Y-47048D03*
X55935Y-47048D03*
X57935Y-44048D03*
X56935Y-44048D03*
X56935Y-47048D03*
X57935Y-47048D03*
G54D12*
X75167Y-29418D03*
X75167Y-30418D03*
X75167Y-31418D03*
X75167Y-32418D03*
X75167Y-33418D03*
X76167Y-33418D03*
X76167Y-32418D03*
X76167Y-31418D03*
X76167Y-30418D03*
X76167Y-29418D03*
X38553Y-29418D03*
X38553Y-30418D03*
X38553Y-31418D03*
X38553Y-32418D03*
X38553Y-33418D03*
X39553Y-33418D03*
X39553Y-32418D03*
X39553Y-31418D03*
X39553Y-30418D03*
X39553Y-29418D03*
X75167Y-42017D03*
X75167Y-43017D03*
X75167Y-44017D03*
X75167Y-45017D03*
X75167Y-46017D03*
X76167Y-46017D03*
X76167Y-45017D03*
X76167Y-44017D03*
X76167Y-43017D03*
X76167Y-42017D03*
X38553Y-42017D03*
X38553Y-43017D03*
X38553Y-44017D03*
X38553Y-45017D03*
X38553Y-46017D03*
X39553Y-46017D03*
X39553Y-45017D03*
X39553Y-44017D03*
X39553Y-43017D03*
X39553Y-42017D03*
X53935Y-44048D03*
X52935Y-44048D03*
X51935Y-44048D03*
X50935Y-44048D03*
X49935Y-44048D03*
X48935Y-44048D03*
X47935Y-44048D03*
X46935Y-44048D03*
X46935Y-47048D03*
X47935Y-47048D03*
X48935Y-47048D03*
X49935Y-47048D03*
X50935Y-47048D03*
X51935Y-47048D03*
X52935Y-47048D03*
X53935Y-47048D03*
X73935Y-44048D03*
X72935Y-44048D03*
X71935Y-44048D03*
X70935Y-44048D03*
X69935Y-44048D03*
X68935Y-44048D03*
X67935Y-44048D03*
X66935Y-44048D03*
X66935Y-47048D03*
X67935Y-47048D03*
X68935Y-47048D03*
X69935Y-47048D03*
X70935Y-47048D03*
X71935Y-47048D03*
X72935Y-47048D03*
X73935Y-47048D03*
G54D38*
X75689Y-54132D03*
X75667Y-27481D03*
X39053Y-27481D03*
X39089Y-54132D03*
X39053Y-40080D03*
X75667Y-40080D03*
G54D33*
X43208Y-27145D03*
X41437Y-27145D03*
G54D39*
X40944Y-28129D03*
X43700Y-28129D03*
G54D33*
X46948Y-27145D03*
X45177Y-27145D03*
G54D39*
X44685Y-28129D03*
X47440Y-28129D03*
G54D33*
X50688Y-27145D03*
X48917Y-27145D03*
G54D39*
X48425Y-28129D03*
X51181Y-28129D03*
G54D40*
X64232Y-27874D03*
X64607Y-28740D03*
X63857Y-28740D03*
X65632Y-27831D03*
X66007Y-28697D03*
X65257Y-28697D03*
X53385Y-40590D03*
X53010Y-39724D03*
X53760Y-39724D03*
G54D41*
X67138Y-30567D03*
X68930Y-30567D03*
G54D42*
X68034Y-27851D03*
G54D23*
X65274Y-26899D03*
X66024Y-26899D03*
G54D12*
X55159Y-27980D03*
X56159Y-27980D03*
X57159Y-27980D03*
X58159Y-27980D03*
X59159Y-27980D03*
X60159Y-27980D03*
X61159Y-27980D03*
X61159Y-26980D03*
X60159Y-26980D03*
X59159Y-26980D03*
X58159Y-26980D03*
X57159Y-26980D03*
X56159Y-26980D03*
X55159Y-26980D03*
X55041Y-40578D03*
X56041Y-40578D03*
X57041Y-40578D03*
X58041Y-40578D03*
X59041Y-40578D03*
X60041Y-40578D03*
X61041Y-40578D03*
X61041Y-39578D03*
X60041Y-39578D03*
X59041Y-39578D03*
X58041Y-39578D03*
X57041Y-39578D03*
X56041Y-39578D03*
X55041Y-39578D03*
G54D43*
X58592Y-42598D03*
X51269Y-44724D03*
X61820Y-48031D03*
X52450Y-45157D03*
X59616Y-48070D03*
X65561Y-48188D03*
X69891Y-48464D03*
X72017Y-48425D03*
X54537Y-34803D03*
X73750Y-26535D03*
X55600Y-42244D03*
X40797Y-40826D03*
X52854Y-42381D03*
X55994Y-33267D03*
X55442Y-32362D03*
X57450Y-29251D03*
X54498Y-32204D03*
X56112Y-34370D03*
X54970Y-32362D03*
X55482Y-30354D03*
X54064Y-30354D03*
X59340Y-30669D03*
X57608Y-32007D03*
X54143Y-34094D03*
X53631Y-34251D03*
X52923Y-33425D03*
X53277Y-30393D03*
X49694Y-32519D03*
X49694Y-33070D03*
X54576Y-30787D03*
X49694Y-33622D03*
X55088Y-30748D03*
X43061Y-48562D03*
X47312Y-45807D03*
X56624Y-48031D03*
X57431Y-47637D03*
X52667Y-48622D03*
X54045Y-49586D03*
X51220Y-40314D03*
X45787Y-39212D03*
X48700Y-41653D03*
X47165Y-40629D03*
X68238Y-32657D03*
X69734Y-34311D03*
X53503Y-41141D03*
X47637Y-42401D03*
X53897Y-40275D03*
X45393Y-40551D03*
X64970Y-31338D03*
X64379Y-34173D03*
X63858Y-30354D03*
X65590Y-32007D03*
X49566Y-42362D03*
X50000Y-40511D03*
X50551Y-40511D03*
X47529Y-33188D03*
X49458Y-28937D03*
X45679Y-28937D03*
X42293Y-28937D03*
X52293Y-27401D03*
X64379Y-33425D03*
X64409Y-31220D03*
X63228Y-26889D03*
X70393Y-26968D03*
X50275Y-42362D03*
X51899Y-41870D03*
X47411Y-29409D03*
X49498Y-30039D03*
X58671Y-30748D03*
X53828Y-31692D03*
X64409Y-31929D03*
X69606Y-29566D03*
X72992Y-33582D03*
X69763Y-33503D03*
G54D44*
X72017Y-48425D02*
X72057Y-48385D01*
X52854Y-42381D02*
X52913Y-42440D01*
X54419Y-42244D02*
X55600Y-42244D01*
X54222Y-42440D02*
X54419Y-42244D01*
X52913Y-42440D02*
X54222Y-42440D01*
X49935Y-44048D02*
X49200Y-44783D01*
X49200Y-44783D02*
X45206Y-44783D01*
X45206Y-44783D02*
X44202Y-43779D01*
X44202Y-43779D02*
X44202Y-43110D01*
X44202Y-43110D02*
X43612Y-42519D01*
X43612Y-42519D02*
X42391Y-42519D01*
X42391Y-42519D02*
X40797Y-40925D01*
X40797Y-40925D02*
X40797Y-40826D01*
X49935Y-44048D02*
X49935Y-43598D01*
X49935Y-43598D02*
X50167Y-43366D01*
X50167Y-43366D02*
X50994Y-43366D01*
X50994Y-43366D02*
X51624Y-42657D01*
X51624Y-42657D02*
X52854Y-42381D01*
X42716Y-43740D02*
X40944Y-45511D01*
X39048Y-45511D02*
X38553Y-45017D01*
X40944Y-45511D02*
X39048Y-45511D01*
X53366Y-29537D02*
X53366Y-28926D01*
X54312Y-27980D02*
X55159Y-27980D01*
X53366Y-28926D02*
X54312Y-27980D01*
X55159Y-26980D02*
X54683Y-26980D01*
X52582Y-29081D02*
X52582Y-30325D01*
X54683Y-26980D02*
X52582Y-29081D01*
X55944Y-33317D02*
X55578Y-33317D01*
X55994Y-33267D02*
X55944Y-33317D01*
X58454Y-34311D02*
X58454Y-33641D01*
X55529Y-33267D02*
X55578Y-33317D01*
X58080Y-33267D02*
X55529Y-33267D01*
X58454Y-33641D02*
X58080Y-33267D01*
X55258Y-32546D02*
X55258Y-33317D01*
X55442Y-32362D02*
X55258Y-32546D01*
X55258Y-33317D02*
X55258Y-33831D01*
X57864Y-33917D02*
X57864Y-34311D01*
X57726Y-33779D02*
X57864Y-33917D01*
X56072Y-33779D02*
X57726Y-33779D01*
X55836Y-34015D02*
X56072Y-33779D01*
X55442Y-34015D02*
X55836Y-34015D01*
X55258Y-33831D02*
X55442Y-34015D01*
X60159Y-27980D02*
X59596Y-28543D01*
X59596Y-28543D02*
X58159Y-28543D01*
X58159Y-28543D02*
X57450Y-29251D01*
X54498Y-32204D02*
X54308Y-32394D01*
X54308Y-32394D02*
X54308Y-33317D01*
X54308Y-32394D02*
X54308Y-33317D01*
X54618Y-33317D02*
X54618Y-34057D01*
X54931Y-34370D02*
X56112Y-34370D01*
X54618Y-34057D02*
X54931Y-34370D01*
X54970Y-32362D02*
X54938Y-32394D01*
X54938Y-32394D02*
X54938Y-33317D01*
X58159Y-26980D02*
X57647Y-27492D01*
X56931Y-30637D02*
X56348Y-30637D01*
X57017Y-30551D02*
X56931Y-30637D01*
X57017Y-29055D02*
X57017Y-30551D01*
X57647Y-28425D02*
X57017Y-29055D01*
X57647Y-27492D02*
X57647Y-28425D01*
X57159Y-27980D02*
X57159Y-28401D01*
X56348Y-29212D02*
X56348Y-30327D01*
X57159Y-28401D02*
X56348Y-29212D01*
X57159Y-26980D02*
X56663Y-27476D01*
X56663Y-28443D02*
X55570Y-29537D01*
X56663Y-27476D02*
X56663Y-28443D01*
X55256Y-30128D02*
X55256Y-29537D01*
X55482Y-30354D02*
X55256Y-30128D01*
X59045Y-41279D02*
X59045Y-40578D01*
X56935Y-44048D02*
X56935Y-43389D01*
X56935Y-43389D02*
X59045Y-41279D01*
X54935Y-44048D02*
X54935Y-43598D01*
X54935Y-43598D02*
X55147Y-43385D01*
X58553Y-40070D02*
X59045Y-39578D01*
X58553Y-41220D02*
X58553Y-40070D01*
X56387Y-43385D02*
X58553Y-41220D01*
X55147Y-43385D02*
X56387Y-43385D01*
X58045Y-39578D02*
X57549Y-40074D01*
X57549Y-40074D02*
X57549Y-41023D01*
X52011Y-42972D02*
X50935Y-44048D01*
X54320Y-42972D02*
X52011Y-42972D01*
X54655Y-42637D02*
X54320Y-42972D01*
X55935Y-42637D02*
X54655Y-42637D01*
X57549Y-41023D02*
X55935Y-42637D01*
X51935Y-44048D02*
X52602Y-43382D01*
X58045Y-41137D02*
X58045Y-40578D01*
X56171Y-43011D02*
X58045Y-41137D01*
X54872Y-43011D02*
X56171Y-43011D01*
X54501Y-43382D02*
X54872Y-43011D01*
X52602Y-43382D02*
X54501Y-43382D01*
X54310Y-30108D02*
X54310Y-29537D01*
X54064Y-30354D02*
X54310Y-30108D01*
X60975Y-33110D02*
X60975Y-33365D01*
X60226Y-33799D02*
X60226Y-34311D01*
X60324Y-33700D02*
X60226Y-33799D01*
X60403Y-33700D02*
X60324Y-33700D01*
X60639Y-33700D02*
X60403Y-33700D01*
X60975Y-33365D02*
X60639Y-33700D01*
X56348Y-32537D02*
X56956Y-32537D01*
X59045Y-33287D02*
X59045Y-34311D01*
X58750Y-32992D02*
X59045Y-33287D01*
X57411Y-32992D02*
X58750Y-32992D01*
X56956Y-32537D02*
X57411Y-32992D01*
X60068Y-29330D02*
X60068Y-29822D01*
X59340Y-30551D02*
X59340Y-30669D01*
X60068Y-29822D02*
X59340Y-30551D01*
X56348Y-31897D02*
X57497Y-31897D01*
X57497Y-31897D02*
X57608Y-32007D01*
X59301Y-28995D02*
X59733Y-28995D01*
X59733Y-28995D02*
X60068Y-29330D01*
X53998Y-33949D02*
X53998Y-33317D01*
X54143Y-34094D02*
X53998Y-33949D01*
X53678Y-33317D02*
X53678Y-34205D01*
X53678Y-34205D02*
X53631Y-34251D01*
X53031Y-33317D02*
X53368Y-33317D01*
X52923Y-33425D02*
X53031Y-33317D01*
X53277Y-30393D02*
X53031Y-30640D01*
X52582Y-30640D02*
X53031Y-30640D01*
X49052Y-32702D02*
X49511Y-32702D01*
X49511Y-32702D02*
X49694Y-32519D01*
X49052Y-32702D02*
X48606Y-32702D01*
X48395Y-34193D02*
X48062Y-34527D01*
X48395Y-32913D02*
X48395Y-34193D01*
X48606Y-32702D02*
X48395Y-32913D01*
X49052Y-33202D02*
X49562Y-33202D01*
X49562Y-33202D02*
X49694Y-33070D01*
X54626Y-29537D02*
X54626Y-30737D01*
X54626Y-30737D02*
X54576Y-30787D01*
X49052Y-33702D02*
X49614Y-33702D01*
X49614Y-33702D02*
X49694Y-33622D01*
X54940Y-30599D02*
X54940Y-29537D01*
X55088Y-30748D02*
X54940Y-30599D01*
X72935Y-43600D02*
X72935Y-44048D01*
X67572Y-42556D02*
X67072Y-42556D01*
X52935Y-44048D02*
X51826Y-45157D01*
X46466Y-45157D02*
X43061Y-48562D01*
X51826Y-45157D02*
X46466Y-45157D01*
X43579Y-54960D02*
X42990Y-54371D01*
X47716Y-54960D02*
X43579Y-54960D01*
X48305Y-54371D02*
X47716Y-54960D01*
X48894Y-54960D02*
X48305Y-54371D01*
X54704Y-54960D02*
X48894Y-54960D01*
X55293Y-54371D02*
X54704Y-54960D01*
X60608Y-54371D02*
X60019Y-54960D01*
X55882Y-54960D02*
X55293Y-54371D01*
X60019Y-54960D02*
X55882Y-54960D01*
X67596Y-54371D02*
X67007Y-54960D01*
X67007Y-54960D02*
X61197Y-54960D01*
X61197Y-54960D02*
X60608Y-54371D01*
X72911Y-54371D02*
X72322Y-54960D01*
X72322Y-54960D02*
X68185Y-54960D01*
X68185Y-54960D02*
X67596Y-54371D01*
X53935Y-44637D02*
X53935Y-44048D01*
X52765Y-45807D02*
X53935Y-44637D01*
X47312Y-45807D02*
X52765Y-45807D01*
X49211Y-53899D02*
X48815Y-53503D01*
X44327Y-54330D02*
X43896Y-53899D01*
X46535Y-54330D02*
X44327Y-54330D01*
X47362Y-53503D02*
X46535Y-54330D01*
X48815Y-53503D02*
X47362Y-53503D01*
X56199Y-53899D02*
X55803Y-53503D01*
X49642Y-54330D02*
X49211Y-53899D01*
X50826Y-54330D02*
X49642Y-54330D01*
X53543Y-54330D02*
X50826Y-54330D01*
X54370Y-53503D02*
X53543Y-54330D01*
X55803Y-53503D02*
X54370Y-53503D01*
X57165Y-54330D02*
X56630Y-54330D01*
X61118Y-53503D02*
X59685Y-53503D01*
X59685Y-53503D02*
X58858Y-54330D01*
X58858Y-54330D02*
X57165Y-54330D01*
X61514Y-53899D02*
X61118Y-53503D01*
X56630Y-54330D02*
X56199Y-53899D01*
X67244Y-53503D02*
X66653Y-53503D01*
X68107Y-53503D02*
X67244Y-53503D01*
X68502Y-53899D02*
X68107Y-53503D01*
X61945Y-54330D02*
X61514Y-53899D01*
X65826Y-54330D02*
X61945Y-54330D01*
X66653Y-53503D02*
X65826Y-54330D01*
X73817Y-53899D02*
X73737Y-53818D01*
X73737Y-53818D02*
X71732Y-53818D01*
X71732Y-53818D02*
X71220Y-54330D01*
X71220Y-54330D02*
X68933Y-54330D01*
X68933Y-54330D02*
X68502Y-53899D01*
X52935Y-47048D02*
X53918Y-48031D01*
X53918Y-48031D02*
X56624Y-48031D01*
X56829Y-53033D02*
X56670Y-52874D01*
X56670Y-52874D02*
X53543Y-52874D01*
X62144Y-53033D02*
X61985Y-52874D01*
X57378Y-53582D02*
X56829Y-53033D01*
X58149Y-53582D02*
X57378Y-53582D01*
X58858Y-52874D02*
X58149Y-53582D01*
X61985Y-52874D02*
X58858Y-52874D01*
X68188Y-52874D02*
X66220Y-52874D01*
X68973Y-52874D02*
X68188Y-52874D01*
X69132Y-53033D02*
X68973Y-52874D01*
X62693Y-53582D02*
X62144Y-53033D01*
X65157Y-53582D02*
X62693Y-53582D01*
X65866Y-52874D02*
X65157Y-53582D01*
X66220Y-52874D02*
X65866Y-52874D01*
X45075Y-53582D02*
X44525Y-53033D01*
X49840Y-53033D02*
X49681Y-52874D01*
X50390Y-53582D02*
X49840Y-53033D01*
X52834Y-53582D02*
X50390Y-53582D01*
X53543Y-52874D02*
X52834Y-53582D01*
X49681Y-52874D02*
X46574Y-52874D01*
X45866Y-53582D02*
X45075Y-53582D01*
X46574Y-52874D02*
X45866Y-53582D01*
X74447Y-53033D02*
X70943Y-53033D01*
X70943Y-53033D02*
X70433Y-53543D01*
X70433Y-53543D02*
X69642Y-53543D01*
X69642Y-53543D02*
X69132Y-53033D01*
X53935Y-47048D02*
X54524Y-47637D01*
X54524Y-47637D02*
X57431Y-47637D01*
X49604Y-50985D02*
X49604Y-51025D01*
X49604Y-51025D02*
X49015Y-51614D01*
X56592Y-50985D02*
X56592Y-51005D01*
X50198Y-50985D02*
X49604Y-50985D01*
X51062Y-51850D02*
X50198Y-50985D01*
X51889Y-51850D02*
X51062Y-51850D01*
X52283Y-51456D02*
X51889Y-51850D01*
X52834Y-51456D02*
X52283Y-51456D01*
X52992Y-51614D02*
X52834Y-51456D01*
X55984Y-51614D02*
X52992Y-51614D01*
X56592Y-51005D02*
X55984Y-51614D01*
X61907Y-50985D02*
X61907Y-51005D01*
X57166Y-50985D02*
X56592Y-50985D01*
X57637Y-51456D02*
X57166Y-50985D01*
X58031Y-51456D02*
X57637Y-51456D01*
X58188Y-51614D02*
X58031Y-51456D01*
X61299Y-51614D02*
X58188Y-51614D01*
X61907Y-51005D02*
X61299Y-51614D01*
X68896Y-50985D02*
X68267Y-51614D01*
X62481Y-50985D02*
X61907Y-50985D01*
X63346Y-51850D02*
X62481Y-50985D01*
X64212Y-51850D02*
X63346Y-51850D01*
X64606Y-51456D02*
X64212Y-51850D01*
X65078Y-51456D02*
X64606Y-51456D01*
X65236Y-51614D02*
X65078Y-51456D01*
X68267Y-51614D02*
X65236Y-51614D01*
X49015Y-51614D02*
X45944Y-51614D01*
X44844Y-50985D02*
X44289Y-50985D01*
X45275Y-51417D02*
X44844Y-50985D01*
X45748Y-51417D02*
X45275Y-51417D01*
X45944Y-51614D02*
X45748Y-51417D01*
X74211Y-50985D02*
X73700Y-51496D01*
X73700Y-51496D02*
X70000Y-51496D01*
X70000Y-51496D02*
X69489Y-50985D01*
X69489Y-50985D02*
X68896Y-50985D01*
X48777Y-50277D02*
X48070Y-50984D01*
X54055Y-50984D02*
X53661Y-50984D01*
X55766Y-50296D02*
X55078Y-50984D01*
X55078Y-50984D02*
X54055Y-50984D01*
X55766Y-50277D02*
X55766Y-50296D01*
X48897Y-50157D02*
X48777Y-50277D01*
X50275Y-50157D02*
X48897Y-50157D01*
X51299Y-51181D02*
X50275Y-50157D01*
X51692Y-51181D02*
X51299Y-51181D01*
X52401Y-50472D02*
X51692Y-51181D01*
X53149Y-50472D02*
X52401Y-50472D01*
X53661Y-50984D02*
X53149Y-50472D01*
X61081Y-50277D02*
X60374Y-50984D01*
X55846Y-50196D02*
X55766Y-50277D01*
X57283Y-50196D02*
X55846Y-50196D01*
X57519Y-50433D02*
X57283Y-50196D01*
X58425Y-50433D02*
X57519Y-50433D01*
X58976Y-50984D02*
X58425Y-50433D01*
X60374Y-50984D02*
X58976Y-50984D01*
X68069Y-50277D02*
X67362Y-50984D01*
X61161Y-50196D02*
X61081Y-50277D01*
X62559Y-50196D02*
X61161Y-50196D01*
X63582Y-51220D02*
X62559Y-50196D01*
X63976Y-51220D02*
X63582Y-51220D01*
X64724Y-50472D02*
X63976Y-51220D01*
X65433Y-50472D02*
X64724Y-50472D01*
X65944Y-50984D02*
X65433Y-50472D01*
X67362Y-50984D02*
X65944Y-50984D01*
X43582Y-50157D02*
X43462Y-50277D01*
X45866Y-50157D02*
X43582Y-50157D01*
X46692Y-50984D02*
X45866Y-50157D01*
X48070Y-50984D02*
X46692Y-50984D01*
X73384Y-50277D02*
X72874Y-50787D01*
X72874Y-50787D02*
X71062Y-50787D01*
X71062Y-50787D02*
X70393Y-50118D01*
X70393Y-50118D02*
X68228Y-50118D01*
X68228Y-50118D02*
X68069Y-50277D01*
X53718Y-50277D02*
X53718Y-49912D01*
X52431Y-47544D02*
X51935Y-47048D01*
X52431Y-48385D02*
X52431Y-47544D01*
X52667Y-48622D02*
X52431Y-48385D01*
X53718Y-49912D02*
X54045Y-49586D01*
X46730Y-50277D02*
X46296Y-49842D01*
X41886Y-50748D02*
X41415Y-50277D01*
X42598Y-50748D02*
X41886Y-50748D01*
X42952Y-50393D02*
X42598Y-50748D01*
X42952Y-50039D02*
X42952Y-50393D01*
X43228Y-49763D02*
X42952Y-50039D01*
X43818Y-49763D02*
X43228Y-49763D01*
X43897Y-49842D02*
X43818Y-49763D01*
X46296Y-49842D02*
X43897Y-49842D01*
X53718Y-50277D02*
X53599Y-50157D01*
X47083Y-50629D02*
X46730Y-50277D01*
X53599Y-50157D02*
X52283Y-50157D01*
X59033Y-50277D02*
X58835Y-50078D01*
X54111Y-50669D02*
X53718Y-50277D01*
X54881Y-50669D02*
X54111Y-50669D01*
X55236Y-50314D02*
X54881Y-50669D01*
X55236Y-50039D02*
X55236Y-50314D01*
X55511Y-49763D02*
X55236Y-50039D01*
X56023Y-49763D02*
X55511Y-49763D01*
X56141Y-49881D02*
X56023Y-49763D01*
X57401Y-49881D02*
X56141Y-49881D01*
X57598Y-50078D02*
X57401Y-49881D01*
X58835Y-50078D02*
X57598Y-50078D01*
X66022Y-50277D02*
X65902Y-50157D01*
X59386Y-50629D02*
X59033Y-50277D01*
X60196Y-50629D02*
X59386Y-50629D01*
X60551Y-50275D02*
X60196Y-50629D01*
X60551Y-50078D02*
X60551Y-50275D01*
X60866Y-49763D02*
X60551Y-50078D01*
X61850Y-49763D02*
X60866Y-49763D01*
X61968Y-49881D02*
X61850Y-49763D01*
X62716Y-49881D02*
X61968Y-49881D01*
X63740Y-50905D02*
X62716Y-49881D01*
X63858Y-50905D02*
X63740Y-50905D01*
X64606Y-50157D02*
X63858Y-50905D01*
X65902Y-50157D02*
X64606Y-50157D01*
X47913Y-50629D02*
X47083Y-50629D01*
X48267Y-50275D02*
X47913Y-50629D01*
X48267Y-50000D02*
X48267Y-50275D01*
X48503Y-49763D02*
X48267Y-50000D01*
X48937Y-49763D02*
X48503Y-49763D01*
X49015Y-49842D02*
X48937Y-49763D01*
X50393Y-49842D02*
X49015Y-49842D01*
X51417Y-50866D02*
X50393Y-49842D01*
X51574Y-50866D02*
X51417Y-50866D01*
X52283Y-50157D02*
X51574Y-50866D01*
X71337Y-50277D02*
X70784Y-49724D01*
X70784Y-49724D02*
X67874Y-49724D01*
X67874Y-49724D02*
X67559Y-50039D01*
X67559Y-50039D02*
X67559Y-50236D01*
X67559Y-50236D02*
X67125Y-50669D01*
X67125Y-50669D02*
X66414Y-50669D01*
X66414Y-50669D02*
X66022Y-50277D01*
X52892Y-50985D02*
X52736Y-51141D01*
X52736Y-51141D02*
X52165Y-51141D01*
X58207Y-50985D02*
X57600Y-50985D01*
X53205Y-51299D02*
X52892Y-50985D01*
X55511Y-51299D02*
X53205Y-51299D01*
X56299Y-50511D02*
X55511Y-51299D01*
X57125Y-50511D02*
X56299Y-50511D01*
X57600Y-50985D02*
X57125Y-50511D01*
X65195Y-50985D02*
X64644Y-50985D01*
X58520Y-51299D02*
X58207Y-50985D01*
X60826Y-51299D02*
X58520Y-51299D01*
X61614Y-50511D02*
X60826Y-51299D01*
X62440Y-50511D02*
X61614Y-50511D01*
X63464Y-51535D02*
X62440Y-50511D01*
X64094Y-51535D02*
X63464Y-51535D01*
X64644Y-50985D02*
X64094Y-51535D01*
X70510Y-50985D02*
X69957Y-50433D01*
X65508Y-51299D02*
X65195Y-50985D01*
X67834Y-51299D02*
X65508Y-51299D01*
X68700Y-50433D02*
X67834Y-51299D01*
X69957Y-50433D02*
X68700Y-50433D01*
X52165Y-51141D02*
X51811Y-51496D01*
X40902Y-51299D02*
X40588Y-50985D01*
X43188Y-51299D02*
X40902Y-51299D01*
X44015Y-50472D02*
X43188Y-51299D01*
X44803Y-50472D02*
X44015Y-50472D01*
X45316Y-50985D02*
X44803Y-50472D01*
X45903Y-50985D02*
X45316Y-50985D01*
X46217Y-51299D02*
X45903Y-50985D01*
X48503Y-51299D02*
X46217Y-51299D01*
X49330Y-50472D02*
X48503Y-51299D01*
X50118Y-50472D02*
X49330Y-50472D01*
X51141Y-51496D02*
X50118Y-50472D01*
X51181Y-51496D02*
X51141Y-51496D01*
X51574Y-51496D02*
X51181Y-51496D01*
X51811Y-51496D02*
X51574Y-51496D01*
X45667Y-53033D02*
X45355Y-53033D01*
X40905Y-52480D02*
X40352Y-53033D01*
X44803Y-52480D02*
X40905Y-52480D01*
X45355Y-53033D02*
X44803Y-52480D01*
X52655Y-53033D02*
X52421Y-53267D01*
X46141Y-52559D02*
X45667Y-53033D01*
X52421Y-53267D02*
X50826Y-53267D01*
X53129Y-52559D02*
X52655Y-53033D01*
X57125Y-52559D02*
X53129Y-52559D01*
X57600Y-53033D02*
X57125Y-52559D01*
X57970Y-53033D02*
X57600Y-53033D01*
X64959Y-53033D02*
X64724Y-53267D01*
X58444Y-52559D02*
X57970Y-53033D01*
X62440Y-52559D02*
X58444Y-52559D01*
X63149Y-53267D02*
X62440Y-52559D01*
X64724Y-53267D02*
X63149Y-53267D01*
X50118Y-52559D02*
X46141Y-52559D01*
X50826Y-53267D02*
X50118Y-52559D01*
X64959Y-53033D02*
X65433Y-52559D01*
X65433Y-52559D02*
X69370Y-52559D01*
X69370Y-52559D02*
X69844Y-53033D01*
X69844Y-53033D02*
X70274Y-53033D01*
X53285Y-53899D02*
X49962Y-53899D01*
X49962Y-53899D02*
X49251Y-53188D01*
X46297Y-53899D02*
X44647Y-53899D01*
X41692Y-53188D02*
X40982Y-53899D01*
X43937Y-53188D02*
X41692Y-53188D01*
X44647Y-53899D02*
X43937Y-53188D01*
X47007Y-53188D02*
X46297Y-53899D01*
X49251Y-53188D02*
X47007Y-53188D01*
X56220Y-53188D02*
X53996Y-53188D01*
X56930Y-53899D02*
X56220Y-53188D01*
X58600Y-53899D02*
X56930Y-53899D01*
X53996Y-53188D02*
X53285Y-53899D01*
X65588Y-53899D02*
X62285Y-53899D01*
X59311Y-53188D02*
X58600Y-53899D01*
X61574Y-53188D02*
X59311Y-53188D01*
X62285Y-53899D02*
X61574Y-53188D01*
X68543Y-53188D02*
X66299Y-53188D01*
X66299Y-53188D02*
X65588Y-53899D01*
X70903Y-53899D02*
X69253Y-53899D01*
X69253Y-53899D02*
X68543Y-53188D01*
X49291Y-54645D02*
X53917Y-54645D01*
X48464Y-53818D02*
X49291Y-54645D01*
X59506Y-54371D02*
X60059Y-53818D01*
X66220Y-54645D02*
X66494Y-54371D01*
X61574Y-54645D02*
X66220Y-54645D01*
X60748Y-53818D02*
X61574Y-54645D01*
X60059Y-53818D02*
X60748Y-53818D01*
X54191Y-54371D02*
X54744Y-53818D01*
X59232Y-54645D02*
X59506Y-54371D01*
X56259Y-54645D02*
X59232Y-54645D01*
X55433Y-53818D02*
X56259Y-54645D01*
X54744Y-53818D02*
X55433Y-53818D01*
X47203Y-54371D02*
X47755Y-53818D01*
X53917Y-54645D02*
X54191Y-54371D01*
X47755Y-53818D02*
X48464Y-53818D01*
X41888Y-54371D02*
X42440Y-53818D01*
X46929Y-54645D02*
X47203Y-54371D01*
X43937Y-54645D02*
X46929Y-54645D01*
X43110Y-53818D02*
X43937Y-54645D01*
X42440Y-53818D02*
X43110Y-53818D01*
X66494Y-54371D02*
X67047Y-53818D01*
X67047Y-53818D02*
X67755Y-53818D01*
X67755Y-53818D02*
X68582Y-54645D01*
X68582Y-54645D02*
X71535Y-54645D01*
X71535Y-54645D02*
X71809Y-54371D01*
X72935Y-47048D02*
X72935Y-49426D01*
X72935Y-49426D02*
X72360Y-50001D01*
X70935Y-47048D02*
X70935Y-48552D01*
X67637Y-49409D02*
X67045Y-50001D01*
X70078Y-49409D02*
X67637Y-49409D01*
X70935Y-48552D02*
X70078Y-49409D01*
X66935Y-47048D02*
X66935Y-48143D01*
X60610Y-49448D02*
X60057Y-50001D01*
X62007Y-49448D02*
X60610Y-49448D01*
X62125Y-49566D02*
X62007Y-49448D01*
X65511Y-49566D02*
X62125Y-49566D01*
X66935Y-48143D02*
X65511Y-49566D01*
X64935Y-47048D02*
X64935Y-47938D01*
X55374Y-49370D02*
X54742Y-50001D01*
X60236Y-49370D02*
X55374Y-49370D01*
X60551Y-49055D02*
X60236Y-49370D01*
X62952Y-49055D02*
X60551Y-49055D01*
X63464Y-48543D02*
X62952Y-49055D01*
X64330Y-48543D02*
X63464Y-48543D01*
X64935Y-47938D02*
X64330Y-48543D01*
X60935Y-47048D02*
X60935Y-47725D01*
X48307Y-49448D02*
X47755Y-50000D01*
X49094Y-49448D02*
X48307Y-49448D01*
X49212Y-49566D02*
X49094Y-49448D01*
X52952Y-49566D02*
X49212Y-49566D01*
X53779Y-48740D02*
X52952Y-49566D01*
X59921Y-48740D02*
X53779Y-48740D01*
X60935Y-47725D02*
X59921Y-48740D01*
X51702Y-48543D02*
X51742Y-48543D01*
X52854Y-49232D02*
X53543Y-48543D01*
X52431Y-49232D02*
X52854Y-49232D01*
X51742Y-48543D02*
X52431Y-49232D01*
X58935Y-47048D02*
X58935Y-47757D01*
X42992Y-49448D02*
X42440Y-50000D01*
X43818Y-49448D02*
X42992Y-49448D01*
X43897Y-49527D02*
X43818Y-49448D01*
X47322Y-49527D02*
X43897Y-49527D01*
X47716Y-49133D02*
X47322Y-49527D01*
X50590Y-49133D02*
X47716Y-49133D01*
X51181Y-48543D02*
X50590Y-49133D01*
X51702Y-48543D02*
X51181Y-48543D01*
X53661Y-48425D02*
X53543Y-48543D01*
X58267Y-48425D02*
X53661Y-48425D01*
X58935Y-47757D02*
X58267Y-48425D01*
X39370Y-19685D02*
X38779Y-20275D01*
X45866Y-19685D02*
X39370Y-19685D01*
X46062Y-19881D02*
X45866Y-19685D01*
X38188Y-21850D02*
X38188Y-21866D01*
X38779Y-21259D02*
X38188Y-21850D01*
X38779Y-20275D02*
X38779Y-21259D01*
X46062Y-20275D02*
X46062Y-19881D01*
X48622Y-20275D02*
X48622Y-19881D01*
X46259Y-19685D02*
X46062Y-19881D01*
X48425Y-19685D02*
X46259Y-19685D01*
X48622Y-19881D02*
X48425Y-19685D01*
X62204Y-20275D02*
X62204Y-19881D01*
X62204Y-19881D02*
X62007Y-19685D01*
X54921Y-21275D02*
X54330Y-21866D01*
X54921Y-20275D02*
X54921Y-21275D01*
X55511Y-19685D02*
X54921Y-20275D01*
X62007Y-19685D02*
X55511Y-19685D01*
X62204Y-19881D02*
X62401Y-19685D01*
X64763Y-19881D02*
X64763Y-20275D01*
X64566Y-19685D02*
X64763Y-19881D01*
X62401Y-19685D02*
X64566Y-19685D01*
X68935Y-47048D02*
X68935Y-48544D01*
X63992Y-49842D02*
X63779Y-50055D01*
X65590Y-49842D02*
X63992Y-49842D01*
X65708Y-49724D02*
X65590Y-49842D01*
X66417Y-49724D02*
X65708Y-49724D01*
X67086Y-49055D02*
X66417Y-49724D01*
X68425Y-49055D02*
X67086Y-49055D01*
X68935Y-48544D02*
X68425Y-49055D01*
X62935Y-47048D02*
X62935Y-48245D01*
X51669Y-49842D02*
X51456Y-50055D01*
X53070Y-49842D02*
X51669Y-49842D01*
X53858Y-49055D02*
X53070Y-49842D01*
X60118Y-49055D02*
X53858Y-49055D01*
X60433Y-48740D02*
X60118Y-49055D01*
X62440Y-48740D02*
X60433Y-48740D01*
X62935Y-48245D02*
X62440Y-48740D01*
X49959Y-51970D02*
X49685Y-52244D01*
X45154Y-52480D02*
X44644Y-51970D01*
X45787Y-52480D02*
X45154Y-52480D01*
X46023Y-52244D02*
X45787Y-52480D01*
X46220Y-52244D02*
X46023Y-52244D01*
X49685Y-52244D02*
X46220Y-52244D01*
X56947Y-51970D02*
X56673Y-52244D01*
X50469Y-52480D02*
X49959Y-51970D01*
X52755Y-52480D02*
X50469Y-52480D01*
X52992Y-52244D02*
X52755Y-52480D01*
X56673Y-52244D02*
X52992Y-52244D01*
X62262Y-51970D02*
X61988Y-52244D01*
X57457Y-52480D02*
X56947Y-51970D01*
X58070Y-52480D02*
X57457Y-52480D01*
X58307Y-52244D02*
X58070Y-52480D01*
X61988Y-52244D02*
X58307Y-52244D01*
X67992Y-52244D02*
X65314Y-52244D01*
X68976Y-52244D02*
X67992Y-52244D01*
X69250Y-51970D02*
X68976Y-52244D01*
X62772Y-52480D02*
X62262Y-51970D01*
X65078Y-52480D02*
X62772Y-52480D01*
X65314Y-52244D02*
X65078Y-52480D01*
X74565Y-51970D02*
X74055Y-52480D01*
X74055Y-52480D02*
X69760Y-52480D01*
X69760Y-52480D02*
X69250Y-51970D01*
X45549Y-51970D02*
X45395Y-51970D01*
X40275Y-51929D02*
X40234Y-51970D01*
X43937Y-51929D02*
X40275Y-51929D01*
X44409Y-51456D02*
X43937Y-51929D01*
X44881Y-51456D02*
X44409Y-51456D01*
X45395Y-51970D02*
X44881Y-51456D01*
X52537Y-51970D02*
X52342Y-52165D01*
X45590Y-51929D02*
X45549Y-51970D01*
X49251Y-51929D02*
X45590Y-51929D01*
X49724Y-51456D02*
X49251Y-51929D01*
X50196Y-51456D02*
X49724Y-51456D01*
X50905Y-52165D02*
X50196Y-51456D01*
X52342Y-52165D02*
X50905Y-52165D01*
X57852Y-51970D02*
X57678Y-51970D01*
X52578Y-51929D02*
X52537Y-51970D01*
X56259Y-51929D02*
X52578Y-51929D01*
X56732Y-51456D02*
X56259Y-51929D01*
X57165Y-51456D02*
X56732Y-51456D01*
X57678Y-51970D02*
X57165Y-51456D01*
X64840Y-51970D02*
X64645Y-52165D01*
X57893Y-51929D02*
X57852Y-51970D01*
X61574Y-51929D02*
X57893Y-51929D01*
X62047Y-51456D02*
X61574Y-51929D01*
X62519Y-51456D02*
X62047Y-51456D01*
X63228Y-52165D02*
X62519Y-51456D01*
X64645Y-52165D02*
X63228Y-52165D01*
X70155Y-51970D02*
X70040Y-51970D01*
X64881Y-51929D02*
X64840Y-51970D01*
X68582Y-51929D02*
X64881Y-51929D01*
X69055Y-51456D02*
X68582Y-51929D01*
X69527Y-51456D02*
X69055Y-51456D01*
X70040Y-51970D02*
X69527Y-51456D01*
X75167Y-33418D02*
X74324Y-33418D01*
X73956Y-32460D02*
X73464Y-32460D01*
X74015Y-32401D02*
X73956Y-32460D01*
X74015Y-33110D02*
X74015Y-32401D01*
X74324Y-33418D02*
X74015Y-33110D01*
X72735Y-31299D02*
X72677Y-31357D01*
X73405Y-32401D02*
X73464Y-32460D01*
X72677Y-32401D02*
X73405Y-32401D01*
X72677Y-31357D02*
X72677Y-32401D01*
X71634Y-31299D02*
X72735Y-31299D01*
X51651Y-39883D02*
X51927Y-39883D01*
X51220Y-40314D02*
X51651Y-39883D01*
X51927Y-39883D02*
X48462Y-39883D01*
X42716Y-41279D02*
X44783Y-39212D01*
X44783Y-39212D02*
X45787Y-39212D01*
X46259Y-39802D02*
X46259Y-39685D01*
X46259Y-39685D02*
X45787Y-39212D01*
X48462Y-41415D02*
X48462Y-40749D01*
X48700Y-41653D02*
X48462Y-41415D01*
X49565Y-41320D02*
X48994Y-40749D01*
X48994Y-40749D02*
X48462Y-40749D01*
X51927Y-39883D02*
X51927Y-40749D01*
X48462Y-39883D02*
X48462Y-40749D01*
X57923Y-31441D02*
X57777Y-31587D01*
X57777Y-31587D02*
X56348Y-31587D01*
X57923Y-31441D02*
X58401Y-31441D01*
X58401Y-31441D02*
X58671Y-31711D01*
X51663Y-34424D02*
X51584Y-34345D01*
X51584Y-34345D02*
X51584Y-33622D01*
X51584Y-33622D02*
X52057Y-33622D01*
X52582Y-33096D02*
X52582Y-32530D01*
X52057Y-33622D02*
X52582Y-33096D01*
X50875Y-34424D02*
X50482Y-34030D01*
X50482Y-33228D02*
X50954Y-32755D01*
X50482Y-34030D02*
X50482Y-33228D01*
X50954Y-32755D02*
X50954Y-32519D01*
X51259Y-32215D02*
X52582Y-32215D01*
X50954Y-32519D02*
X51259Y-32215D01*
X60225Y-33110D02*
X60225Y-32401D01*
X60225Y-32401D02*
X60225Y-31692D01*
X60225Y-31692D02*
X60225Y-30984D01*
X61935Y-47048D02*
X61935Y-46423D01*
X59935Y-46548D02*
X59935Y-47048D01*
X60263Y-46220D02*
X59935Y-46548D01*
X61732Y-46220D02*
X60263Y-46220D01*
X61935Y-46423D02*
X61732Y-46220D01*
X63935Y-47048D02*
X63935Y-46455D01*
X61935Y-46489D02*
X61935Y-47048D01*
X62204Y-46220D02*
X61935Y-46489D01*
X63700Y-46220D02*
X62204Y-46220D01*
X63935Y-46455D02*
X63700Y-46220D01*
X65935Y-47048D02*
X65935Y-46407D01*
X63935Y-46458D02*
X63935Y-47048D01*
X64173Y-46220D02*
X63935Y-46458D01*
X65748Y-46220D02*
X64173Y-46220D01*
X65935Y-46407D02*
X65748Y-46220D01*
X67935Y-47048D02*
X67935Y-46360D01*
X65935Y-46505D02*
X65935Y-47048D01*
X66220Y-46220D02*
X65935Y-46505D01*
X67795Y-46220D02*
X66220Y-46220D01*
X67935Y-46360D02*
X67795Y-46220D01*
X69935Y-47048D02*
X69935Y-46392D01*
X67935Y-46474D02*
X67935Y-47048D01*
X68188Y-46220D02*
X67935Y-46474D01*
X69763Y-46220D02*
X68188Y-46220D01*
X69935Y-46392D02*
X69763Y-46220D01*
X71935Y-47048D02*
X71935Y-46344D01*
X69935Y-46363D02*
X69935Y-47048D01*
X70078Y-46220D02*
X69935Y-46363D01*
X71811Y-46220D02*
X70078Y-46220D01*
X71935Y-46344D02*
X71811Y-46220D01*
X73935Y-47048D02*
X73935Y-46376D01*
X71935Y-46332D02*
X71935Y-47048D01*
X72125Y-46141D02*
X71935Y-46332D01*
X73700Y-46141D02*
X72125Y-46141D01*
X73935Y-46376D02*
X73700Y-46141D01*
X74743Y-47007D02*
X74702Y-47048D01*
X74702Y-47048D02*
X73935Y-47048D01*
X71935Y-44048D02*
X71935Y-44533D01*
X73935Y-44568D02*
X73935Y-44048D01*
X73700Y-44803D02*
X73935Y-44568D01*
X72204Y-44803D02*
X73700Y-44803D01*
X71935Y-44533D02*
X72204Y-44803D01*
X69935Y-44048D02*
X69935Y-44738D01*
X71935Y-44678D02*
X71935Y-44048D01*
X71732Y-44881D02*
X71935Y-44678D01*
X70078Y-44881D02*
X71732Y-44881D01*
X69935Y-44738D02*
X70078Y-44881D01*
X67935Y-44048D02*
X67935Y-44707D01*
X69935Y-44788D02*
X69935Y-44048D01*
X69842Y-44881D02*
X69935Y-44788D01*
X68110Y-44881D02*
X69842Y-44881D01*
X67935Y-44707D02*
X68110Y-44881D01*
X65935Y-44048D02*
X65935Y-44675D01*
X67935Y-44741D02*
X67935Y-44048D01*
X67795Y-44881D02*
X67935Y-44741D01*
X66141Y-44881D02*
X67795Y-44881D01*
X65935Y-44675D02*
X66141Y-44881D01*
X63935Y-44048D02*
X63935Y-44722D01*
X65935Y-44615D02*
X65935Y-44048D01*
X65669Y-44881D02*
X65935Y-44615D01*
X64094Y-44881D02*
X65669Y-44881D01*
X63935Y-44722D02*
X64094Y-44881D01*
X61935Y-44048D02*
X61935Y-44612D01*
X63935Y-44647D02*
X63935Y-44048D01*
X63700Y-44881D02*
X63935Y-44647D01*
X62204Y-44881D02*
X63700Y-44881D01*
X61935Y-44612D02*
X62204Y-44881D01*
X59935Y-44048D02*
X59935Y-44659D01*
X61935Y-44678D02*
X61935Y-44048D01*
X61653Y-44960D02*
X61935Y-44678D01*
X60236Y-44960D02*
X61653Y-44960D01*
X59935Y-44659D02*
X60236Y-44960D01*
X59935Y-44048D02*
X59935Y-44548D01*
X64590Y-29603D02*
X64590Y-29447D01*
X64590Y-29447D02*
X63879Y-28737D01*
X65257Y-29603D02*
X65257Y-28697D01*
X65257Y-29603D02*
X64590Y-29603D01*
X47159Y-39802D02*
X47159Y-40624D01*
X47159Y-40624D02*
X47165Y-40629D01*
X70669Y-33091D02*
X71653Y-33091D01*
X71695Y-34070D02*
X71695Y-33133D01*
X71695Y-33133D02*
X71653Y-33091D01*
X71653Y-32341D02*
X70884Y-31572D01*
X70884Y-31572D02*
X70884Y-31299D01*
X71695Y-34820D02*
X70243Y-34820D01*
X68443Y-32863D02*
X68443Y-33307D01*
X68238Y-32657D02*
X68443Y-32863D01*
X70243Y-34820D02*
X69734Y-34311D01*
X71656Y-34860D02*
X71695Y-34820D01*
X53385Y-40590D02*
X53385Y-41023D01*
X53385Y-41023D02*
X53503Y-41141D01*
X53760Y-39724D02*
X53760Y-40138D01*
X46102Y-41259D02*
X45393Y-40551D01*
X47204Y-41259D02*
X46102Y-41259D01*
X47480Y-41535D02*
X47204Y-41259D01*
X47480Y-42244D02*
X47480Y-41535D01*
X47637Y-42401D02*
X47480Y-42244D01*
X53760Y-40138D02*
X53897Y-40275D01*
X45359Y-40517D02*
X45359Y-39802D01*
X45393Y-40551D02*
X45359Y-40517D01*
X66850Y-34073D02*
X66790Y-34013D01*
X66790Y-34013D02*
X66790Y-33307D01*
X65039Y-34193D02*
X64400Y-34193D01*
X64989Y-31320D02*
X64989Y-30511D01*
X64970Y-31338D02*
X64989Y-31320D01*
X64400Y-34193D02*
X64379Y-34173D01*
X66002Y-34133D02*
X65942Y-34193D01*
X65942Y-34193D02*
X65039Y-34193D01*
X64597Y-26889D02*
X64597Y-27508D01*
X64597Y-27508D02*
X64232Y-27874D01*
X73546Y-28304D02*
X71810Y-30039D01*
X69865Y-30567D02*
X68930Y-30567D01*
X70393Y-30039D02*
X69865Y-30567D01*
X71810Y-30039D02*
X70393Y-30039D01*
X73546Y-28304D02*
X74035Y-28793D01*
X74035Y-28793D02*
X74035Y-31299D01*
X66007Y-29603D02*
X66007Y-28697D01*
X67138Y-30567D02*
X66972Y-30567D01*
X66972Y-30567D02*
X66007Y-29603D01*
X64629Y-28737D02*
X64629Y-28519D01*
X66007Y-28403D02*
X66007Y-28697D01*
X65868Y-28264D02*
X66007Y-28403D01*
X64884Y-28264D02*
X65868Y-28264D01*
X64629Y-28519D02*
X64884Y-28264D01*
X65989Y-30511D02*
X65989Y-31225D01*
X70020Y-31692D02*
X70669Y-32341D01*
X66456Y-31692D02*
X70020Y-31692D01*
X65989Y-31225D02*
X66456Y-31692D01*
X65489Y-32711D02*
X65489Y-32109D01*
X63840Y-30336D02*
X63840Y-29603D01*
X63858Y-30354D02*
X63840Y-30336D01*
X65489Y-32109D02*
X65590Y-32007D01*
X67165Y-32125D02*
X66309Y-32125D01*
X66309Y-32125D02*
X65489Y-31305D01*
X68095Y-34153D02*
X67540Y-33598D01*
X67540Y-33598D02*
X67540Y-33307D01*
X67165Y-32125D02*
X67540Y-32500D01*
X67540Y-32500D02*
X67540Y-33307D01*
X64989Y-32711D02*
X64989Y-31900D01*
X65489Y-31400D02*
X65489Y-31305D01*
X64989Y-31900D02*
X65489Y-31400D01*
X65489Y-31305D02*
X65489Y-31118D01*
X65489Y-31118D02*
X65489Y-30511D01*
X65274Y-26899D02*
X65274Y-27473D01*
X65274Y-27473D02*
X65632Y-27831D01*
X49880Y-41320D02*
X49880Y-42048D01*
X49880Y-42048D02*
X49566Y-42362D01*
X50195Y-41320D02*
X50195Y-40707D01*
X50195Y-40707D02*
X50000Y-40511D01*
X50510Y-41320D02*
X50510Y-40552D01*
X50510Y-40552D02*
X50551Y-40511D01*
X45343Y-32913D02*
X45343Y-31968D01*
X45343Y-33700D02*
X45343Y-32913D01*
X46852Y-32202D02*
X47165Y-31890D01*
X47165Y-31890D02*
X47165Y-31220D01*
X46093Y-32913D02*
X46250Y-33070D01*
X46559Y-33202D02*
X46852Y-33202D01*
X46427Y-33070D02*
X46559Y-33202D01*
X46250Y-33070D02*
X46427Y-33070D01*
X47515Y-33202D02*
X46852Y-33202D01*
X47529Y-33188D02*
X47515Y-33202D01*
X46852Y-32702D02*
X47385Y-32702D01*
X48818Y-31269D02*
X48818Y-31220D01*
X47385Y-32702D02*
X48818Y-31269D01*
X75167Y-46017D02*
X75493Y-46342D01*
X75493Y-46342D02*
X75493Y-47007D01*
X58671Y-32461D02*
X59282Y-32461D01*
X59635Y-32814D02*
X59635Y-34311D01*
X59282Y-32461D02*
X59635Y-32814D01*
X56348Y-32217D02*
X57108Y-32217D01*
X57353Y-32461D02*
X58671Y-32461D01*
X57108Y-32217D02*
X57353Y-32461D01*
X58671Y-32461D02*
X59359Y-32461D01*
X59359Y-32461D02*
X59812Y-32007D01*
X59812Y-32007D02*
X59812Y-30511D01*
X59812Y-30511D02*
X59931Y-30393D01*
X59931Y-30393D02*
X60975Y-30393D01*
X60975Y-30393D02*
X60994Y-30375D01*
X60994Y-30375D02*
X60994Y-30314D01*
X60994Y-30314D02*
X60975Y-30314D01*
X56348Y-32217D02*
X55770Y-32217D01*
X55364Y-31811D02*
X54261Y-31811D01*
X55770Y-32217D02*
X55364Y-31811D01*
X52582Y-31900D02*
X53248Y-31900D01*
X53248Y-31900D02*
X53474Y-32125D01*
X53474Y-32125D02*
X53986Y-32125D01*
X53986Y-32125D02*
X54261Y-31850D01*
X54261Y-31850D02*
X54261Y-31811D01*
X53996Y-31270D02*
X52582Y-31270D01*
X54261Y-31811D02*
X54261Y-31535D01*
X54261Y-31535D02*
X53996Y-31270D01*
X46093Y-31968D02*
X46093Y-29351D01*
X46093Y-29351D02*
X45679Y-28937D01*
X50285Y-31117D02*
X50285Y-29763D01*
X50285Y-29763D02*
X49458Y-28937D01*
X45679Y-28937D02*
X49458Y-28937D01*
X42293Y-28937D02*
X45679Y-28937D01*
X51584Y-31117D02*
X50285Y-31117D01*
X50285Y-31117D02*
X50231Y-31117D01*
X50231Y-31117D02*
X50009Y-31338D01*
X51584Y-29724D02*
X51584Y-31117D01*
X52096Y-29212D02*
X51584Y-29724D01*
X52096Y-27598D02*
X52096Y-29212D01*
X52293Y-27401D02*
X52096Y-27598D01*
X49052Y-32202D02*
X49145Y-32202D01*
X49145Y-32202D02*
X50009Y-31338D01*
X47312Y-34527D02*
X47312Y-34312D01*
X48515Y-32202D02*
X49052Y-32202D01*
X48041Y-32677D02*
X48515Y-32202D01*
X48041Y-33582D02*
X48041Y-32677D01*
X47312Y-34312D02*
X48041Y-33582D01*
X47312Y-34527D02*
X46687Y-34527D01*
X60975Y-30984D02*
X60975Y-30314D01*
X60975Y-30314D02*
X60975Y-29743D01*
X61742Y-27562D02*
X61159Y-26980D01*
X61742Y-28976D02*
X61742Y-27562D01*
X60975Y-29743D02*
X61742Y-28976D01*
X60975Y-31692D02*
X60975Y-30984D01*
X51584Y-31117D02*
X51737Y-31270D01*
X51737Y-31270D02*
X52582Y-31270D01*
X65039Y-33443D02*
X64398Y-33443D01*
X64398Y-33443D02*
X64379Y-33425D01*
X64489Y-30511D02*
X64489Y-31140D01*
X64489Y-31140D02*
X64409Y-31220D01*
X63228Y-26889D02*
X63876Y-26889D01*
X65039Y-33443D02*
X65729Y-33443D01*
X65989Y-33184D02*
X65989Y-32711D01*
X65729Y-33443D02*
X65989Y-33184D01*
X70317Y-27044D02*
X70317Y-28304D01*
X70393Y-26968D02*
X70317Y-27044D01*
X55041Y-40578D02*
X55041Y-40933D01*
X50334Y-42303D02*
X50275Y-42362D01*
X51968Y-42293D02*
X50334Y-42303D01*
X52623Y-41970D02*
X51968Y-42293D01*
X54147Y-41884D02*
X52623Y-41970D01*
X55041Y-40933D02*
X54147Y-41884D01*
X51899Y-41870D02*
X52485Y-41678D01*
X54370Y-40250D02*
X55041Y-39578D01*
X54370Y-40895D02*
X54370Y-40250D01*
X53822Y-41579D02*
X54370Y-40895D01*
X52485Y-41678D02*
X53822Y-41579D01*
X57923Y-30841D02*
X57593Y-30841D01*
X57168Y-31267D02*
X56348Y-31267D01*
X57593Y-30841D02*
X57168Y-31267D01*
X60816Y-34311D02*
X60816Y-34783D01*
X51796Y-35157D02*
X51663Y-35024D01*
X60442Y-35157D02*
X51796Y-35157D01*
X60816Y-34783D02*
X60442Y-35157D01*
X59301Y-29745D02*
X59301Y-30099D01*
X59301Y-30099D02*
X58661Y-30738D01*
X56348Y-31267D02*
X54505Y-31267D01*
X54505Y-31267D02*
X54222Y-30984D01*
X54222Y-30984D02*
X52611Y-30984D01*
X52611Y-30984D02*
X52582Y-30955D01*
X46087Y-34527D02*
X45575Y-35039D01*
X42608Y-32598D02*
X42608Y-30118D01*
X45049Y-35039D02*
X42608Y-32598D01*
X45575Y-35039D02*
X45049Y-35039D01*
X48868Y-29409D02*
X47411Y-29409D01*
X49498Y-30039D02*
X48868Y-29409D01*
X46087Y-34527D02*
X46087Y-34778D01*
X46333Y-35024D02*
X50875Y-35024D01*
X46087Y-34778D02*
X46333Y-35024D01*
X52582Y-31585D02*
X53445Y-31585D01*
X58671Y-30748D02*
X58661Y-30738D01*
X53445Y-31585D02*
X53828Y-31692D01*
X46093Y-33700D02*
X46093Y-34521D01*
X46093Y-34521D02*
X46087Y-34527D01*
X46852Y-33702D02*
X46095Y-33702D01*
X46095Y-33702D02*
X46093Y-33700D01*
X38553Y-33418D02*
X38553Y-34212D01*
X38553Y-34212D02*
X38868Y-34527D01*
X38868Y-34527D02*
X39891Y-34527D01*
X39891Y-34527D02*
X42608Y-31811D01*
X42608Y-31811D02*
X42608Y-30118D01*
X64409Y-31929D02*
X64104Y-31929D01*
X66482Y-26299D02*
X68034Y-27851D01*
X63120Y-26299D02*
X66482Y-26299D01*
X62805Y-26614D02*
X63120Y-26299D01*
X62805Y-30629D02*
X62805Y-26614D01*
X64104Y-31929D02*
X62805Y-30629D01*
X60816Y-34311D02*
X61663Y-35157D01*
X63907Y-32431D02*
X64409Y-31929D01*
X63907Y-34645D02*
X63907Y-32431D01*
X63395Y-35157D02*
X63907Y-34645D01*
X61663Y-35157D02*
X63395Y-35157D01*
X60816Y-34311D02*
X61053Y-34311D01*
X61309Y-32401D02*
X60975Y-32401D01*
X61427Y-32519D02*
X61309Y-32401D01*
X61427Y-33937D02*
X61427Y-32519D01*
X61053Y-34311D02*
X61427Y-33937D01*
X50875Y-35024D02*
X50388Y-35024D01*
X50388Y-35024D02*
X50167Y-34803D01*
X50167Y-34803D02*
X50167Y-32204D01*
X50167Y-32204D02*
X50654Y-31717D01*
X50654Y-31717D02*
X51584Y-31717D01*
X50875Y-35024D02*
X51663Y-35024D01*
X51584Y-31717D02*
X51716Y-31585D01*
X51716Y-31585D02*
X52582Y-31585D01*
X69193Y-33307D02*
X69193Y-33655D01*
X69193Y-33655D02*
X68695Y-34153D01*
X64489Y-32711D02*
X64489Y-32008D01*
X64489Y-32008D02*
X64409Y-31929D01*
X69193Y-33307D02*
X69390Y-33503D01*
X69390Y-33503D02*
X69763Y-33503D01*
X69193Y-33307D02*
X69193Y-32500D01*
X69193Y-32500D02*
X68818Y-32125D01*
X68034Y-27994D02*
X68034Y-27851D01*
X69606Y-29566D02*
X68034Y-27994D01*
X73464Y-34862D02*
X73464Y-34055D01*
X73464Y-34055D02*
X72992Y-33582D01*
X69803Y-33307D02*
X69803Y-32716D01*
X69763Y-33503D02*
X69803Y-33307D01*
X76167Y-33418D02*
X76167Y-34344D01*
X75649Y-34862D02*
X73464Y-34862D01*
X76167Y-34344D02*
X75649Y-34862D01*
X68034Y-27851D02*
X67076Y-26893D01*
X67076Y-26893D02*
X66166Y-26893D01*
X53010Y-39724D02*
X53010Y-40798D01*
X52488Y-41320D02*
X50825Y-41320D01*
X53010Y-40798D02*
X52488Y-41320D01*
M02*
