G04 (created by PCBNEW (2013-07-07 BZR 4022)-stable) date 2014/09/06 23:28:59*
%MOIN*%
G04 Gerber Fmt 3.4, Leading zero omitted, Abs format*
%FSLAX34Y34*%
G01*
G70*
G90*
G04 APERTURE LIST*
%ADD10C,0.00590551*%
%ADD11R,0.025X0.05*%
%ADD12C,0.0629921*%
%ADD13R,0.0787X0.0177*%
%ADD14R,0.0177X0.0787*%
%ADD15R,0.0197X0.0906*%
%ADD16R,0.0984252X0.0708661*%
%ADD17O,0.0787402X0.165354*%
%ADD18O,0.165354X0.0787402*%
%ADD19R,0.11811X0.11811*%
%ADD20R,0.0394X0.0315*%
%ADD21R,0.05X0.025*%
%ADD22R,0.06X0.08*%
%ADD23R,0.035X0.055*%
%ADD24R,0.055X0.035*%
%ADD25R,0.025X0.045*%
%ADD26R,0.045X0.025*%
%ADD27R,0.144X0.08*%
%ADD28R,0.04X0.08*%
%ADD29R,0.0393701X0.0354331*%
%ADD30R,0.0433071X0.0354331*%
%ADD31R,0.19685X0.0314961*%
%ADD32R,0.0393701X0.0905512*%
%ADD33C,0.0551181*%
%ADD34R,0.0511811X0.0866142*%
%ADD35R,0.0472441X0.0551181*%
%ADD36O,0.0433071X0.0669291*%
%ADD37C,0.055*%
%ADD38C,0.23622*%
%ADD39C,0.0708661*%
%ADD40R,0.0315X0.0394*%
%ADD41R,0.0591X0.0984*%
%ADD42R,0.2756X0.2756*%
G04 APERTURE END LIST*
G54D10*
G54D11*
X69072Y-39726D03*
X68572Y-39726D03*
X68072Y-39726D03*
X67572Y-39726D03*
X67072Y-39726D03*
X66572Y-39726D03*
X66072Y-39726D03*
X65572Y-39726D03*
X65572Y-42556D03*
X66072Y-42556D03*
X66572Y-42556D03*
X67072Y-42556D03*
X67572Y-42556D03*
X68072Y-42556D03*
X68572Y-42556D03*
X69072Y-42556D03*
G54D12*
X65935Y-44048D03*
X64935Y-44048D03*
X63935Y-44048D03*
X62935Y-44048D03*
X61935Y-44048D03*
X60935Y-44048D03*
X59935Y-44048D03*
X58935Y-44048D03*
X58935Y-47048D03*
X59935Y-47048D03*
X60935Y-47048D03*
X61935Y-47048D03*
X62935Y-47048D03*
X63935Y-47048D03*
X64935Y-47048D03*
X65935Y-47048D03*
G54D13*
X52582Y-32530D03*
X52582Y-32215D03*
X52582Y-31900D03*
X52582Y-31585D03*
X52582Y-31270D03*
X52582Y-30955D03*
X52582Y-30640D03*
X52582Y-30325D03*
X56348Y-30327D03*
X56348Y-32537D03*
X56348Y-32217D03*
X56348Y-31897D03*
X56348Y-31587D03*
X56348Y-31267D03*
X56348Y-30957D03*
X56348Y-30637D03*
G54D14*
X53366Y-29537D03*
X53680Y-29537D03*
X53996Y-29537D03*
X54310Y-29537D03*
X54626Y-29537D03*
X54940Y-29537D03*
X55256Y-29537D03*
X55570Y-29537D03*
X53368Y-33317D03*
X53678Y-33317D03*
X53998Y-33317D03*
X54308Y-33317D03*
X54618Y-33317D03*
X54938Y-33317D03*
X55258Y-33317D03*
X55578Y-33317D03*
G54D15*
X50825Y-41320D03*
X50510Y-41320D03*
X50195Y-41320D03*
X49880Y-41320D03*
X49565Y-41320D03*
G54D16*
X51927Y-40749D03*
X51927Y-39883D03*
X48462Y-40749D03*
X48462Y-39883D03*
G54D17*
X40826Y-42559D03*
G54D18*
X42716Y-41279D03*
X42716Y-43740D03*
G54D19*
X70317Y-28304D03*
X73546Y-28304D03*
G54D11*
X64489Y-32711D03*
X64989Y-32711D03*
X65489Y-32711D03*
X65989Y-32711D03*
X65989Y-30511D03*
X65489Y-30511D03*
X64989Y-30511D03*
X64489Y-30511D03*
G54D20*
X69881Y-32716D03*
X70747Y-32341D03*
X70747Y-33091D03*
G54D21*
X46852Y-32202D03*
X46852Y-32702D03*
X46852Y-33202D03*
X46852Y-33702D03*
X49052Y-33702D03*
X49052Y-33202D03*
X49052Y-32702D03*
X49052Y-32202D03*
G54D22*
X74035Y-31299D03*
X72735Y-31299D03*
G54D23*
X63840Y-29603D03*
X64590Y-29603D03*
G54D24*
X71695Y-34070D03*
X71695Y-34820D03*
X71653Y-32341D03*
X71653Y-33091D03*
G54D23*
X71634Y-31299D03*
X70884Y-31299D03*
G54D24*
X59301Y-29745D03*
X59301Y-28995D03*
X65039Y-34193D03*
X65039Y-33443D03*
G54D23*
X66752Y-34133D03*
X66002Y-34133D03*
X66007Y-29603D03*
X65257Y-29603D03*
X63847Y-26889D03*
X64597Y-26889D03*
X45343Y-33700D03*
X46093Y-33700D03*
X46093Y-31968D03*
X45343Y-31968D03*
X60225Y-32401D03*
X60975Y-32401D03*
X60975Y-30984D03*
X60225Y-30984D03*
X60225Y-31692D03*
X60975Y-31692D03*
X60975Y-33110D03*
X60225Y-33110D03*
X45343Y-32913D03*
X46093Y-32913D03*
X47312Y-34527D03*
X48062Y-34527D03*
X75493Y-47007D03*
X74743Y-47007D03*
G54D24*
X58671Y-32461D03*
X58671Y-31711D03*
G54D25*
X46687Y-34527D03*
X46087Y-34527D03*
X64866Y-39763D03*
X64266Y-39763D03*
G54D26*
X57923Y-31441D03*
X57923Y-30841D03*
X50875Y-34424D03*
X50875Y-35024D03*
X51663Y-34424D03*
X51663Y-35024D03*
X51584Y-31117D03*
X51584Y-31717D03*
G54D25*
X68095Y-34153D03*
X68695Y-34153D03*
G54D27*
X46259Y-42402D03*
G54D28*
X46259Y-39802D03*
X45359Y-39802D03*
X47159Y-39802D03*
G54D29*
X66790Y-33307D03*
G54D30*
X67165Y-32125D03*
G54D29*
X67540Y-33307D03*
X68443Y-33307D03*
G54D30*
X68818Y-32125D03*
G54D29*
X69193Y-33307D03*
G54D31*
X73464Y-32460D03*
X73464Y-34862D03*
G54D32*
X61131Y-29330D03*
X60068Y-29330D03*
G54D33*
X47755Y-50000D03*
X48307Y-54370D03*
X49212Y-53897D03*
X49842Y-53031D03*
X49960Y-51968D03*
X49606Y-50984D03*
X48779Y-50275D03*
X46732Y-50275D03*
X45905Y-50984D03*
X45551Y-51968D03*
X45669Y-53031D03*
X46299Y-53897D03*
X47204Y-54370D03*
X42440Y-50000D03*
X42992Y-54370D03*
X43897Y-53897D03*
X44527Y-53031D03*
X44645Y-51968D03*
X44291Y-50984D03*
X43464Y-50275D03*
X41417Y-50275D03*
X40590Y-50984D03*
X40236Y-51968D03*
X40354Y-53031D03*
X40984Y-53897D03*
X41889Y-54370D03*
X54742Y-50001D03*
X55293Y-54371D03*
X56199Y-53899D03*
X56829Y-53033D03*
X56947Y-51970D03*
X56592Y-50985D03*
X55766Y-50277D03*
X53718Y-50277D03*
X52892Y-50985D03*
X52537Y-51970D03*
X52655Y-53033D03*
X53285Y-53899D03*
X54191Y-54371D03*
X60057Y-50001D03*
X60608Y-54371D03*
X61514Y-53899D03*
X62144Y-53033D03*
X62262Y-51970D03*
X61907Y-50985D03*
X61081Y-50277D03*
X59033Y-50277D03*
X58207Y-50985D03*
X57852Y-51970D03*
X57970Y-53033D03*
X58600Y-53899D03*
X59506Y-54371D03*
X67045Y-50001D03*
X67596Y-54371D03*
X68502Y-53899D03*
X69132Y-53033D03*
X69250Y-51970D03*
X68896Y-50985D03*
X68069Y-50277D03*
X66022Y-50277D03*
X65195Y-50985D03*
X64840Y-51970D03*
X64959Y-53033D03*
X65588Y-53899D03*
X66494Y-54371D03*
X72360Y-50001D03*
X72911Y-54371D03*
X73817Y-53899D03*
X74447Y-53033D03*
X74565Y-51970D03*
X74211Y-50985D03*
X73384Y-50277D03*
X71337Y-50277D03*
X70510Y-50985D03*
X70155Y-51970D03*
X70274Y-53033D03*
X70903Y-53899D03*
X71809Y-54371D03*
X45275Y-20275D03*
X46062Y-20275D03*
X47834Y-20275D03*
X48622Y-20275D03*
X61417Y-20275D03*
X62204Y-20275D03*
X63976Y-20275D03*
X64763Y-20275D03*
X42608Y-34645D03*
X42608Y-30118D03*
G54D34*
X48818Y-31220D03*
X47165Y-31220D03*
G54D35*
X51584Y-33622D03*
X51584Y-32755D03*
X50954Y-33622D03*
X50954Y-32755D03*
G54D36*
X60816Y-34311D03*
X60226Y-34311D03*
X59635Y-34311D03*
X59045Y-34311D03*
X58454Y-34311D03*
X57864Y-34311D03*
G54D12*
X54330Y-21866D03*
X54330Y-20866D03*
X54330Y-19866D03*
X51456Y-50055D03*
X51456Y-49055D03*
X51456Y-48055D03*
X38188Y-21866D03*
X38188Y-20866D03*
X38188Y-19866D03*
X63779Y-50055D03*
X63779Y-49055D03*
X63779Y-48055D03*
G54D37*
X55935Y-44048D03*
X54935Y-44048D03*
X54935Y-47048D03*
X55935Y-47048D03*
X57935Y-44048D03*
X56935Y-44048D03*
X56935Y-47048D03*
X57935Y-47048D03*
G54D12*
X75167Y-29418D03*
X75167Y-30418D03*
X75167Y-31418D03*
X75167Y-32418D03*
X75167Y-33418D03*
X76167Y-33418D03*
X76167Y-32418D03*
X76167Y-31418D03*
X76167Y-30418D03*
X76167Y-29418D03*
X38553Y-29418D03*
X38553Y-30418D03*
X38553Y-31418D03*
X38553Y-32418D03*
X38553Y-33418D03*
X39553Y-33418D03*
X39553Y-32418D03*
X39553Y-31418D03*
X39553Y-30418D03*
X39553Y-29418D03*
X75167Y-42017D03*
X75167Y-43017D03*
X75167Y-44017D03*
X75167Y-45017D03*
X75167Y-46017D03*
X76167Y-46017D03*
X76167Y-45017D03*
X76167Y-44017D03*
X76167Y-43017D03*
X76167Y-42017D03*
X38553Y-42017D03*
X38553Y-43017D03*
X38553Y-44017D03*
X38553Y-45017D03*
X38553Y-46017D03*
X39553Y-46017D03*
X39553Y-45017D03*
X39553Y-44017D03*
X39553Y-43017D03*
X39553Y-42017D03*
X53935Y-44048D03*
X52935Y-44048D03*
X51935Y-44048D03*
X50935Y-44048D03*
X49935Y-44048D03*
X48935Y-44048D03*
X47935Y-44048D03*
X46935Y-44048D03*
X46935Y-47048D03*
X47935Y-47048D03*
X48935Y-47048D03*
X49935Y-47048D03*
X50935Y-47048D03*
X51935Y-47048D03*
X52935Y-47048D03*
X53935Y-47048D03*
X73935Y-44048D03*
X72935Y-44048D03*
X71935Y-44048D03*
X70935Y-44048D03*
X69935Y-44048D03*
X68935Y-44048D03*
X67935Y-44048D03*
X66935Y-44048D03*
X66935Y-47048D03*
X67935Y-47048D03*
X68935Y-47048D03*
X69935Y-47048D03*
X70935Y-47048D03*
X71935Y-47048D03*
X72935Y-47048D03*
X73935Y-47048D03*
G54D38*
X75689Y-54132D03*
X75667Y-27481D03*
X39053Y-27481D03*
X39089Y-54132D03*
X39053Y-40080D03*
X75667Y-40080D03*
G54D33*
X43208Y-27145D03*
X41437Y-27145D03*
G54D39*
X40944Y-28129D03*
X43700Y-28129D03*
G54D33*
X46948Y-27145D03*
X45177Y-27145D03*
G54D39*
X44685Y-28129D03*
X47440Y-28129D03*
G54D33*
X50688Y-27145D03*
X48917Y-27145D03*
G54D39*
X48425Y-28129D03*
X51181Y-28129D03*
G54D40*
X64232Y-27874D03*
X64607Y-28740D03*
X63857Y-28740D03*
X65632Y-27831D03*
X66007Y-28697D03*
X65257Y-28697D03*
X53385Y-40590D03*
X53010Y-39724D03*
X53760Y-39724D03*
G54D41*
X67138Y-30567D03*
X68930Y-30567D03*
G54D42*
X68034Y-27851D03*
G54D23*
X65274Y-26899D03*
X66024Y-26899D03*
G54D12*
X55159Y-27980D03*
X56159Y-27980D03*
X57159Y-27980D03*
X58159Y-27980D03*
X59159Y-27980D03*
X60159Y-27980D03*
X61159Y-27980D03*
X61159Y-26980D03*
X60159Y-26980D03*
X59159Y-26980D03*
X58159Y-26980D03*
X57159Y-26980D03*
X56159Y-26980D03*
X55159Y-26980D03*
X55041Y-40578D03*
X56041Y-40578D03*
X57041Y-40578D03*
X58041Y-40578D03*
X59041Y-40578D03*
X60041Y-40578D03*
X61041Y-40578D03*
X61041Y-39578D03*
X60041Y-39578D03*
X59041Y-39578D03*
X58041Y-39578D03*
X57041Y-39578D03*
X56041Y-39578D03*
X55041Y-39578D03*
M02*
