M48
;DRILL file {Pcbnew (2013-07-07 BZR 4022)-stable} date 2014/09/06 23:57:43
;FORMAT={-:-/ absolute / metric / decimal}
FMAT,2
METRIC,TZ
T1C0.635
T2C0.700
T3C0.800
T4C0.813
T5C0.850
T6C1.000
T7C1.200
T8C3.000
%
G90
G05
M71
T1
X103.625Y-103.7
X107.425Y-73.5
X109.375Y-123.35
X115.3Y-103.
X116.025Y-73.5
X116.3Y-99.6
X119.8Y-103.2
X120.175Y-116.35
X120.425Y-74.7
X120.725Y-84.3
X121.Y-107.7
X123.7Y-105.8
X125.625Y-73.5
X125.725Y-76.3
X125.9Y-107.6
X126.225Y-82.6
X126.225Y-84.
X126.225Y-85.4
X127.Y-102.9
X127.7Y-107.6
X128.4Y-102.9
X130.1Y-102.4
X130.225Y-113.6
X131.825Y-106.35
X132.825Y-69.6
X133.225Y-114.7
X133.775Y-123.5
X134.25Y-107.65
X134.425Y-84.9
X135.325Y-77.2
X135.9Y-104.5
X136.225Y-87.
X136.725Y-80.5
X136.9Y-102.3
X137.275Y-125.95
X137.325Y-77.1
X137.525Y-86.6
X138.425Y-81.8
X138.525Y-88.4
X138.625Y-78.2
X139.625Y-82.2
X139.925Y-78.1
X140.825Y-82.2
X140.925Y-77.1
X141.225Y-107.3
X142.225Y-84.5
X142.525Y-87.3
X143.825Y-122.
X145.875Y-121.
X145.925Y-74.3
X146.325Y-81.3
X148.825Y-108.2
X149.025Y-78.1
X150.725Y-77.9
X151.425Y-122.1
X157.025Y-122.
X160.6Y-68.3
X162.2Y-77.1
X163.525Y-84.9
X163.525Y-86.8
X163.6Y-79.3
X163.6Y-81.1
X165.025Y-79.6
X166.525Y-122.4
X166.6Y-81.3
X173.325Y-82.95
X176.8Y-75.1
X177.125Y-87.15
X177.2Y-85.1
X177.525Y-123.1
X178.8Y-68.5
X182.925Y-123.
X185.4Y-85.3
X187.325Y-67.4
T2
X146.975Y-87.15
X148.475Y-87.15
X149.975Y-87.15
X151.475Y-87.15
X152.975Y-87.15
X154.475Y-87.15
T3
X102.2Y-132.
X102.5Y-134.7
X103.1Y-129.5
X104.1Y-136.9
X105.2Y-127.7
X105.25Y-68.95
X106.4Y-138.1
X107.8Y-127.
X109.2Y-138.1
X109.75Y-68.95
X110.4Y-127.7
X111.5Y-136.9
X112.5Y-129.5
X113.1Y-134.7
X113.4Y-132.
X114.75Y-68.95
X115.Y-51.5
X115.7Y-132.
X116.Y-134.7
X116.6Y-129.5
X117.Y-51.5
X117.6Y-136.9
X118.7Y-127.7
X119.25Y-68.95
X119.9Y-138.1
X121.3Y-127.
X121.5Y-51.5
X122.7Y-138.1
X123.5Y-51.5
X123.9Y-127.7
X124.25Y-68.95
X125.Y-136.9
X126.Y-129.5
X126.6Y-134.7
X126.9Y-132.
X128.75Y-68.95
X133.446Y-132.004
X133.746Y-134.704
X134.346Y-129.504
X135.346Y-136.904
X136.446Y-127.704
X137.646Y-138.104
X139.046Y-127.004
X140.446Y-138.104
X141.646Y-127.704
X142.746Y-136.904
X143.746Y-129.504
X144.346Y-134.704
X144.646Y-132.004
X146.946Y-132.004
X147.246Y-134.704
X147.846Y-129.504
X148.846Y-136.904
X149.946Y-127.704
X151.146Y-138.104
X152.546Y-127.004
X153.946Y-138.104
X155.146Y-127.704
X156.Y-51.5
X156.246Y-136.904
X157.246Y-129.504
X157.846Y-134.704
X158.Y-51.5
X158.146Y-132.004
X162.5Y-51.5
X164.5Y-51.5
X164.696Y-132.004
X164.996Y-134.704
X165.596Y-129.504
X166.596Y-136.904
X167.696Y-127.704
X168.896Y-138.104
X170.296Y-127.004
X171.696Y-138.104
X172.896Y-127.704
X173.996Y-136.904
X174.996Y-129.504
X175.596Y-134.704
X175.896Y-132.004
X178.196Y-132.004
X178.496Y-134.704
X179.096Y-129.504
X180.096Y-136.904
X181.196Y-127.704
X182.396Y-138.104
X183.796Y-127.004
X185.196Y-138.104
X186.396Y-127.704
X187.496Y-136.904
X188.496Y-129.504
X189.096Y-134.704
X189.396Y-132.004
T4
X139.536Y-111.884
X139.536Y-119.504
X142.076Y-111.884
X142.076Y-119.504
X144.616Y-111.884
X144.616Y-119.504
X147.156Y-111.884
X147.156Y-119.504
T5
X108.225Y-76.5
X108.225Y-88.
T6
X97.Y-50.46
X97.Y-53.
X97.Y-55.54
X97.926Y-74.724
X97.926Y-77.264
X97.926Y-79.804
X97.926Y-82.344
X97.926Y-84.884
X97.926Y-106.724
X97.926Y-109.264
X97.926Y-111.804
X97.926Y-114.344
X97.926Y-116.884
X100.466Y-74.724
X100.466Y-77.264
X100.466Y-79.804
X100.466Y-82.344
X100.466Y-84.884
X100.466Y-106.724
X100.466Y-109.264
X100.466Y-111.804
X100.466Y-114.344
X100.466Y-116.884
X119.216Y-111.884
X119.216Y-119.504
X121.756Y-111.884
X121.756Y-119.504
X124.296Y-111.884
X124.296Y-119.504
X126.836Y-111.884
X126.836Y-119.504
X129.376Y-111.884
X129.376Y-119.504
X130.7Y-122.06
X130.7Y-124.6
X130.7Y-127.14
X131.916Y-111.884
X131.916Y-119.504
X134.456Y-111.884
X134.456Y-119.504
X136.996Y-111.884
X136.996Y-119.504
X138.Y-50.46
X138.Y-53.
X138.Y-55.54
X139.805Y-100.53
X139.805Y-103.07
X140.105Y-68.53
X140.105Y-71.07
X142.345Y-100.53
X142.345Y-103.07
X142.645Y-68.53
X142.645Y-71.07
X144.885Y-100.53
X144.885Y-103.07
X145.185Y-68.53
X145.185Y-71.07
X147.425Y-100.53
X147.425Y-103.07
X147.725Y-68.53
X147.725Y-71.07
X149.696Y-111.884
X149.696Y-119.504
X149.965Y-100.53
X149.965Y-103.07
X150.265Y-68.53
X150.265Y-71.07
X152.236Y-111.884
X152.236Y-119.504
X152.505Y-100.53
X152.505Y-103.07
X152.805Y-68.53
X152.805Y-71.07
X154.776Y-111.884
X154.776Y-119.504
X155.045Y-100.53
X155.045Y-103.07
X155.345Y-68.53
X155.345Y-71.07
X157.316Y-111.884
X157.316Y-119.504
X159.856Y-111.884
X159.856Y-119.504
X162.Y-122.06
X162.Y-124.6
X162.Y-127.14
X162.396Y-111.884
X162.396Y-119.504
X164.936Y-111.884
X164.936Y-119.504
X167.476Y-111.884
X167.476Y-119.504
X170.016Y-111.884
X170.016Y-119.504
X172.556Y-111.884
X172.556Y-119.504
X175.096Y-111.884
X175.096Y-119.504
X177.636Y-111.884
X177.636Y-119.504
X180.176Y-111.884
X180.176Y-119.504
X182.716Y-111.884
X182.716Y-119.504
X185.256Y-111.884
X185.256Y-119.504
X187.796Y-111.884
X187.796Y-119.504
X190.926Y-74.724
X190.926Y-77.264
X190.926Y-79.804
X190.926Y-82.344
X190.926Y-84.884
X190.926Y-106.724
X190.926Y-109.264
X190.926Y-111.804
X190.926Y-114.344
X190.926Y-116.884
X193.466Y-74.724
X193.466Y-77.264
X193.466Y-79.804
X193.466Y-82.344
X193.466Y-84.884
X193.466Y-106.724
X193.466Y-109.264
X193.466Y-111.804
X193.466Y-114.344
X193.466Y-116.884
T7
X104.Y-71.45
X111.Y-71.45
X113.5Y-71.45
X120.5Y-71.45
X123.Y-71.45
X130.Y-71.45
T8
X99.196Y-69.804
X99.196Y-101.804
X99.288Y-137.496
X192.196Y-69.804
X192.196Y-101.804
X192.252Y-137.496
T3
X103.7Y-109.2G85X103.7Y-107.
G05
X107.4Y-104.85G85X109.6Y-104.85
G05
X107.4Y-111.1G85X109.6Y-111.1
G05
T0
M30
